<svg xmlns="http://www.w3.org/2000/svg" xmlns:xlink="http://www.w3.org/1999/xlink" id="Ebene_1" x="0" y="0" version="1.1" viewBox="0 0 1024 1024" xml:space="preserve" style="enable-background:new 0 0 1024 1024"><style type="text/css">.st0{fill:#4eabcb}.st1{fill:#fff}</style><g><g><path d="M946.2,597.3c48.6-62.7,77.8-141.1,77.8-226.6C1024,166,858,0,653.3,0C507.5,0,381.7,84.4,321.2,206.8 C139.9,231,0,385.9,0,573.8c0,204.7,166,370.7,370.7,370.7c68.7,0,132.8-19,188-51.6c41.6,78,123.6,131.2,218.2,131.2 c136.5,0,247.1-110.6,247.1-247.1C1024,706,994,642.3,946.2,597.3z" class="st0"/></g><g><path d="M653.3,54.6c-13.4,0-26.6,1.1-39.7,2.8c-4.2,0.5-8.3,1.3-12.5,1.9c-99.2,16.5-185,78.9-230.9,171.7 l-12.9,26.1l-28.8,3.9c-145.2,19.4-257.1,137.2-272,280.4c16.8,139.7,151.3,248.9,314.3,248.9c56.1,0,111.5-13.4,160.2-38.8 l49.1-25.6l26.8,44.4c33.6,55.5,98.7,90,170,90c90.3,0,165.7-55.2,186.4-129.2c-8.7-35.5-27-68-54.5-94l-36-34l30.3-39.2 c10.7-13.8,20.1-28.3,28.3-43.2c3.7-6.9,7.2-14,10.4-21.2c0.2-0.5,0.5-1,0.7-1.5c6.9-15.5,12.6-31.7,16.9-48.4c0,0,0-0.1,0-0.1 c2-7.6,3.6-15.4,5-23.3c0.1-0.8,0.4-1.6,0.5-2.4c1.3-7.3,2.1-14.8,2.9-22.3c0.1-1.3,0.4-2.7,0.5-4c0.7-8.8,1.1-17.7,1.1-26.7 c0,0,0,0,0-0.1c0-0.2,0-0.4,0-0.6C969,196,827.4,54.6,653.3,54.6z" class="st1"/></g><path d="M761.9,299.5c-7.5-8.6-19.6-11.6-30.2-7.5l-197.1,74.2l64.9-157.3c5.8-13.9-0.9-29.9-14.8-35.6 c-14-5.8-29.9,0.9-35.7,14.8l-88.9,215.4c-4.1,10.1-1.9,21.6,5.6,29.4c7.6,7.8,19.1,10.4,29.2,6.5l187.8-70.7l-81,150.5l-55.1-29.7 l5.4,179.6L705,574.8l-55.1-29.6l115.5-214.7C770.8,320.4,769.4,308.1,761.9,299.5z" class="st0"/></g></svg>