<svg xmlns="http://www.w3.org/2000/svg" xmlns:xlink="http://www.w3.org/1999/xlink" id="Ebene_1" x="0" y="0" version="1.1" viewBox="0 0 1024 1024" xml:space="preserve" style="enable-background:new 0 0 1024 1024"><style type="text/css">.st0{fill:#fff}.st1{fill:#ed1c24}</style><g><path d="M1021.7,745c-0.8-6.4-1.7-12.9-3.1-19.2c-0.4-1.9-1-3.7-1.4-5.5c-1.5-6.4-3.1-12.8-5.1-19c-0.4-1.3-1-2.6-1.5-4 c-2.3-6.6-4.7-13.2-7.5-19.6c-0.4-0.8-0.8-1.6-1.1-2.4c-3.1-6.8-6.4-13.5-10.1-20c-0.2-0.3-0.4-0.6-0.6-1 c-4-6.9-8.2-13.6-12.8-20.1c0,0,0-0.1-0.1-0.1c-9.5-13.4-20.3-25.8-32.3-37c48.6-62.7,77.8-141.1,77.8-226.6 c0-86.9-30.1-166.6-80.2-229.8c19.5,1.9,39.6-4.4,54.6-19.3c26.5-26.5,26.5-69.5,0-95.9c-26.5-26.5-69.5-26.5-95.9,0 c-14.9,14.9-21.3,35.1-19.3,54.6C819.9,30.1,740.2,0,653.3,0C507.5,0,381.8,84.4,321.2,206.8c-25.2,3.4-49.5,9.5-72.9,17.7 l30.9-69.2c26,0.1,51-14.8,62.3-40.1c15.3-34.2-0.1-74.3-34.3-89.6c-34.2-15.3-74.3,0.1-89.6,34.3c-11.3,25.3-5.8,53.8,11.7,73.1 l-40.5,90.8l-46.5-76c14.8-21.4,16.7-50.4,2.2-74c-19.5-32-61.3-42-93.3-22.5s-42,61.3-22.5,93.3c14.5,23.6,41.1,35.2,66.9,31.8 l59.3,96.9c-12.6,9-24.7,18.7-36,29.2c-1.5,1.4-3.1,2.8-4.6,4.2c-5.8,5.6-11.4,11.5-16.9,17.5c-2.3,2.5-4.7,5-6.9,7.6 c-4.7,5.5-9.2,11.2-13.7,16.9c-2.6,3.4-5.2,6.9-7.8,10.4c-3.9,5.4-7.6,10.9-11.1,16.6c-2.7,4.2-5.2,8.4-7.7,12.7 c-3.1,5.4-6.1,10.8-9,16.3c-2.5,4.9-4.9,9.9-7.2,15c-2.4,5.3-4.8,10.5-7,15.9c-2.3,5.6-4.3,11.4-6.3,17.1 c-1.8,5.1-3.6,10.2-5.2,15.5c-1.9,6.4-3.4,13-5,19.5c-1.2,4.9-2.5,9.6-3.4,14.6c-1.5,7.5-2.5,15.2-3.5,22.9 c-0.5,4.1-1.3,8.2-1.7,12.4C0.7,549.2,0,561.1,0,573.2c0,0.2,0,0.4,0,0.5C0,695.9,59.1,804,150.2,871.6l-1.6,2.5 c-25.8-3.8-52.6,7.3-67.4,30.8c-20,31.7-10.6,73.6,21.1,93.6c31.7,20,73.6,10.6,93.6-21.1c14.8-23.4,13.4-52.4-1.1-74l1.5-2.4 c9.8,5.2,19.7,10.2,30,14.5c44.3,18.8,93.1,29.1,144.3,29.1c15.7,0,31-1.3,46.2-3.2c3.7-0.5,7.4-1.1,11-1.7 c12.7-2,25.3-4.6,37.5-7.8c2.2-0.6,4.3-1.1,6.5-1.7c30.8-8.7,59.8-21.3,86.7-37.3v0c4.9,9.2,10.5,18,16.5,26.5c1,1.4,2,2.7,3,4 c5.2,7,10.7,13.8,16.6,20.2c1.2,1.3,2.4,2.7,3.7,4c7.1,7.4,14.5,14.4,22.4,20.9c0.2,0.2,0.5,0.3,0.7,0.5c7.5,6,15.4,11.5,23.5,16.7 c2.1,1.3,4.1,2.6,6.3,3.8c7.3,4.3,14.8,8.3,22.5,11.8c1.5,0.7,3,1.5,4.5,2.2c9.2,4,18.6,7.4,28.3,10.3c2.2,0.7,4.5,1.1,6.7,1.7 c7.8,2.1,15.7,3.7,23.7,5c2.8,0.5,5.6,0.9,8.5,1.3c10.3,1.3,20.6,2.2,31.2,2.2c85.3,0,160.5-43.2,204.9-109 c26.6-39.4,42.2-87,42.2-138.2c0-8.7-0.5-17.3-1.4-25.8C1022.4,749,1022,747,1021.7,745z"/><g><path d="M653.3,54.6c-13.4,0-26.6,1.1-39.7,2.8c-4.3,0.5-8.4,1.3-12.6,2c-99.2,16.5-185,78.9-230.9,171.6l-12.9,26.1 l-28.8,3.9c-145.2,19.4-257.1,137.2-272,280.4c16.8,139.7,151.3,248.9,314.3,248.9c56.1,0,111.5-13.4,160.2-38.8l49.1-25.6 l26.8,44.4c33.6,55.5,98.7,90,170,90c90.3,0,165.7-55.2,186.4-129.2c-8.7-35.5-27-68-54.5-94l-36-34l30.3-39.2 c10.7-13.8,20.1-28.2,28.3-43.2c3.8-6.9,7.2-14,10.5-21.2c0.2-0.5,0.5-1,0.7-1.5c6.8-15.4,12.5-31.5,16.8-48 c0-0.2,0.1-0.3,0.1-0.5c2-7.6,3.6-15.4,5-23.2c0.1-0.8,0.4-1.6,0.5-2.5c1.2-7.3,2.1-14.8,2.8-22.3c0.1-1.4,0.4-2.7,0.5-4.1 c0.7-8.8,1.1-17.7,1.1-26.7C969.4,196.4,827.6,54.6,653.3,54.6z" class="st0"/></g><path d="M761.9,299.6c-7.5-8.6-19.6-11.6-30.2-7.6l-197.1,74.2l41.3-100c26-0.6,50.5-16.2,61-41.8 c14.3-34.6-2.2-74.2-36.8-88.5c-34.6-14.3-74.2,2.2-88.5,36.8c-10.6,25.6-4.2,53.9,13.8,72.7l-65.3,158.2 c-4.2,10.1-1.9,21.6,5.6,29.4c7.6,7.8,19.1,10.4,29.2,6.6l187.8-70.7l-81,150.5l-55.1-29.6l5.4,179.6L705,574.8l-55.1-29.6 l115.5-214.7C770.8,320.4,769.4,308.1,761.9,299.6z" class="st1"/></g></svg>