<svg xmlns="http://www.w3.org/2000/svg" xmlns:svg="http://www.w3.org/2000/svg" id="svg8" width="11in" height="816" version="1.1" viewBox="0 0 279.4 215.9"><metadata id="metadata5"/><g id="layer1" transform="translate(0,-81.1)"><g id="g4796" transform="rotate(-29.01229,73.046042,121.22491)"><path id="path12" d="m 46.367866,43.314518 c 0,0 1.58921,3.69544 0,8.60447 -1.83477,5.66754 -0.701362,12.20664 -0.0767,16.8528 1.21491,9.03635 0.0767,88.764332 0.0767,131.881532 h 8.070518 c 0,-46.46672 -1.75839,-123.432682 -0.0927,-131.850152 0.99457,-5.026 1.68155,-9.92635 0.0927,-16.77595 -1.16203,-5.00954 0,-5.85039 0,-9.51137 h -8.070518 z" style="opacity:1;vector-effect:none;fill:#803300;fill-opacity:1;stroke:#000;stroke-width:.85982138;stroke-linecap:butt;stroke-linejoin:miter;stroke-miterlimit:4;stroke-dasharray:none;stroke-dashoffset:0;stroke-opacity:1"/><ellipse id="path14" cx="50.669" cy="42.13" rx="9.413" ry="2.215" style="opacity:1;vector-effect:none;fill:#fff;fill-opacity:1;stroke:#333;stroke-width:1.15859199;stroke-linecap:butt;stroke-linejoin:miter;stroke-miterlimit:4;stroke-dasharray:none;stroke-dashoffset:0;stroke-opacity:1"/><rect id="rect3725" width="95.415" height="3.368" x="-201.919" y="54.915" transform="rotate(-90)" style="opacity:1;vector-effect:none;fill:#a40;fill-opacity:1;stroke:#000;stroke-width:.70599997;stroke-linecap:butt;stroke-linejoin:miter;stroke-miterlimit:4;stroke-dasharray:none;stroke-dashoffset:0;stroke-opacity:1"/><rect id="rect3729" width="11.936" height="13.549" x="-202.797" y="45.518" transform="rotate(-90)" style="opacity:1;vector-effect:none;fill:#b3b3b3;fill-opacity:1;stroke:#333;stroke-width:.63450718;stroke-linecap:butt;stroke-linejoin:miter;stroke-miterlimit:4;stroke-dasharray:none;stroke-dashoffset:0;stroke-opacity:1"/><path id="path3731" d="m 56.613851,106.16137 c 0,0 -0.24168,-6.398058 1.02098,-9.693309 0.78131,-2.039027 2.42033,-4.09041 4.49792,-4.7625 1.79385,-0.5803 3.09877,-0.51589 4.76513,0.36611 2.53543,1.34199 2.27053,2.97449 4.53263,6.216388 1.36878,1.961631 3.71629,3.306381 6.03967,3.875121 7.39159,1.80937 18.94588,1.58749 16.02175,1.58749" style="opacity:1;vector-effect:none;fill:none;fill-opacity:1;stroke:#8080ff;stroke-width:1.5;stroke-linecap:butt;stroke-linejoin:miter;stroke-miterlimit:4;stroke-dasharray:none;stroke-dashoffset:0;stroke-opacity:1"/><path id="path4544" d="m 94.703667,102.81387 c 3.262067,1.23276 10.142893,-0.35753 10.142893,-0.35753 l -2.96326,4.31989 c 0,0 -3.909421,-2.97182 -7.476951,-2.05203 z" style="opacity:1;vector-effect:none;fill:#fc0;fill-opacity:1;stroke:#fc0;stroke-width:.5;stroke-linecap:butt;stroke-linejoin:miter;stroke-miterlimit:4;stroke-dasharray:none;stroke-dashoffset:0;stroke-opacity:1"/><rect id="rect4550" width="6.255" height="6.255" x="47.143" y="81.28" style="opacity:1;vector-effect:none;fill:#b3b3b3;fill-opacity:1;stroke:#b3b3b3;stroke-width:1.83068395;stroke-linecap:butt;stroke-linejoin:miter;stroke-miterlimit:4;stroke-dasharray:none;stroke-dashoffset:0;stroke-opacity:1"/><rect style="opacity:1;vector-effect:none;fill:#b3b3b3;fill-opacity:1;stroke:#b3b3b3;stroke-width:2.27667642;stroke-linecap:butt;stroke-linejoin:miter;stroke-miterlimit:4;stroke-dasharray:none;stroke-dashoffset:0;stroke-opacity:1" id="rect4552" width="10.416" height="5.809" x="47.102" y="145.003"/><rect id="rect4554" width="3.18" height="2.571" x="55.003" y="106.557" style="opacity:1;vector-effect:none;fill:#b3b3b3;fill-opacity:1;stroke:#b3b3b3;stroke-width:.83697993;stroke-linecap:butt;stroke-linejoin:miter;stroke-miterlimit:4;stroke-dasharray:none;stroke-dashoffset:0;stroke-opacity:1"/><circle id="path4556" cx="50.71" cy="69.53" r="1.797" style="opacity:1;vector-effect:none;fill:#d5e5ff;fill-opacity:1;stroke:#d5e5ff;stroke-width:.60041487;stroke-linecap:butt;stroke-linejoin:miter;stroke-miterlimit:4;stroke-dasharray:none;stroke-dashoffset:0;stroke-opacity:1"/><circle style="opacity:1;vector-effect:none;fill:#d5e5ff;fill-opacity:1;stroke:#d5e5ff;stroke-width:.49330565;stroke-linecap:butt;stroke-linejoin:miter;stroke-miterlimit:4;stroke-dasharray:none;stroke-dashoffset:0;stroke-opacity:1" id="circle4580" cx="49.806" cy="185.792" r="1.477"/><circle id="circle4582" cx="51.02" cy="175.582" r="1.156" style="opacity:1;vector-effect:none;fill:#d5e5ff;fill-opacity:1;stroke:#d5e5ff;stroke-width:.38619646;stroke-linecap:butt;stroke-linejoin:miter;stroke-miterlimit:4;stroke-dasharray:none;stroke-dashoffset:0;stroke-opacity:1"/><circle style="opacity:1;vector-effect:none;fill:#d5e5ff;fill-opacity:1;stroke:#d5e5ff;stroke-width:.46652839;stroke-linecap:butt;stroke-linejoin:miter;stroke-miterlimit:4;stroke-dasharray:none;stroke-dashoffset:0;stroke-opacity:1" id="circle4584" cx="50.178" cy="171.443" r="1.397"/><ellipse id="path4586" cx="-11.971" cy="-137.549" rx="1.235" ry=".56" transform="matrix(-0.9676937,-0.25212875,-0.2886886,-0.95742305,0,0)" style="opacity:1;vector-effect:none;fill:#d5e5ff;fill-opacity:1;stroke:#d5e5ff;stroke-width:.33503741;stroke-linecap:butt;stroke-linejoin:miter;stroke-miterlimit:4;stroke-dasharray:none;stroke-dashoffset:0;stroke-opacity:1"/><ellipse id="path4588" cx="-73.939" cy="-121.871" rx="1.866" ry=".625" transform="matrix(-0.98472888,-0.17409487,0.17196262,-0.98510348,0,0)" style="opacity:1;vector-effect:none;fill:#d5e5ff;fill-opacity:1;stroke:#d5e5ff;stroke-width:.4565016;stroke-linecap:butt;stroke-linejoin:miter;stroke-miterlimit:4;stroke-dasharray:none;stroke-dashoffset:0;stroke-opacity:1"/><ellipse style="opacity:1;vector-effect:none;fill:#d5e5ff;fill-opacity:1;stroke:#d5e5ff;stroke-width:.32630903;stroke-linecap:butt;stroke-linejoin:miter;stroke-miterlimit:4;stroke-dasharray:none;stroke-dashoffset:0;stroke-opacity:1" id="ellipse4592" cx="105.172" cy="-179.239" rx="1.222" ry=".537" transform="matrix(-0.94648072,0.32276035,-0.84098337,-0.54106097,0,0)"/><ellipse style="opacity:1;vector-effect:none;fill:#d5e5ff;fill-opacity:1;stroke:#d5e5ff;stroke-width:.24506681;stroke-linecap:butt;stroke-linejoin:miter;stroke-miterlimit:4;stroke-dasharray:none;stroke-dashoffset:0;stroke-opacity:1" id="ellipse4594" cx="-34.642" cy="-123.909" rx=".938" ry=".395" transform="matrix(-0.92026936,-0.39128546,-0.14973615,-0.98872599,0,0)"/><ellipse id="ellipse4596" cx="125.817" cy="-154.59" rx=".938" ry=".395" transform="matrix(-0.76478399,0.64428677,-0.94974484,-0.31302514,0,0)" style="opacity:1;vector-effect:none;fill:#d5e5ff;fill-opacity:1;stroke:#d5e5ff;stroke-width:.24506681;stroke-linecap:butt;stroke-linejoin:miter;stroke-miterlimit:4;stroke-dasharray:none;stroke-dashoffset:0;stroke-opacity:1"/><path id="path4598" d="M 50.207146,125.41978 50.962303,71.546673" style="opacity:1;vector-effect:none;fill:none;fill-opacity:1;stroke:#aaf;stroke-width:.57336599;stroke-linecap:butt;stroke-linejoin:miter;stroke-miterlimit:4;stroke-dasharray:none;stroke-dashoffset:0;stroke-opacity:1"/><path style="opacity:1;vector-effect:none;fill:none;fill-opacity:1;stroke:#aaf;stroke-width:.57336599;stroke-linecap:butt;stroke-linejoin:miter;stroke-miterlimit:4;stroke-dasharray:none;stroke-dashoffset:0;stroke-opacity:1" id="path4600" d="m 49.002555,185.15586 0.755157,-53.87311"/><path id="path4602" d="m 48.334921,170.75003 0.755157,-53.8731" style="opacity:1;vector-effect:none;fill:none;fill-opacity:1;stroke:#aaf;stroke-width:.57336599;stroke-linecap:butt;stroke-linejoin:miter;stroke-miterlimit:4;stroke-dasharray:none;stroke-dashoffset:0;stroke-opacity:1"/><path style="opacity:1;vector-effect:none;fill:none;fill-opacity:1;stroke:#aaf;stroke-width:.39104879;stroke-linecap:butt;stroke-linejoin:miter;stroke-miterlimit:4;stroke-dasharray:none;stroke-dashoffset:0;stroke-opacity:1" id="path4604" d="m 47.585808,166.63427 0.543936,-34.79044"/><ellipse style="opacity:1;vector-effect:none;fill:#d5e5ff;fill-opacity:1;stroke:#d5e5ff;stroke-width:.3547374;stroke-linecap:butt;stroke-linejoin:miter;stroke-miterlimit:4;stroke-dasharray:none;stroke-dashoffset:0;stroke-opacity:1" id="circle4608" cx="48.125" cy="117.468" rx=".891" ry="1.265"/></g></g></svg>