<svg xmlns="http://www.w3.org/2000/svg" xmlns:svg="http://www.w3.org/2000/svg" id="svg2" width="785.057" height="902.826" version="1.1" viewBox="0 0 735.991 846.399"><defs id="defs4"><linearGradient id="linearGradient3714"><stop id="stop3716" offset="0" style="stop-color:#fff"/><stop id="stop3718" offset="1" style="stop-color:#67674e"/></linearGradient><linearGradient id="linearGradient4328-4"><stop id="stop4330-4" offset="0" style="stop-color:#ffd200"/><stop id="stop4342-1" offset=".274" style="stop-color:#a7a70e"/><stop id="stop4332-9" offset=".526" style="stop-color:#8f7600"/><stop id="stop4334-5" offset=".644" style="stop-color:#f7f762"/><stop id="stop4344-57" offset=".763" style="stop-color:#fff"/><stop id="stop4336-47" offset="1" style="stop-color:#ebeb6e"/></linearGradient></defs><metadata id="metadata7"/><g id="layer1" transform="translate(174.09971,-97.106047)"><g id="g4988" transform="matrix(-0.95020482,-0.31162605,-0.31162605,0.95020482,543.50583,87.538163)"><g id="g4877" transform="rotate(56.802293,211.56261,525.98082)"><g id="g4836" transform="translate(38.90952,16.828174)" style="fill:#848484;fill-opacity:1"><rect style="fill:#848484;fill-opacity:1;stroke:none" id="rect4172-6" width="34.016" height="8.319" x="90.197" y="55.462"/><path style="fill:#848484;fill-opacity:1;stroke:none" id="rect4309" d="m 67.969,49.615 c 0.09039,-0.10784 0.35808,-0.22357 0.35808,-0.22357 l 13.238,-2.4177 c 0,0 0.70463,-0.0927 1.0475,-0.009 0.34285,0.0836 0.85154,0.44499 0.85154,0.44499 l 8.9307,6.8624 -0.0074,10.519 -8.9568,7.0592 c 0,0 -0.51562,0.3961 -0.78827,0.45964 -0.27266,0.0635 -1.0096,-0.0858 -1.0096,-0.0858 l -13.429,-2.365 c 0,0 -0.23462,-0.064 -0.34967,-0.20156 -0.11505,-0.13753 -0.0763,-0.3344 -0.0916,-0.50469 -0.56792,-6.3219 -1.2012,-12.811 0.0068,-19.042 0.03389,-0.17481 0.08505,-0.35911 0.19944,-0.49558 z"/></g><g id="g4840" transform="translate(38.90952,15.620174)" style="fill:#848484;fill-opacity:1"><rect style="fill:#848484;fill-opacity:1;stroke:none" id="rect4172" width="35.641" height="8.319" x="200.58" y="56.647"/><path style="fill:#848484;fill-opacity:1;stroke:none" id="rect4309-4" d="m 256.76,50.823 c -0.0904,-0.10784 -0.35808,-0.22357 -0.35808,-0.22357 l -13.238,-2.4177 c 0,0 -0.70463,-0.0927 -1.0475,-0.009 -0.34285,0.0836 -0.85153,0.44499 -0.85153,0.44499 l -8.9307,6.8624 0.007,10.519 8.9568,7.0592 c 0,0 0.51562,0.3961 0.78827,0.45964 0.27266,0.0635 1.0096,-0.0858 1.0096,-0.0858 l 13.429,-2.365 c 0,0 0.23462,-0.064 0.34968,-0.20156 0.11505,-0.13753 0.0763,-0.3344 0.0916,-0.50469 0.56792,-6.3219 1.2012,-12.811 -0.007,-19.042 -0.0339,-0.17481 -0.0851,-0.35911 -0.19944,-0.49558 z"/></g></g><g id="g4885" transform="rotate(56.802293,210.994,527.03238)"><g id="g4848" transform="translate(38.90952,16.828174)" style="fill:#848484;fill-opacity:1"><rect style="fill:#848484;fill-opacity:1;stroke:none" id="rect4172-4" width="33.349" height="8.319" x="95.766" y="127.77"/><path style="fill:#848484;fill-opacity:1;stroke:none" id="rect4309-7" d="m 72.812,121.8 c 0.09039,-0.10784 0.35808,-0.22357 0.35808,-0.22357 l 13.238,-2.4177 c 0,0 0.70463,-0.0927 1.0475,-0.009 0.34285,0.0836 0.85154,0.44499 0.85154,0.44499 l 8.9307,6.8624 -0.0074,10.519 -8.9568,7.0592 c 0,0 -0.51562,0.3961 -0.78827,0.45964 -0.27266,0.0635 -1.0096,-0.0858 -1.0096,-0.0858 l -13.429,-2.365 c 0,0 -0.23462,-0.064 -0.34967,-0.20156 -0.11505,-0.13753 -0.0763,-0.3344 -0.0916,-0.50469 -0.56792,-6.3219 -1.2012,-12.811 0.0068,-19.042 0.03389,-0.17481 0.08505,-0.35911 0.19944,-0.49558 z"/></g><g id="g4844" transform="translate(38.90952,16.568174)" style="fill:#848484;fill-opacity:1"><rect style="fill:#848484;fill-opacity:1;stroke:none" id="rect4172-9" width="35.141" height="8.319" x="195.76" y="127.86"/><path style="fill:#848484;fill-opacity:1;stroke:none" id="rect4309-78" d="m 251.9,122.06 c -0.0904,-0.10784 -0.35808,-0.22357 -0.35808,-0.22357 l -13.238,-2.4177 c 0,0 -0.70463,-0.0927 -1.0475,-0.009 -0.34285,0.0836 -0.85153,0.44499 -0.85153,0.44499 l -8.9307,6.8624 0.007,10.519 8.9568,7.0592 c 0,0 0.51562,0.3961 0.78827,0.45964 0.27266,0.0635 1.0096,-0.0858 1.0096,-0.0858 l 13.429,-2.365 c 0,0 0.23462,-0.064 0.34967,-0.20156 0.11506,-0.13753 0.0763,-0.3344 0.0916,-0.50469 0.56792,-6.3219 1.2012,-12.811 -0.007,-19.042 -0.0339,-0.17481 -0.085,-0.35911 -0.19943,-0.49558 z"/></g></g><path id="path3594" d="M 136.83021,507.04543 C 102.5117,455.75682 33.177599,450.27212 -10.536322,519.56661 c -7.045798,10.97507 -12.929056,22.77528 -21.369028,32.57485 -5.563947,5.64437 -10.550461,9.39951 -18.605255,11.32974 -19.538162,3.31259 -30.483534,3.44968 -49.702415,2.67877 -98.94644,-4.25185 -191.99644,93.25531 -100.23879,218.91339 83.40608,139.41756 204.7239276,83.10076 242.309599,-14.11556 4.60741,-9.51611 10.312432,-23.64566 17.33938,-36.59098 2.950183,-5.06881 7.825142,-9.20242 14.189491,-11.58842 14.493461,-6.01441 23.991931,-5.39206 33.76609,-5.9347 79.06705,-5.4477 120.54234,-75.87137 78.99564,-134.72791" style="fill:#885227;fill-opacity:1"/><path id="path3592" d="m 22.994737,582.3912 c -7.171605,31.34037 20.749132,67.36359 46.14718,74.67982 L 477.42041,382.20343 437.92721,322.30366 Z" style="fill:#7c503e;fill-opacity:1"/><ellipse id="path2818" cx="543.345" cy="309.376" rx="47.488" ry="50.068" transform="rotate(56.602295)" style="fill:#1d1d1d;fill-opacity:1;stroke:#493026;stroke-width:4;stroke-miterlimit:4;stroke-dasharray:none;stroke-opacity:1"/><g id="g4820" transform="rotate(56.802293,211.56261,525.98082)" style="fill:#848484;fill-opacity:1;stroke:#848484;stroke-opacity:1"><path style="fill:#848484;fill-opacity:1;stroke:#848484;stroke-width:1px;stroke-linecap:round;stroke-opacity:1" id="path3662" d="m 162.94952,342.25388 75.065,-0.2594"/><path style="fill:#848484;fill-opacity:1;stroke:#848484;stroke-width:1px;stroke-linecap:round;stroke-opacity:1" id="path3676" d="m 161.13952,431.91103 78.478,-0.27394"/><path style="fill:#848484;fill-opacity:1;stroke:#848484;stroke-width:1px;stroke-linecap:round;stroke-opacity:1" id="path3680" d="m 160.31452,477.87817 79.709,-0.28347"/><path style="fill:#848484;fill-opacity:1;stroke:#848484;stroke-width:1px;stroke-linecap:round;stroke-opacity:1" id="path3684" d="m 159.30952,524.60817 81.244,-0.28926"/><path style="fill:#848484;fill-opacity:1;stroke:#848484;stroke-width:1px;stroke-linecap:round;stroke-opacity:1" id="path3688" d="m 158.18952,566.94817 82.994,-0.29494"/><path id="path4808" d="m 161.76452,387.98246 76.978,-0.27394" style="fill:#848484;fill-opacity:1;stroke:#848484;stroke-width:1px;stroke-linecap:round;stroke-opacity:1"/><path style="fill:#848484;fill-opacity:1;stroke:#848484;stroke-width:1px;stroke-linecap:round;stroke-opacity:1" id="path4812" d="m 163.51452,297.98246 74.228,-0.27394"/><path id="path4816" d="m 164.26452,258.69675 72.978,-0.27394" style="fill:#848484;fill-opacity:1;stroke:#848484;stroke-width:1px;stroke-linecap:round;stroke-opacity:1"/></g><path id="path3600" d="m 443.22653,318.97935 c 12.90049,-10.3484 20.94726,-20.00553 23.01406,-30.73651 l 118.81857,-83.29091 c 13.1456,17.96442 27.18019,26.96293 47.47839,34.49906 -2.2932,17.20103 2.35288,37.16667 13.03803,57.29195 l -125.63724,72.94304 c -11.39681,-2.56387 -24.57593,1.7281 -37.65592,9.17766 L 443.2248,318.97523 Z" style="fill:#885227;fill-opacity:1"/><path id="path3598" d="m 437.89972,322.38116 6.04702,-3.95655 39.28335,60.01675 -6.03948,3.96481 -39.29134,-60.02587 -2e-5,-4e-5 z" style="fill:#848484;fill-opacity:1"/><path id="path3850" d="m 503.07285,291.92798 -55.70499,32.00891" style="fill:none;fill-opacity:1;stroke:#fff;stroke-width:5.625;stroke-miterlimit:4;stroke-dasharray:none;stroke-opacity:1"/><rect style="opacity:1;fill:#7c503e;fill-opacity:1;fill-rule:nonzero;stroke:none;stroke-width:12;stroke-linecap:round;stroke-linejoin:round;stroke-miterlimit:4;stroke-dasharray:none;stroke-dashoffset:0;stroke-opacity:1" id="rect4830" width="112.853" height="24.036" x="486.857" y="488.885" rx="4" ry="4" transform="rotate(56.802293)"/><path id="rect2891" d="m -141.23247,687.7936 49.362,75.43963 c -1.116133,2.7895 -3.140754,4.19038 -6.178662,4.04285 l -49.361998,-75.43963 c 1.15018,-3.14329 3.43998,-4.03626 6.17866,-4.04285 z" style="fill:#848484;fill-opacity:1"/><path id="path3602" d="m 447.51152,323.84779 -592.82133,374.16284 0.43083,-0.2843" style="fill:none;fill-opacity:1;stroke:#fff;stroke-width:5.625;stroke-miterlimit:4;stroke-dasharray:none;stroke-opacity:1"/><path id="path3852" d="m 540.32264,331.1772 -62.0235,43.51651" style="fill:none;fill-opacity:1;stroke:#fff;stroke-width:5.625;stroke-miterlimit:4;stroke-dasharray:none;stroke-opacity:1"/><g id="g4832" transform="rotate(56.802293,211.06488,526.9013)"><ellipse style="fill:#848484;fill-opacity:1;stroke:none" id="path4040" cx="177.65" cy="148.536" rx="9.706" ry="10.139"/><ellipse style="fill:#848484;fill-opacity:1;stroke:none" id="path4040-1" cx="225.165" cy="148.673" rx="9.706" ry="10.139"/></g><path id="path3858" d="M 573.70147,246.22098 458.4191,340.77896" style="fill:none;fill-opacity:1;stroke:#fff;stroke-width:5.625;stroke-miterlimit:4;stroke-dasharray:none;stroke-opacity:1"/><path id="path3604" d="M -131.10659,719.55294 458.53329,340.6923" style="fill:none;fill-opacity:1;stroke:#fff;stroke-width:5.625;stroke-miterlimit:4;stroke-dasharray:none;stroke-opacity:1"/><path id="path3856" d="M 468.9748,357.92844 602.47724,291.74053" style="fill:none;fill-opacity:1;stroke:#fffdff;stroke-width:5.625;stroke-miterlimit:4;stroke-dasharray:none;stroke-opacity:1"/><g id="g4804" transform="rotate(56.802293,211.03995,526.94739)"><ellipse style="fill:#848484;fill-opacity:1;stroke:none" id="path4040-14" cx="172.886" cy="76.581" rx="9.706" ry="10.139"/><ellipse style="fill:#848484;fill-opacity:1;stroke:none" id="path4040-8" cx="229.829" cy="77.317" rx="9.706" ry="10.139"/></g><path id="path3606" d="M 469.23678,357.78092 -116.74946,741.6246" style="fill:none;fill-opacity:1;stroke:#fff;stroke-width:5.625;stroke-miterlimit:4;stroke-dasharray:none;stroke-opacity:1"/><path id="path3608" d="M -102.3437,763.0425 93.126442,632.29347 479.9823,373.52748" style="fill:none;fill-opacity:1;stroke:#fffffe;stroke-width:5.625;stroke-miterlimit:4;stroke-dasharray:none;stroke-opacity:1"/></g></g></svg>