<svg xmlns="http://www.w3.org/2000/svg" xmlns:svg="http://www.w3.org/2000/svg" xmlns:xlink="http://www.w3.org/1999/xlink" id="svg3780" width="27" height="27" version="1.1" viewBox="0 0 7.144 7.144"><defs id="defs3774"><linearGradient id="linearGradient6272"><stop style="stop-color:#735014;stop-opacity:1" id="stop6268" offset="0"/><stop style="stop-color:#422e0c;stop-opacity:0" id="stop6270" offset="1"/></linearGradient><linearGradient id="linearGradient6264"><stop style="stop-color:#702624;stop-opacity:1" id="stop6260" offset="0"/><stop style="stop-color:#2c0f0e;stop-opacity:0" id="stop6262" offset="1"/></linearGradient><linearGradient id="linearGradient6266" x1="1.515" x2="1.274" y1="296.753" y2="294.704" gradientUnits="userSpaceOnUse" xlink:href="#linearGradient6264"/><linearGradient id="linearGradient6274" x1="6.364" x2="6.367" y1="6.603" y2="6.042" gradientUnits="userSpaceOnUse" xlink:href="#linearGradient6272"/><linearGradient id="linearGradient6274-1" x1="6.364" x2="6.367" y1="6.603" y2="6.042" gradientTransform="translate(0.01190281,285.08981)" gradientUnits="userSpaceOnUse" xlink:href="#linearGradient6272"/></defs><metadata id="metadata3777"/><g id="layer1" transform="translate(0,-289.85623)" style="display:inline"><path id="path4637-5" d="m 0.1277999,293.2174 c 0.034594,2.87829 0.81439733,3.66303 1.1693644,3.6616 l 2.3091985,0.0295 c -0.3124478,-0.004 -1.2235154,-1.08749 -1.2520462,-3.63803 -0.028531,-2.55053 0.8498325,-3.27326 1.2225168,-3.30136 l -2.2678569,0.0237 c -0.31244867,0.004 -1.2157704,0.3464 -1.1811766,3.22469 z" style="fill:#a43834;fill-opacity:1;stroke:#000;stroke-width:.26499999;stroke-linecap:butt;stroke-linejoin:round;stroke-miterlimit:4;stroke-dasharray:none;stroke-opacity:1"/><ellipse id="path3788" cx="3.697" cy="293.433" rx="1.252" ry="3.555" style="fill:#000;fill-opacity:1;stroke:none;stroke-width:.26458332;stroke-opacity:1"/><ellipse id="path3788-3" cx="3.713" cy="293.358" rx=".926" ry="2.629" style="fill:#fff;fill-opacity:1;stroke-width:.19565532"/><path style="fill:none;stroke:#323232;stroke-width:.5291667;stroke-linecap:round;stroke-linejoin:miter;stroke-miterlimit:4;stroke-dasharray:none;stroke-opacity:1" id="path4637-7" d="m 2.9862438,290.2171 c -0.4128478,0.55914 -0.7972841,1.11019 -0.8294178,2.93176 -0.033279,1.88647 0.3260644,2.81316 0.9298177,3.4879"/><path id="path6161-5" d="m 6.6854001,291.67199 c 0.1779477,-0.11717 0.3221737,-0.40342 0.3221754,-0.65251 1.8e-6,-0.24909 -0.2542775,-0.66042 -0.697877,-0.64861 -0.4435995,0.0118 -0.6856137,0.43465 -0.6860653,0.68405 -4.517e-4,0.24939 0.2000325,0.51925 0.3652464,0.60454 l -0.030512,3.63334 c -0.1390868,0.0962 -0.3416551,0.31848 -0.341653,0.56757 2.1e-6,0.24909 0.3369635,0.69584 0.7215005,0.68403 0.384537,-0.0118 0.7096867,-0.43494 0.7096889,-0.68403 2.1e-6,-0.24909 -0.1769159,-0.53749 -0.3423361,-0.60455 z" style="fill:#c78b23;fill-opacity:1;stroke:#323232;stroke-width:.26458332;stroke-linecap:round;stroke-miterlimit:4;stroke-dasharray:none;stroke-opacity:1"/><path style="fill:url(#linearGradient6274);fill-opacity:1;stroke:none;stroke-width:0;stroke-linecap:butt;stroke-linejoin:miter;stroke-miterlimit:4;stroke-dasharray:none;stroke-opacity:1" id="path6220" d="M 5.7611839,6.1013626 C 5.8721075,6.3412113 6.0421059,6.5627663 6.3133837,6.562021 6.5846615,6.5612756 6.7496685,6.3885736 6.8980653,6.1131741 Z" transform="translate(0,289.85623)"/><path id="path4637-5-9" d="m 1.2262939,296.74316 1.6359283,0.0236 c -0.158895,-0.31716 -0.6422209,-0.73642 -0.901081,-2.04672 l -1.58571496,0.10193 c 0.10940756,0.92004 0.50905579,1.78501 0.85086766,1.92119 z" style="display:inline;fill:url(#linearGradient6266);fill-opacity:1;stroke:none;stroke-width:0;stroke-linecap:butt;stroke-linejoin:round;stroke-miterlimit:4;stroke-dasharray:none;stroke-opacity:1"/><path style="display:inline;fill:url(#linearGradient6274-1);fill-opacity:1;stroke:none;stroke-width:0;stroke-linecap:butt;stroke-linejoin:miter;stroke-miterlimit:4;stroke-dasharray:none;stroke-opacity:1" id="path6220-0" d="m 5.7730868,291.19117 c 0.1109236,0.23985 0.280922,0.4614 0.5521998,0.46066 0.2712778,-7.5e-4 0.4362848,-0.17345 0.5846816,-0.44885 z"/></g></svg>