<svg xmlns="http://www.w3.org/2000/svg" xmlns:xlink="http://www.w3.org/1999/xlink" style="enable-background:new 0 0 360.9 244.9" x="0" y="0" version="1.1" viewBox="0 0 360.9 244.9" xml:space="preserve"><style type="text/css">.st0{display:none}.st1{fill:url(#SVGID_1_)}.st2{fill:url(#SVGID_2_)}.st3{fill:none;stroke:#e6e6e6;stroke-width:1.0844}.st3,.st4,.st5{stroke-miterlimit:10}.st4{fill:#d8bd8d;stroke:#000;stroke-width:.1213}.st5{fill:none;stroke:#e6e6e6;stroke-width:1.0817}.st6{stroke-width:.1213}.st6,.st7,.st8{stroke:#000;stroke-miterlimit:10}.st7{fill:#d8bd8d;stroke-width:.1188}.st8{stroke-width:1.0817}.st8,.st9{fill:none}.st10{stroke-width:.1456}.st10,.st11,.st12,.st13,.st14{stroke:#000;stroke-miterlimit:10}.st11{stroke-width:.1335}.st12{stroke-width:.1165}.st13{fill:url(#SVGID_3_);stroke-width:.1213}.st14{fill:url(#SVGID_4_);stroke-width:.1896}</style><g id="Layer_1_copy" class="st0"><image width="2912" height="1976" transform="matrix(0.1239 0 0 0.1239 0 0)" xlink:href="bongobase.jpg" style="display:inline;overflow:visible"/></g><g id="Layer_1" class="st0"><image width="2912" height="1976" transform="matrix(0.1239 0 0 0.1239 0 0)" xlink:href="bongobase.jpg" style="display:inline;overflow:visible"/></g><g id="Layer_2"><g><linearGradient id="SVGID_1_" x1="134.371" x2="157.25" y1="104.363" y2="90.16" gradientUnits="userSpaceOnUse"><stop style="stop-color:#bf6f00" offset=".113"/><stop style="stop-color:#ff7300" offset=".222"/><stop style="stop-color:#fc7c00" offset=".273"/><stop style="stop-color:#f49600" offset=".358"/><stop style="stop-color:#e7bf00" offset=".466"/><stop style="stop-color:#e5c500" offset=".481"/><stop style="stop-color:#ff7300" offset=".661"/><stop style="stop-color:#f97c01" offset=".709"/><stop style="stop-color:#ea9602" offset=".789"/><stop style="stop-color:#e59e03" offset=".811"/><stop style="stop-color:#bf6f00" offset=".957"/></linearGradient><path d="M129.8,95l10.6,11.2c0,0,7.8,1.7,10.8,0s5.4-4.6,5.5-4.5c0.1,0.1-3.3-4.5-2.8-7.6c0.4-3.1,1.6-6.9,1.6-6.9 s-7,5.9-12.4,7.2c-5.4,1.4-8.8,1.5-10.4,1.1C131.1,95.2,129.8,95,129.8,95z" class="st1"/><linearGradient id="SVGID_2_" x1="161.359" x2="194.464" y1="113.45" y2="110.114" gradientUnits="userSpaceOnUse"><stop style="stop-color:#bf6f00" offset=".113"/><stop style="stop-color:#ff7300" offset=".222"/><stop style="stop-color:#fc7c00" offset=".273"/><stop style="stop-color:#f49600" offset=".358"/><stop style="stop-color:#e7bf00" offset=".466"/><stop style="stop-color:#e5c500" offset=".481"/><stop style="stop-color:#ff7300" offset=".661"/><stop style="stop-color:#f97c01" offset=".709"/><stop style="stop-color:#ea9602" offset=".789"/><stop style="stop-color:#e59e03" offset=".811"/><stop style="stop-color:#bf6f00" offset=".957"/></linearGradient><path d="M161.1,105c0,0,10.2,3.3,15.8,3.1s8.1-1.1,11.4-2.3c3.3-1.2,7.3-4.3,7.3-4.3l-4.8,12.5c0,0-2.8,5.2-6.5,5.6 s-10,0.4-12.6-0.6s-5.6-3.1-6.4-5S161.1,105,161.1,105L161.1,105" class="st2"/><ellipse cx="141.4" cy="85.1" class="st3" rx="16.6" ry="8.8" transform="matrix(0.9359 -0.3524 0.3524 0.9359 -20.9237 55.2979)"/><path d="M127,83.3c0,0-2.1,5.5,8.3,5.1c10.4-0.4,16.3-7.1,16.3-7.1s2.1-3.5,1.9-4.4c-0.2-0.9-2.5-2.4-2.5-2.4l3.4,1 c1.5,0.4,2.6,1.7,2.9,3.3l0.1,0.8l-1.5,2.9l-1,2.6l-2.8,2.4l-5.6,3.4l-10.1,2.8l-7-1.6l-4.2-2.7l1-3L127,83.3z" class="st4"/><path d="M201.3,89.7c1,9.8-8.5,16.4-21.5,18.1c-13.1,1.7-24.6-3.5-25.6-11.7c-1.1-8.2,8.7-16.2,21.8-17.9 S200.5,81.5,201.3,89.7z" class="st5"/><path d="M148.5,73.5l2.6,0.9c0.7,0.3-0.9,0.1,1.3,0.3l3.1,2.6c0.8,0.7,1.2,1.5-0.7,4.5c-2.9,4.5-10.5,8.8-18.9,9.5 c-6.7,0.5-9.4-2.5-9.4-2.5L126,87v-1.8c0,0,1-3,4.6-5.6c3.6-2.6,5.2-3.2,5.2-3.2s4.2-1.7,4.7-1.9 C142.3,73.8,146.3,73.5,148.5,73.5c-2.3-0.1-4.5,0.1-5.9,0.3c-11.5,2-15.7,8.1-17.3,10.8c-1.6,2.7,0,5.3,0,5.3l1.3,1.9 c0,0,5.7,5.9,17.5,0.8s14.4-10.2,13.1-14.8C156.5,75.4,150.1,73.7,148.5,73.5z" class="st6"/><path d="M165.7,78.3c0,0-5.5,1.8-7.1,5.8c-1.6,4-2.6,10,4.2,12.6c6.7,2.6,15.6,3.2,24-0.8c8.4-4,11.3-10.8,9.1-15.6 l5.3,5.9c0,0-0.2,5.3-2.1,8.5s-1.9,3.3-1.9,3.3s-8.4,8.3-21.2,8.1c-12.8-0.2-18-4.4-20.1-6.9c-2-2.4-1.8-3.9-2.3-4.9 c-0.5-0.9-0.3-3.4,0-4.8c0.3-1.4,5.4-7.4,5.4-7.4L165.7,78.3z" class="st7"/><g><path d="M155.7,98.5c0,0-1.3,0.5-2.3,1c-0.5,0.3-0.7,1-0.3,1.4c1.6,1.8,5.5,6,5.9,6.5c0,0,0,0.1,0.1,0.1l5.9,12.3" class="st8"/><path d="M153.4,93l-1.1,0.7c-0.1,0.1-0.2,0.2-0.1,0.3l1.9,5.3c0.1,0.3,0.5,0.2,0.5-0.1v0c0-0.1,0.1-0.2,0.2-0.2 l1-0.5" class="st8"/><path d="M146.1,90.2l1.4,1.8c0.1,0.1,0.1,0.2,0,0.3l-2.6,4.4c-0.1,0.1-0.2,0.2-0.3,0.1l-4.7-1.6 c-0.1,0-0.2-0.1-0.2-0.2l-0.4-2.4" class="st8"/><path d="M143.3,95.3c0,0,0.8-1.1,1.7-0.6c0.9,0.5,1.8,0.8,1.1,2.2c-0.7,1.3,0.2,4.7,0.3,5c0,0,0,0,0,0.1l4.7,8.6" class="st8"/><path d="M138.8,106.9l-9.1-10.8l-5.5-4.8c-0.1-0.1-0.1-0.4,0.1-0.5l0.8-0.3" class="st8"/><path d="M181.4,105.5l1.4,2.8c0,0.1,0.1,0.1,0.2,0.1l3.8,1.4c0.1,0,0.2,0,0.3-0.1l4.6-4.8c0.1-0.1,0.1-0.2,0-0.3 l-1.2-1.8" class="st8"/><path d="M185.2,108c0,0,1.1-0.7,1.9,0c0.9,0.7,1.6,2.4,0.8,4c-0.8,1.5-2.4,3.8-2.6,4.2c0,0,0,0.1,0,0.2v9.5" class="st8"/></g><path d="M163.7,110.6c0,0,2.6,5.3,8.4,7.2s11.5,1,15-1.2s4.1-3.8,4.3-4.4c0.3-0.5,0.3-0.5,0.3-0.5l0.5-1.8c0,0-0.3,5.5-3.2,7.7 c-2.9,2.2-8,4.8-15.1,3.1c-7.2-1.7-9-5.6-9.4-6.7S163.7,110.6,163.7,110.6z"/><path d="M183,119.5L183,119.5c-0.6,0-1,0.8-0.6,1.3l1.1,1.4c0.1,0.1,0.1,0.2,0.1,0.3c0.1,0.3,0.4,0.8,1.6,0.3l0.8-0.3 c0.4-0.2,0.6-0.7,0.4-1.1L185,119" class="st8"/><path d="M166.4,115.6l-2.7,1.8c0,0-1.1,0.4-1.8-0.2c-0.6-0.6,0.4-1.6,0.4-1.6l2.7-1.5" class="st8"/><line x1="185.2" x2="185.2" y1="123.7" y2="126.5" class="st9"/><path d="M137.2,102c0,0,1.2,3.2,7.1,4c5.9,0.8,12-4,12-4l1.8,1.7c0,0-2.5,1.7-4,2.6c-3.5,2.1-7.7,2.5-11.4,1.8 c0,0-2.4-1.2-3.9-3.2C138,104,137.2,102,137.2,102z"/><path d="M138,103.8l-1.1,1c0,0-1.3,0.3-1.4,1.2c-0.1,1,1.7,0,1.7,0l1.5-1.1" class="st8"/><path d="M136.3,104.5l1.8-0.8l1,0.7l1.3,2c0,0,0.4,0.5,0,0.6c-0.4,0.1-1.4,1.3-1.4,1.3h-1.6l-1.6-2.3L136.3,104.5z" class="st6"/><path d="M148.2,107.7l1.8-0.8l1,0.7l1.3,2c0,0,0.4,0.5,0,0.6c-0.4,0.1-1.4,1.3-1.4,1.3h-1.6l-1.6-2.3L148.2,107.7z" class="st6"/><path d="M183.7,121.3l2.3-0.3l0.9,1.1l0.8,2.8c0,0,0.3,0.8-0.2,0.7c-0.5,0-2,1-2,1l-1.8-0.5l-1.1-3.2L183.7,121.3z" class="st10"/><path d="M162,116.4l1.9-0.9l1.1,0.8l1.4,2.3c0,0,0.5,0.6,0,0.7c-0.5,0.1-1.5,1.4-1.5,1.4h-1.7l-1.8-2.6L162,116.4z" class="st11"/><path d="M179.6,95l1.8-0.8l1,0.7l1.3,2c0,0,0.4,0.5,0,0.6c-0.4,0.1-1.4,1.3-1.4,1.3h-1.6l-1.6-2.3L179.6,95z" class="st6"/><path d="M201.4,86.4c-0.3-3.1-4.6-6.8-8.2-9c-3.6-2.3-12.1-3-12.9-2.9c-8.1,0.4-14.2,2.9-14.2,2.9 c-5.6,2.4-11,7.4-12.3,11.3c-1.3,3.9,0.8,10.3,4.5,13.9c3.8,3.6,14.6,5.9,22.9,4.6c8.3-1.3,15.1-6,17.1-9S201.7,89.5,201.4,86.4z M191.8,100.8c-9.9,4.8-18.3,4.9-27.5,2.2c-9.2-2.7-9.8-8.4-9.8-8.4s0.1-2.2,0-3.6c-0.1-1.4,0.6-1.9,1-3.1 c0.3-1.2,1.2-2.5,2.5-3.7s2.2-2.3,2.2-2.3s1,0.5,3.1-1.4c2.2-1.9,10.8-4.3,10.8-4.3s4.1-0.5,6.8-0.7c2.7-0.1,7,0.8,10.8,2.2 c3.8,1.4,6.6,5.1,7.4,7.1c0.9,2,0.4,0.7,1,2.7C200.5,89.7,201.7,96,191.8,100.8z" class="st12"/><g><linearGradient id="SVGID_3_" x1="125.592" x2="153.933" y1="81.588" y2="81.588" gradientUnits="userSpaceOnUse"><stop style="stop-color:#ffe794" offset=".005"/><stop style="stop-color:#ecdeff" offset="1"/></linearGradient><path d="M125.8,85.8c-1.2-3.9,4.1-9,11.9-11.3c7.7-2.3,15-1.1,16.1,2.8c1.2,3.9-4.1,9-11.9,11.3 C134.2,91,126.9,89.7,125.8,85.8z" class="st13"/></g><g><linearGradient id="SVGID_4_" x1="156.165" x2="197.638" y1="88.117" y2="88.117" gradientUnits="userSpaceOnUse"><stop style="stop-color:#ffe794" offset=".005"/><stop style="stop-color:#ecdeff" offset="1"/></linearGradient><path d="M156.3,91.8c-1.2-6.8,7-14,18.4-16.1c11.4-2,21.6,1.9,22.8,8.7c1.2,6.8-7,14-18.4,16.1 C167.7,102.5,157.5,98.6,156.3,91.8z" class="st14"/></g></g></g></svg>