<?xml version="1.0" encoding="utf-8"?>
<!-- Generator: Adobe Illustrator 24.0.2, SVG Export Plug-In . SVG Version: 6.00 Build 0)  -->
<svg version="1.1" id="Layer_1" xmlns="http://www.w3.org/2000/svg" xmlns:xlink="http://www.w3.org/1999/xlink" x="0px" y="0px"
	 viewBox="0 0 29 21.9" style="enable-background:new 0 0 29 21.9;" xml:space="preserve">
<style type="text/css">
	.st0{display:none;fill:#DDD6CE;}
	.st1{fill:url(#SVGID_1_);}
	.st2{fill:url(#SVGID_2_);}
	.st3{fill:none;stroke:#898989;stroke-width:0.4152;stroke-linecap:round;stroke-miterlimit:10;}
	.st4{fill:url(#SVGID_3_);}
	.st5{fill:url(#SVGID_4_);}
	.st6{fill:url(#SVGID_5_);}
	.st7{fill:url(#SVGID_6_);}
	.st8{fill:#231F20;}
	.st9{fill:#9B7550;}
	.st10{fill:#C1AC97;}
	.st11{stroke:#000000;stroke-width:0.4152;stroke-linecap:round;stroke-linejoin:round;stroke-miterlimit:10;}
</style>
<path class="st0" d="M6.2,47.6"/>
<g>
	<g id="Layer_2_1_">
		<g>
			
				<linearGradient id="SVGID_1_" gradientUnits="userSpaceOnUse" x1="-6.7753" y1="181.6339" x2="-2.3834" y2="181.6339" gradientTransform="matrix(0.9952 -9.790000e-02 -9.790000e-02 -0.9952 34.2217 190.0392)">
				<stop  offset="0" style="stop-color:#A5161B"/>
				<stop  offset="0.2559" style="stop-color:#AB1F23"/>
				<stop  offset="0.6801" style="stop-color:#BA3939"/>
				<stop  offset="0.8934" style="stop-color:#C34846"/>
			</linearGradient>
			<path class="st1" d="M9.7,3.2l3.4-0.7c0.1,0,0.3,0.1,0.3,0.2l1.3,13.5c0,0.1-0.1,0.2-0.2,0.3c-0.2,0.1-0.6,0.2-1.1,0.1
				c-0.6-0.1-1-0.6-1.1-0.7c0,0,0,0,0-0.1c-2.2-5.3-1.6-3.5-2.2-5.3c-0.6-1.7-0.8-5-0.8-5.4c0,0,0-0.4,0-0.4l0.1-1.2
				C9.4,3.4,9.5,3.3,9.7,3.2z"/>
			
				<linearGradient id="SVGID_2_" gradientUnits="userSpaceOnUse" x1="-63.7946" y1="181.6438" x2="-59.2975" y2="181.6438" gradientTransform="matrix(-0.9952 9.790000e-02 -9.790000e-02 -0.9952 -27.5088 196.0988)">
				<stop  offset="0" style="stop-color:#A5161B"/>
				<stop  offset="0.2559" style="stop-color:#AB1F23"/>
				<stop  offset="0.6801" style="stop-color:#BA3939"/>
				<stop  offset="0.8934" style="stop-color:#C34846"/>
			</linearGradient>
			<path class="st2" d="M17,2.4l-3.7,0.1l1.1,14c0,0,0.6,0.2,1.3-0.2c0.7-0.3,1-1,1-1c1.3-5.7,1-3.8,1.3-5.7s-0.3-5.3-0.3-5.3
				l-0.3-1.6C17.3,2.5,17.2,2.4,17,2.4z"/>
		</g>
	</g>
	<path class="st3" d="M10.6,8.5c0-0.2,0.2-0.8,0.1-0.9l-0.6-2.4"/>
	<g>
		
			<linearGradient id="SVGID_3_" gradientUnits="userSpaceOnUse" x1="-32.4531" y1="177.8433" x2="-27.3982" y2="177.8433" gradientTransform="matrix(0.9815 -0.1915 -0.1915 -0.9815 67.819 182.7466)">
			<stop  offset="0" style="stop-color:#FF7300"/>
			<stop  offset="0.1217" style="stop-color:#F97C01"/>
			<stop  offset="0.3234" style="stop-color:#EA9602"/>
			<stop  offset="0.3795" style="stop-color:#E59E03"/>
			<stop  offset="0.8652" style="stop-color:#E5C500"/>
		</linearGradient>
		<path class="st4" d="M1.1,6.4L5,5.2c0.2-0.1,0.3,0.1,0.4,0.2l3,15.9c0,0.1,0,0.3-0.2,0.3c-0.3,0.1-0.7,0.3-1.2,0.2
			c-0.7-0.1-1.2-0.6-1.3-0.7c0,0,0,0,0-0.1c-3.2-6-2.3-4-3.2-6c-0.9-2-1.5-5.9-1.5-6.3c0,0,0-0.5,0-0.5l0-1.4
			C0.8,6.6,0.9,6.5,1.1,6.4z"/>
		
			<linearGradient id="SVGID_4_" gradientUnits="userSpaceOnUse" x1="-39.4058" y1="177.8697" x2="-34.2269" y2="177.8697" gradientTransform="matrix(-0.9815 0.1915 -0.1915 -0.9815 6.937 194.6229)">
			<stop  offset="0" style="stop-color:#FF7300"/>
			<stop  offset="0.1217" style="stop-color:#F97C01"/>
			<stop  offset="0.3234" style="stop-color:#EA9602"/>
			<stop  offset="0.3795" style="stop-color:#E59E03"/>
			<stop  offset="0.8652" style="stop-color:#E5C500"/>
		</linearGradient>
		<path class="st5" d="M9.4,4.7L5.2,5.2l2.9,16.5c0,0,0.7,0.1,1.5-0.3s1-1.2,1-1.2c0.8-6.9,0.7-4.6,0.8-6.9c0.1-2.3-1-6.3-1-6.3
			L9.8,5C9.8,4.8,9.6,4.7,9.4,4.7z"/>
	</g>
	<g>
		<g>
			
				<linearGradient id="SVGID_5_" gradientUnits="userSpaceOnUse" x1="34.4733" y1="159.7419" x2="39.6473" y2="159.7419" gradientTransform="matrix(0.996 8.950000e-02 8.950000e-02 -0.996 -30.5432 168.0219)">
				<stop  offset="0" style="stop-color:#FF7300"/>
				<stop  offset="0.1217" style="stop-color:#F97C01"/>
				<stop  offset="0.3234" style="stop-color:#EA9602"/>
				<stop  offset="0.3795" style="stop-color:#E59E03"/>
				<stop  offset="0.8652" style="stop-color:#E5C500"/>
			</linearGradient>
			<path class="st6" d="M19.3,4l4.2,0c0.2,0,0.3,0.2,0.3,0.3l-1.3,16.3c0,0.1-0.1,0.3-0.3,0.3c-0.3,0-0.8,0-1.3-0.2
				c-0.7-0.3-1.1-0.9-1.1-1.1c0,0,0,0,0-0.1c-1.5-6.8-1.2-4.5-1.5-6.8c-0.3-2.2,0.6-6.6,0.7-7.1c0,0,0,0,0-0.1l0-1.3
				C19,4.1,19.1,4,19.3,4z"/>
			
				<linearGradient id="SVGID_6_" gradientUnits="userSpaceOnUse" x1="-106.4789" y1="159.7513" x2="-101.3623" y2="159.7513" gradientTransform="matrix(-0.996 -8.950000e-02 8.950000e-02 -0.996 -92.3257 162.4685)">
				<stop  offset="0" style="stop-color:#FF7300"/>
				<stop  offset="0.1217" style="stop-color:#F97C01"/>
				<stop  offset="0.3234" style="stop-color:#EA9602"/>
				<stop  offset="0.3795" style="stop-color:#E59E03"/>
				<stop  offset="0.8652" style="stop-color:#E5C500"/>
			</linearGradient>
			<path class="st7" d="M28.2,4.8L23.8,4l-1.6,16.8c0,0,0.7,0.3,1.6,0.1c0.9-0.2,1.3-0.9,1.3-0.9c2.7-6.4,2-4.2,2.7-6.4
				c0.7-2.2,0.5-7.1,0.5-7.1l0.2-1.3C28.5,5,28.4,4.8,28.2,4.8z"/>
		</g>
		<path class="st8" d="M19.6,19.2c0,0,1.1,1.1,2.3,1.2c1.2,0.1,2,0,2.6-0.4c0.6-0.3,1-0.7,1-0.7l-0.2,1c0,0-0.8,1-2.7,0.9
			c-2-0.1-2.7-1.1-2.7-1.1L19.6,19.2z"/>
	</g>
	<path class="st8" d="M5.3,20.7c0,0,1,0.7,2.5,0.4c1.6-0.3,1.8-0.6,2.3-1.1c0.5-0.5,0.5-0.7,0.5-0.7V20c0,0.2-0.2,0.4-0.3,0.6
		c-0.4,0.8-1.2,1-2.2,1.2c-0.7,0.1-1.3,0.1-1.9,0c-0.4-0.1-0.7-0.2-0.9-0.5L5.3,20.7z"/>
	<path class="st9" d="M1.1,5.1l8-0.9c0.2,0,0,0,0.4,0l0.3,0.2C9.5,4.3,9.7,4.5,9.7,4.6c0,0.1,0.1,0.2,0.1,0.2l0,0
		c0.1,0,0.1,0.4,0.2,0.5c0,0.1,0,0-0.1,0.1C9.5,5.9,8,7.1,5.9,7.5C3.6,8,2.8,7.8,1.7,7.6C1,7.5,0.7,7,0.6,6.7C0.5,6.4,0.3,6.3,0.4,6
		l0.2-0.6C0.7,5.2,0.9,5.1,1.1,5.1z"/>
	<path class="st9" d="M19.5,3l9.1,1.1c0,0,0,0.1,0.1,0.1l0.2,0.3c0,0.1-0.2,0.3-0.1,0.3l0-0.1c0.1,0,0.1,0.4,0.1,0.5
		c0.1,0.4-0.1,0.5-0.2,0.6c-0.3,0.7-2.1,0.9-4,0.7c-3-0.3-2.7-0.4-3.8-0.8c-0.6-0.2-1.1-0.5-1.5-0.7c-0.3-0.2-0.7-0.8-0.5-1.1
		L19.5,3C19.4,3.1,19.5,3,19.5,3z"/>
	<path class="st9" d="M9.5,1.8L9.3,2.6c0,0,0.4,0.8,2.7,1s4.9-1.4,4.9-1.4c0.2-0.1,0.1-0.3,0.2-0.4c0,0,0.1-0.1,0-0.2l-0.6-0.8"/>
	<ellipse transform="matrix(0.9875 -0.1577 0.1577 0.9875 -0.7287 0.8601)" class="st10" cx="5.1" cy="5" rx="4.6" ry="1.7"/>
	
		<ellipse transform="matrix(0.9945 -0.1051 0.1051 0.9945 -7.567539e-02 1.3796)" class="st10" cx="13.1" cy="1.4" rx="3.5" ry="1.4"/>
	<ellipse transform="matrix(0.1216 -0.9926 0.9926 0.1216 17.2543 27.095)" class="st10" cx="23.9" cy="3.8" rx="1.7" ry="4.6"/>
	<path class="st8" d="M0.4,5.7c0,0-0.4,0.5-0.4,0.8s0.4,1.9,0.4,1.9l0.3,0.3l0.5-0.3c0,0,0.6,0.2,1.7,0.3s1.7,0,1.7,0l1,1.5l0.6-0.1
		l0.6-1.8c0,0,1-0.3,1.7-0.8s1.5-1.1,1.5-1.1l0.4,0.9L10.7,7l-0.6-2.5L9.6,4.3l0.3,1c0,0-0.2,0.7-1.9,1.5C6.6,7.4,5.3,7.7,5.3,7.7
		S4,7.8,2.8,7.7C0.6,7.5,0.4,6.6,0.4,6.6V5.7z"/>
	<path class="st3" d="M0.3,8c0,0.3-0.1,1-0.1,1.3L0.8,10L1,11.7"/>
	<polygon class="st8" points="0.6,10.6 1.2,10.6 1.3,11.3 0.7,11.5 	"/>
	<polygon class="st11" points="4.9,11.1 6.2,11.5 7.3,10.6 6.6,13.3 	"/>
	<line class="st3" x1="5.9" y1="9.3" x2="6.3" y2="12.2"/>
	<path class="st8" d="M9.5,1.7c0,0-0.5,0.4-0.6,0.6c0,0.2,0.2,1.5,0.2,1.5L9.4,4l0.4-0.2c0,0,0.5,0.3,1.4,0.4
		c0.9,0.1,1.4,0.1,1.4,0.1l0.8,1.1L14,5.3l0.6-1.3c0,0,0.9-0.2,1.5-0.5c0.6-0.3,1.3-0.8,1.3-0.8l0.2,0.8l0.3-0.3l-0.3-1.8
		c0-0.1-0.1-0.2-0.2-0.3l-0.5-0.2l0.4,0.6c0,0-0.1,0.6-1.5,1.2c-1.1,0.4-2.3,0.6-2.3,0.6s-1.1,0.1-2.1,0c-1.9-0.3-1.9-1-1.9-1
		L9.5,1.7z"/>
	<g>
		<polygon class="st11" points="12.7,6.5 13.9,6.9 15,6.2 14.1,8.6 		"/>
		<line class="st3" x1="13.6" y1="4.8" x2="13.9" y2="7.6"/>
	</g>
	<path class="st8" d="M14.5,15.7c-1.7,0-2.4-0.4-2.4-0.4l0.2,0.6c0,0,0.4,0.7,2.2,0.6c1.8-0.1,2.2-0.9,2.2-0.9v-0.7
		c0,0-0.2,0.3-0.9,0.6C15.1,15.8,14.5,15.7,14.5,15.7z"/>
	<path class="st8" d="M24.2,7.4c1.4,0,1.6,0.2,3-0.2c0.6-0.2,1.1-0.4,1.1-0.4l0.4-0.4l0.2-0.5l0-1.1c0-0.2-0.1-0.4-0.2-0.5l-0.1-0.1
		l0.1,0.9c0,0,0,0.7-1.9,1c-1.5,0.2-2.9,0.1-2.9,0.1S22.4,6,21.3,5.6c-2.3-0.8-2.2-1.8-2.2-1.8L19.4,3c0,0-0.5,0.3-0.6,0.5
		c-0.1,0.2-0.1,1.4-0.1,1.4l0.3,0.4l0,0c0,0,1.3,1.5,3,1.8l0,0L24.2,7.4z"/>
	<polygon class="st8" points="21.5,6.6 20.7,7.6 20,7.3 19.9,6 	"/>
	<path class="st8" d="M25.7,7l1.7-0.3l-0.2,1.4c0-0.2,0-0.2,0-0.2l-0.9,0.2L25.7,7z"/>
	<g>
		<polygon class="st11" points="25.7,9.4 26.9,9.7 28,8.8 27.3,11.7 		"/>
		<line class="st3" x1="26.6" y1="7.3" x2="27" y2="10.6"/>
	</g>
	<g>
		<polygon class="st11" points="18.9,7.8 19.8,8.8 21.1,8.7 19.4,10.7 		"/>
		<line class="st3" x1="20.5" y1="6.7" x2="19.6" y2="9.6"/>
	</g>
</g>
</svg>
