<svg xmlns="http://www.w3.org/2000/svg" xmlns:xlink="http://www.w3.org/1999/xlink" id="Layer_1" x="0" y="0" version="1.1" viewBox="0 0 29 21.9" xml:space="preserve" style="enable-background:new 0 0 29 21.9"><style type="text/css">.st0{display:none;fill:#ddd6ce}.st1{fill:url(#SVGID_1_)}.st2{fill:url(#SVGID_2_)}.st3{fill:none;stroke:#898989;stroke-width:.4152;stroke-linecap:round;stroke-miterlimit:10}.st4{fill:url(#SVGID_3_)}.st5{fill:url(#SVGID_4_)}.st6{fill:url(#SVGID_5_)}.st7{fill:url(#SVGID_6_)}.st8{fill:#231f20}.st9{fill:#9b7550}.st10{fill:#c1ac97}.st11{stroke:#000;stroke-width:.4152;stroke-linecap:round;stroke-linejoin:round;stroke-miterlimit:10}</style><path d="M6.2,47.6" class="st0"/><g><g id="Layer_2_1_"><g><linearGradient id="SVGID_1_" x1="-6.775" x2="-2.383" y1="181.634" y2="181.634" gradientTransform="matrix(0.9952 -9.790000e-02 -9.790000e-02 -0.9952 34.2217 190.0392)" gradientUnits="userSpaceOnUse"><stop offset="0" style="stop-color:#a5161b"/><stop offset=".256" style="stop-color:#ab1f23"/><stop offset=".68" style="stop-color:#ba3939"/><stop offset=".893" style="stop-color:#c34846"/></linearGradient><path d="M9.7,3.2l3.4-0.7c0.1,0,0.3,0.1,0.3,0.2l1.3,13.5c0,0.1-0.1,0.2-0.2,0.3c-0.2,0.1-0.6,0.2-1.1,0.1 c-0.6-0.1-1-0.6-1.1-0.7c0,0,0,0,0-0.1c-2.2-5.3-1.6-3.5-2.2-5.3c-0.6-1.7-0.8-5-0.8-5.4c0,0,0-0.4,0-0.4l0.1-1.2 C9.4,3.4,9.5,3.3,9.7,3.2z" class="st1"/><linearGradient id="SVGID_2_" x1="-63.795" x2="-59.297" y1="181.644" y2="181.644" gradientTransform="matrix(-0.9952 9.790000e-02 -9.790000e-02 -0.9952 -27.5088 196.0988)" gradientUnits="userSpaceOnUse"><stop offset="0" style="stop-color:#a5161b"/><stop offset=".256" style="stop-color:#ab1f23"/><stop offset=".68" style="stop-color:#ba3939"/><stop offset=".893" style="stop-color:#c34846"/></linearGradient><path d="M17,2.4l-3.7,0.1l1.1,14c0,0,0.6,0.2,1.3-0.2c0.7-0.3,1-1,1-1c1.3-5.7,1-3.8,1.3-5.7s-0.3-5.3-0.3-5.3 l-0.3-1.6C17.3,2.5,17.2,2.4,17,2.4z" class="st2"/></g></g><path d="M10.6,8.5c0-0.2,0.2-0.8,0.1-0.9l-0.6-2.4" class="st3"/><g><linearGradient id="SVGID_3_" x1="-32.453" x2="-27.398" y1="177.843" y2="177.843" gradientTransform="matrix(0.9815 -0.1915 -0.1915 -0.9815 67.819 182.7466)" gradientUnits="userSpaceOnUse"><stop offset="0" style="stop-color:#ff7300"/><stop offset=".122" style="stop-color:#f97c01"/><stop offset=".323" style="stop-color:#ea9602"/><stop offset=".38" style="stop-color:#e59e03"/><stop offset=".865" style="stop-color:#e5c500"/></linearGradient><path d="M1.1,6.4L5,5.2c0.2-0.1,0.3,0.1,0.4,0.2l3,15.9c0,0.1,0,0.3-0.2,0.3c-0.3,0.1-0.7,0.3-1.2,0.2 c-0.7-0.1-1.2-0.6-1.3-0.7c0,0,0,0,0-0.1c-3.2-6-2.3-4-3.2-6c-0.9-2-1.5-5.9-1.5-6.3c0,0,0-0.5,0-0.5l0-1.4 C0.8,6.6,0.9,6.5,1.1,6.4z" class="st4"/><linearGradient id="SVGID_4_" x1="-39.406" x2="-34.227" y1="177.87" y2="177.87" gradientTransform="matrix(-0.9815 0.1915 -0.1915 -0.9815 6.937 194.6229)" gradientUnits="userSpaceOnUse"><stop offset="0" style="stop-color:#ff7300"/><stop offset=".122" style="stop-color:#f97c01"/><stop offset=".323" style="stop-color:#ea9602"/><stop offset=".38" style="stop-color:#e59e03"/><stop offset=".865" style="stop-color:#e5c500"/></linearGradient><path d="M9.4,4.7L5.2,5.2l2.9,16.5c0,0,0.7,0.1,1.5-0.3s1-1.2,1-1.2c0.8-6.9,0.7-4.6,0.8-6.9c0.1-2.3-1-6.3-1-6.3 L9.8,5C9.8,4.8,9.6,4.7,9.4,4.7z" class="st5"/></g><g><g><linearGradient id="SVGID_5_" x1="34.473" x2="39.647" y1="159.742" y2="159.742" gradientTransform="matrix(0.996 8.950000e-02 8.950000e-02 -0.996 -30.5432 168.0219)" gradientUnits="userSpaceOnUse"><stop offset="0" style="stop-color:#ff7300"/><stop offset=".122" style="stop-color:#f97c01"/><stop offset=".323" style="stop-color:#ea9602"/><stop offset=".38" style="stop-color:#e59e03"/><stop offset=".865" style="stop-color:#e5c500"/></linearGradient><path d="M19.3,4l4.2,0c0.2,0,0.3,0.2,0.3,0.3l-1.3,16.3c0,0.1-0.1,0.3-0.3,0.3c-0.3,0-0.8,0-1.3-0.2 c-0.7-0.3-1.1-0.9-1.1-1.1c0,0,0,0,0-0.1c-1.5-6.8-1.2-4.5-1.5-6.8c-0.3-2.2,0.6-6.6,0.7-7.1c0,0,0,0,0-0.1l0-1.3 C19,4.1,19.1,4,19.3,4z" class="st6"/><linearGradient id="SVGID_6_" x1="-106.479" x2="-101.362" y1="159.751" y2="159.751" gradientTransform="matrix(-0.996 -8.950000e-02 8.950000e-02 -0.996 -92.3257 162.4685)" gradientUnits="userSpaceOnUse"><stop offset="0" style="stop-color:#ff7300"/><stop offset=".122" style="stop-color:#f97c01"/><stop offset=".323" style="stop-color:#ea9602"/><stop offset=".38" style="stop-color:#e59e03"/><stop offset=".865" style="stop-color:#e5c500"/></linearGradient><path d="M28.2,4.8L23.8,4l-1.6,16.8c0,0,0.7,0.3,1.6,0.1c0.9-0.2,1.3-0.9,1.3-0.9c2.7-6.4,2-4.2,2.7-6.4 c0.7-2.2,0.5-7.1,0.5-7.1l0.2-1.3C28.5,5,28.4,4.8,28.2,4.8z" class="st7"/></g><path d="M19.6,19.2c0,0,1.1,1.1,2.3,1.2c1.2,0.1,2,0,2.6-0.4c0.6-0.3,1-0.7,1-0.7l-0.2,1c0,0-0.8,1-2.7,0.9 c-2-0.1-2.7-1.1-2.7-1.1L19.6,19.2z" class="st8"/></g><path d="M5.3,20.7c0,0,1,0.7,2.5,0.4c1.6-0.3,1.8-0.6,2.3-1.1c0.5-0.5,0.5-0.7,0.5-0.7V20c0,0.2-0.2,0.4-0.3,0.6 c-0.4,0.8-1.2,1-2.2,1.2c-0.7,0.1-1.3,0.1-1.9,0c-0.4-0.1-0.7-0.2-0.9-0.5L5.3,20.7z" class="st8"/><path d="M1.1,5.1l8-0.9c0.2,0,0,0,0.4,0l0.3,0.2C9.5,4.3,9.7,4.5,9.7,4.6c0,0.1,0.1,0.2,0.1,0.2l0,0 c0.1,0,0.1,0.4,0.2,0.5c0,0.1,0,0-0.1,0.1C9.5,5.9,8,7.1,5.9,7.5C3.6,8,2.8,7.8,1.7,7.6C1,7.5,0.7,7,0.6,6.7C0.5,6.4,0.3,6.3,0.4,6 l0.2-0.6C0.7,5.2,0.9,5.1,1.1,5.1z" class="st9"/><path d="M19.5,3l9.1,1.1c0,0,0,0.1,0.1,0.1l0.2,0.3c0,0.1-0.2,0.3-0.1,0.3l0-0.1c0.1,0,0.1,0.4,0.1,0.5 c0.1,0.4-0.1,0.5-0.2,0.6c-0.3,0.7-2.1,0.9-4,0.7c-3-0.3-2.7-0.4-3.8-0.8c-0.6-0.2-1.1-0.5-1.5-0.7c-0.3-0.2-0.7-0.8-0.5-1.1 L19.5,3C19.4,3.1,19.5,3,19.5,3z" class="st9"/><path d="M9.5,1.8L9.3,2.6c0,0,0.4,0.8,2.7,1s4.9-1.4,4.9-1.4c0.2-0.1,0.1-0.3,0.2-0.4c0,0,0.1-0.1,0-0.2l-0.6-0.8" class="st9"/><ellipse cx="5.1" cy="5" class="st10" rx="4.6" ry="1.7" transform="matrix(0.9875 -0.1577 0.1577 0.9875 -0.7287 0.8601)"/><ellipse cx="13.1" cy="1.4" class="st10" rx="3.5" ry="1.4" transform="matrix(0.9945 -0.1051 0.1051 0.9945 -7.567539e-02 1.3796)"/><ellipse cx="23.9" cy="3.8" class="st10" rx="1.7" ry="4.6" transform="matrix(0.1216 -0.9926 0.9926 0.1216 17.2543 27.095)"/><path d="M0.4,5.7c0,0-0.4,0.5-0.4,0.8s0.4,1.9,0.4,1.9l0.3,0.3l0.5-0.3c0,0,0.6,0.2,1.7,0.3s1.7,0,1.7,0l1,1.5l0.6-0.1 l0.6-1.8c0,0,1-0.3,1.7-0.8s1.5-1.1,1.5-1.1l0.4,0.9L10.7,7l-0.6-2.5L9.6,4.3l0.3,1c0,0-0.2,0.7-1.9,1.5C6.6,7.4,5.3,7.7,5.3,7.7 S4,7.8,2.8,7.7C0.6,7.5,0.4,6.6,0.4,6.6V5.7z" class="st8"/><path d="M0.3,8c0,0.3-0.1,1-0.1,1.3L0.8,10L1,11.7" class="st3"/><polygon points=".6 10.6 1.2 10.6 1.3 11.3 .7 11.5" class="st8"/><polygon points="4.9 11.1 6.2 11.5 7.3 10.6 6.6 13.3" class="st11"/><line x1="5.9" x2="6.3" y1="9.3" y2="12.2" class="st3"/><path d="M9.5,1.7c0,0-0.5,0.4-0.6,0.6c0,0.2,0.2,1.5,0.2,1.5L9.4,4l0.4-0.2c0,0,0.5,0.3,1.4,0.4 c0.9,0.1,1.4,0.1,1.4,0.1l0.8,1.1L14,5.3l0.6-1.3c0,0,0.9-0.2,1.5-0.5c0.6-0.3,1.3-0.8,1.3-0.8l0.2,0.8l0.3-0.3l-0.3-1.8 c0-0.1-0.1-0.2-0.2-0.3l-0.5-0.2l0.4,0.6c0,0-0.1,0.6-1.5,1.2c-1.1,0.4-2.3,0.6-2.3,0.6s-1.1,0.1-2.1,0c-1.9-0.3-1.9-1-1.9-1 L9.5,1.7z" class="st8"/><g><polygon points="12.7 6.5 13.9 6.9 15 6.2 14.1 8.6" class="st11"/><line x1="13.6" x2="13.9" y1="4.8" y2="7.6" class="st3"/></g><path d="M14.5,15.7c-1.7,0-2.4-0.4-2.4-0.4l0.2,0.6c0,0,0.4,0.7,2.2,0.6c1.8-0.1,2.2-0.9,2.2-0.9v-0.7 c0,0-0.2,0.3-0.9,0.6C15.1,15.8,14.5,15.7,14.5,15.7z" class="st8"/><path d="M24.2,7.4c1.4,0,1.6,0.2,3-0.2c0.6-0.2,1.1-0.4,1.1-0.4l0.4-0.4l0.2-0.5l0-1.1c0-0.2-0.1-0.4-0.2-0.5l-0.1-0.1 l0.1,0.9c0,0,0,0.7-1.9,1c-1.5,0.2-2.9,0.1-2.9,0.1S22.4,6,21.3,5.6c-2.3-0.8-2.2-1.8-2.2-1.8L19.4,3c0,0-0.5,0.3-0.6,0.5 c-0.1,0.2-0.1,1.4-0.1,1.4l0.3,0.4l0,0c0,0,1.3,1.5,3,1.8l0,0L24.2,7.4z" class="st8"/><polygon points="21.5 6.6 20.7 7.6 20 7.3 19.9 6" class="st8"/><path d="M25.7,7l1.7-0.3l-0.2,1.4c0-0.2,0-0.2,0-0.2l-0.9,0.2L25.7,7z" class="st8"/><g><polygon points="25.7 9.4 26.9 9.7 28 8.8 27.3 11.7" class="st11"/><line x1="26.6" x2="27" y1="7.3" y2="10.6" class="st3"/></g><g><polygon points="18.9 7.8 19.8 8.8 21.1 8.7 19.4 10.7" class="st11"/><line x1="20.5" x2="19.6" y1="6.7" y2="9.6" class="st3"/></g></g></svg>