<svg id="Layer_1" data-name="Layer 1" xmlns="http://www.w3.org/2000/svg" viewBox="0 0 29 37"><defs><style>.cls-1{fill:#242323;}</style></defs><path class="cls-1" d="M20.12,20.85h0l3.24-12.1-.18-.86a1.24,1.24,0,0,0,0-.27c0-1.77-3.89-3.21-8.69-3.21C10.36,4.41,6.88,5.5,6,6.94H6V7a1.41,1.41,0,0,0-.18.65s0,.11,0,.16l-.2,1,3.92,12c-.05.08.08.27.67.7L8.38,29.79a8.32,8.32,0,0,0,6.13,2.8,12.26,12.26,0,0,0,6.71-2.1L19.4,21.57ZM19.43,12a27.91,27.91,0,0,1-1.58,7.44c-.14.4-.79.23-.64-.18A27.35,27.35,0,0,0,18.76,12C18.79,11.58,19.46,11.57,19.43,12Zm-4.8-7.14c4,0,7.29.78,7.29,1.75s-3.26,1.76-7.29,1.76-7.3-.79-7.3-1.76S10.6,4.86,14.63,4.86Zm-7,4.48a15.94,15.94,0,0,0,2.81.66,31.72,31.72,0,0,0,11.07-.66c.43-.09.6.56.18.65-1.05.22-2.11.41-3.17.56a33.51,33.51,0,0,1-5.75.33A19.63,19.63,0,0,1,7.46,10C7.05,9.85,7.23,9.21,7.64,9.34ZM15,19.91a.34.34,0,0,1-.34.33.34.34,0,0,1-.33-.33A49.16,49.16,0,0,1,14,12.34c0-.43.68-.44.66,0A50.46,50.46,0,0,0,15,19.91Zm-4.3-.34A52.56,52.56,0,0,1,9.43,12c0-.43.63-.43.67,0a49.9,49.9,0,0,0,1.25,7.38C11.45,19.81,10.8,20,10.7,19.57Zm7.6,2.49a22.8,22.8,0,0,1-3.59.4,11.11,11.11,0,0,1-3.3-.31.34.34,0,0,1,.18-.65,10.21,10.21,0,0,0,3.12.29,21.83,21.83,0,0,0,3.42-.38C18.55,21.33,18.73,22,18.3,22.06Z"/></svg>