<svg id="Layer_1" data-name="Layer 1" xmlns="http://www.w3.org/2000/svg" viewBox="0 0 19 27"><defs><style>.cls-1{fill:#242323;}</style></defs><path class="cls-1" d="M9.35,1.23l0,1.89H8.86v3a.62.62,0,0,0,.55.67h.06L9.29,9.24H8.8v1h.3V12a4.87,4.87,0,0,1,.79-.41.6.6,0,0,1,.29-.08.64.64,0,0,1,0,1.28.31.31,0,0,1-.19,0,2,2,0,0,1-.65-.26.9.9,0,0,0-.24-.12v1.77a3.43,3.43,0,0,1,.71-.37.6.6,0,0,1,.29-.08.65.65,0,0,1,.65.64.65.65,0,0,1-.65.64.63.63,0,0,1-.19,0,2,2,0,0,1-.65-.26l-.16-.09V16.3a5.82,5.82,0,0,1,.79-.42.73.73,0,0,1,.29-.07.64.64,0,0,1,.64.64.65.65,0,0,1-.64.64.58.58,0,0,1-.19,0,2.26,2.26,0,0,1-.65-.26.9.9,0,0,0-.24-.12v1.76a4.79,4.79,0,0,1,.71-.37A1,1,0,0,1,10.1,18a.65.65,0,1,1,0,1.29.63.63,0,0,1-.19,0A2.26,2.26,0,0,1,9.26,19a.42.42,0,0,0-.16-.09v1.73a4.79,4.79,0,0,1,.71-.37,1,1,0,0,1,.29-.08.66.66,0,0,1,.65.64.67.67,0,0,1-.65.65.63.63,0,0,1-.19,0,2,2,0,0,1-.65-.27.6.6,0,0,0-.16-.08v1.64H8.8v1.33a.4.4,0,0,0,.41.39h1.95V9.24H11l-.3-2.49h.14V3.12h-.37V1.22Z"/><path class="cls-1" d="M8,10.28a.13.13,0,0,0-.13.13v12.2a.12.12,0,0,0,.13.12h.5V10.28Z"/></svg>