<svg id="Layer_1" data-name="Layer 1" xmlns="http://www.w3.org/2000/svg" viewBox="0 0 29 37"><defs><style>.cls-1{fill:#242323;}</style></defs><path class="cls-1" d="M14.29,2.22l0,2.65H13.6V9a.87.87,0,0,0,.77,1h.09l-.25,3.5h-.7v1.45h.43v2.47a7.66,7.66,0,0,1,1.11-.58,1.08,1.08,0,0,1,.41-.11.9.9,0,1,1,0,1.8.66.66,0,0,1-.28,0,2.71,2.71,0,0,1-.9-.37,2.15,2.15,0,0,0-.34-.17V20.4a6.33,6.33,0,0,1,1-.52,1.08,1.08,0,0,1,.41-.11.9.9,0,0,1,0,1.8.66.66,0,0,1-.28,0,2.62,2.62,0,0,1-.9-.37L13.94,21v2.33a6.09,6.09,0,0,1,1.11-.58.93.93,0,0,1,.41-.12.9.9,0,0,1,0,1.8.66.66,0,0,1-.28,0,2.71,2.71,0,0,1-.9-.37,1.53,1.53,0,0,0-.34-.16v2.47a5.54,5.54,0,0,1,1-.51.81.81,0,0,1,.41-.11.91.91,0,0,1,.9.9.92.92,0,0,1-.9.9.86.86,0,0,1-.28,0,3.08,3.08,0,0,1-.9-.37,1.71,1.71,0,0,0-.23-.13v2.44a5,5,0,0,1,1-.52.81.81,0,0,1,.41-.11.9.9,0,1,1,0,1.8.86.86,0,0,1-.28,0,3.08,3.08,0,0,1-.9-.37,1.71,1.71,0,0,0-.23-.13V32.4h-.43v1.86a.56.56,0,0,0,.58.54h2.74V13.47h-.25L16.16,10h.2V4.87h-.52l0-2.67Z"/><path class="cls-1" d="M12.35,14.92a.18.18,0,0,0-.18.18V32.22a.18.18,0,0,0,.18.18h.7V14.92Z"/></svg>