<svg xmlns="http://www.w3.org/2000/svg" xmlns:svg="http://www.w3.org/2000/svg" id="svg1035" width="210mm" height="297mm" version="1.1" viewBox="0 0 210 297"><metadata id="metadata1032"/><g id="layer1"><g id="g1823" transform="translate(14.816666)"><path id="path1037" d="m 55.184523,46.779761 c 33.261903,-0.755951 46.869047,12.09524 53.672617,19.654761 6.80357,7.559524 9.07143,9.827382 18.89881,13.607145 9.82738,3.779761 23.43452,-12.851191 23.43452,-12.851191 L 77.863093,237.27976 Z" style="opacity:1;vector-effect:none;fill:none;fill-opacity:1;stroke:#806600;stroke-width:.70555556;stroke-linecap:butt;stroke-linejoin:miter;stroke-miterlimit:4;stroke-dasharray:none;stroke-dashoffset:0;stroke-opacity:1"/><ellipse id="path1039" cx="48.003" cy="52.827" rx="13.985" ry="3.78" style="opacity:1;vector-effect:none;fill:none;fill-opacity:1;stroke:#806600;stroke-width:3;stroke-linecap:butt;stroke-linejoin:miter;stroke-miterlimit:4;stroke-dasharray:none;stroke-dashoffset:0;stroke-opacity:1"/><ellipse id="path1041" cx="68.792" cy="235.012" rx="22.679" ry="9.071" style="opacity:1;vector-effect:none;fill:none;fill-opacity:1;stroke:#806600;stroke-width:3;stroke-linecap:butt;stroke-linejoin:miter;stroke-miterlimit:4;stroke-dasharray:none;stroke-dashoffset:0;stroke-opacity:1"/><path id="path1586" d="M 34.773809,51.315476 56.696427,235.76785" style="opacity:1;vector-effect:none;fill:none;fill-opacity:1;stroke:#806600;stroke-width:.70555556;stroke-linecap:butt;stroke-linejoin:miter;stroke-miterlimit:4;stroke-dasharray:none;stroke-dashoffset:0;stroke-opacity:1"/><path id="path1606" d="m 233.57623,914.64225 c -27.54459,-3.75833 -50.64366,-14.48886 -52.85413,-24.55307 -1.61007,-7.33061 6.39776,-14.56731 23.64007,-21.36359 l 5.03094,-1.98302 0.51031,3.25248 c 0.64823,4.13143 2.60024,19.96437 2.60024,21.09075 0,0.46725 0.74778,0.84954 1.66173,0.84954 1.74654,0 1.72175,-2.07847 -0.23702,-19.87496 l -0.68657,-6.23789 3.92408,-1.0311 c 14.03889,-3.6889 44.26311,-5.43802 63.23971,-3.65976 8.96485,0.84007 7.79974,-1.59134 10.40433,21.71234 0.9004,8.05596 1.95887,15.70794 2.35216,17.00438 0.58258,1.92042 2.12983,-0.88714 8.35044,-15.15229 8.89148,-20.38998 7.30477,-19.47774 21.70723,-12.48003 13.78789,6.6991 18.43951,12.93442 15.02195,20.1364 -4.6316,9.76036 -25.9867,18.77719 -52.9848,22.37192 -13.0743,1.74081 -38.61803,1.70023 -51.68067,-0.0821 z" transform="scale(0.26458333)" style="opacity:1;vector-effect:none;fill:none;fill-opacity:1;stroke:#806600;stroke-width:2.69374013;stroke-linecap:butt;stroke-linejoin:miter;stroke-miterlimit:4;stroke-dasharray:none;stroke-dashoffset:0;stroke-opacity:1"/><path id="path1608" d="m 239.2727,913.452 c -24.53441,-2.22886 -50.88386,-12.47711 -55.61794,-21.63181 -2.14548,-4.1489 -1.84035,-5.51416 2.24239,-10.03327 3.28907,-3.64061 18.10944,-12.07494 21.21746,-12.07494 0.56617,0 1.66939,5.06806 2.45161,11.26236 1.10847,8.77789 1.82523,11.50767 3.24914,12.37437 2.80331,1.70631 5.00834,-1.83387 4.34084,-6.96921 -0.28886,-2.22234 -0.81767,-7.48096 -1.17513,-11.68584 l -0.64993,-7.64522 5.40479,-1.18129 c 2.97263,-0.64971 9.4959,-1.63768 14.49616,-2.19548 9.87183,-1.10124 45.04766,-1.3835 48.75091,-0.39118 2.75202,0.73743 2.77145,0.81406 5.31013,20.93779 1.11164,8.81184 2.28662,16.45104 2.61105,16.97599 1.77912,2.87866 4.35652,-0.69844 11.04321,-15.3266 4.7532,-10.39834 7.74084,-15.75869 8.90859,-15.98357 2.99542,-0.57687 18.47194,7.76687 22.33232,12.03985 3.97999,4.40538 4.25844,5.75823 2.0601,10.00933 -4.58868,8.87356 -28.70354,18.41938 -53.53914,21.19338 -8.51796,0.95141 -34.4103,1.14534 -43.43656,0.32534 z" transform="scale(0.26458333)" style="opacity:1;vector-effect:none;fill:none;fill-opacity:1;stroke:#806600;stroke-width:2.69374013;stroke-linecap:butt;stroke-linejoin:miter;stroke-miterlimit:4;stroke-dasharray:none;stroke-dashoffset:0;stroke-opacity:1"/><path id="path1610" d="m 229.17117,910.2002 c -18.79655,-3.52749 -33.96608,-9.5219 -40.97934,-16.19345 -2.18484,-2.0784 -3.97244,-4.70553 -3.97244,-5.83807 0,-1.13254 1.75707,-3.64658 3.90461,-5.58676 3.95783,-3.57566 17.06961,-11.42533 17.82412,-10.67082 0.2261,0.22611 0.91291,3.80128 1.52623,7.94483 2.08077,14.05742 4.35559,17.69212 9.0256,14.42112 2.20108,-1.5417 2.27444,-2.06879 1.92394,-13.82257 l -0.36439,-12.21976 6.56599,-1.3514 c 3.94255,-0.81146 17.09966,-1.57175 32.92986,-1.90288 23.56866,-0.493 26.42969,-0.37993 26.98471,1.06641 0.34146,0.88984 1.5494,8.32883 2.68432,16.53111 2.63475,19.04191 2.88938,20.18704 4.63798,20.85804 3.00275,1.15227 4.65193,-0.98094 12.05007,-15.58679 4.17665,-8.24577 8.02792,-15.26055 8.55837,-15.58838 1.47053,-0.90884 14.72257,6.12526 19.25604,10.22099 4.68025,4.22832 4.95633,6.16 1.47224,10.30062 -5.12777,6.094 -17.63818,11.68431 -35.84261,16.01637 -9.37453,2.23083 -13.3641,2.56892 -34.34519,2.91056 -20.09656,0.32724 -25.28838,0.0957 -33.84011,-1.50917 z" transform="scale(0.26458333)" style="opacity:1;vector-effect:none;fill:none;fill-opacity:1;stroke:#806600;stroke-width:2.69374013;stroke-linecap:butt;stroke-linejoin:miter;stroke-miterlimit:4;stroke-dasharray:none;stroke-dashoffset:0;stroke-opacity:1"/><path id="path1612" d="m 237.75747,909.66135 c -0.83338,-0.20425 -4.92449,-0.91964 -9.09137,-1.58975 -9.56764,-1.53866 -22.04807,-5.42043 -29.50324,-9.17635 -6.32356,-3.18582 -12.92317,-8.49788 -12.92317,-10.40193 0,-2.80077 16.32389,-14.916 17.93151,-13.30837 0.36177,0.36176 1.44601,4.55122 2.40943,9.30991 0.96342,4.75869 2.5334,9.51596 3.48884,10.5717 2.47712,2.7372 5.95507,2.3877 8.542,-0.85838 2.05791,-2.58226 2.17508,-3.53639 1.66355,-13.54637 l -0.55029,-10.76846 2.70292,-0.68602 c 8.31193,-2.10963 60.78668,-3.51036 60.78668,-1.6226 0,3.36753 5.23835,33.92531 6.08768,35.51228 1.40656,2.62818 5.44827,2.51471 8.00032,-0.22459 1.12467,-1.20719 5.05341,-8.02572 8.73052,-15.15229 4.25014,-8.23712 7.2617,-12.95738 8.26688,-12.95738 4.11645,0 19.42223,10.74674 19.42223,13.63705 0,2.26986 -6.7808,7.55585 -14.20236,11.07148 -4.2,1.98956 -13.06409,5.00444 -19.69797,6.69974 -11.46827,2.93073 -13.25423,3.10153 -36.30527,3.47202 -13.33401,0.21432 -24.92551,0.22256 -25.75889,0.0183 z" transform="scale(0.26458333)" style="opacity:1;vector-effect:none;fill:none;fill-opacity:1;stroke:#806600;stroke-width:2.69374013;stroke-linecap:butt;stroke-linejoin:miter;stroke-miterlimit:4;stroke-dasharray:none;stroke-dashoffset:0;stroke-opacity:1"/><path id="path1614" d="m 229.52344,906.5507 c -16.5652,-3.16718 -33.60073,-10.12452 -39.08518,-15.96245 l -2.32261,-2.47231 4.55295,-3.8058 c 2.50413,-2.09319 5.88277,-4.64777 7.50808,-5.67685 l 2.95513,-1.87105 1.30296,6.32386 c 2.04613,9.93077 3.78895,13.55577 7.19576,14.96691 2.63506,1.09148 3.36963,0.99382 5.73569,-0.76255 4.66629,-3.46388 5.34425,-5.88796 4.63432,-16.57029 l -0.64464,-9.69995 4.41271,-0.671 c 2.427,-0.36905 15.86461,-0.95962 29.86138,-1.31238 l 25.44866,-0.64137 0.4952,2.42602 c 0.27236,1.33432 1.68496,9.22562 3.13912,17.53623 1.45416,8.31062 3.14033,15.70834 3.74705,16.43939 0.60671,0.73105 0.84755,1.58476 0.5352,1.89712 -0.31237,0.31236 -12.08229,0.74034 -26.15538,0.95107 -19.57376,0.29309 -27.40395,0.0358 -33.3164,-1.0946 z" transform="scale(0.26458333)" style="opacity:1;vector-effect:none;fill:none;fill-opacity:1;stroke:#806600;stroke-width:2.69374013;stroke-linecap:butt;stroke-linejoin:miter;stroke-miterlimit:4;stroke-dasharray:none;stroke-dashoffset:0;stroke-opacity:1"/><path id="path1616" d="m 234.22194,905.39886 c -6.17194,-0.76559 -21.13688,-4.83896 -18.98891,-5.16867 1.22337,-0.18778 3.60985,-1.91948 5.3033,-3.84821 2.98654,-3.40147 3.079,-3.80586 3.079,-13.46509 0,-8.2803 0.27795,-10.06496 1.64953,-10.59128 0.90724,-0.34814 13.53273,-0.92183 28.05664,-1.27485 l 26.40711,-0.64187 2.74435,15.05637 c 1.50939,8.28101 3.0101,16.00863 3.33492,17.1725 0.55991,2.00623 0.10636,2.1505 -8.73281,2.77792 -9.5057,0.67474 -37.36619,0.6638 -42.85313,-0.0168 z" transform="scale(0.26458333)" style="opacity:1;vector-effect:none;fill:none;fill-opacity:1;stroke:#806600;stroke-width:2.69374013;stroke-linecap:butt;stroke-linejoin:miter;stroke-miterlimit:4;stroke-dasharray:none;stroke-dashoffset:0;stroke-opacity:1"/><path id="path1618" d="m 228.16102,902.49089 c -9.45056,-2.3216 -9.27051,-2.15469 -6.00326,-5.56497 2.7202,-2.83927 2.92903,-3.65838 3.30235,-12.95289 l 0.39852,-9.92195 12.16893,-0.65432 c 6.69291,-0.35988 18.45286,-0.65432 26.13323,-0.65432 13.65291,0 13.97597,0.0507 14.48791,2.27284 1.93368,8.39351 5.28244,27.61547 4.88356,28.03174 -0.2662,0.27779 -11.46992,0.60131 -24.89716,0.71892 -18.68514,0.16368 -25.83523,-0.13548 -30.47408,-1.27505 z" transform="scale(0.26458333)" style="opacity:1;vector-effect:none;fill:none;fill-opacity:1;stroke:#806600;stroke-width:2.69374013;stroke-linecap:butt;stroke-linejoin:miter;stroke-miterlimit:4;stroke-dasharray:none;stroke-dashoffset:0;stroke-opacity:1"/><path id="path1620" d="m 228.91864,900.82966 c -5.48926,-1.00111 -6.23778,-2.02022 -3.82396,-5.20631 0.79869,-1.05422 1.71689,-5.72561 2.10792,-10.72425 l 0.69283,-8.85642 6.69879,-0.63279 c 3.68433,-0.34803 14.71558,-0.63601 24.51388,-0.63996 l 17.81509,-0.007 2.13542,11.45838 c 2.55809,13.72639 2.58254,14.41785 0.53757,15.20258 -2.53256,0.97184 -44.80884,0.47627 -50.67754,-0.59405 z" transform="scale(0.26458333)" style="opacity:1;vector-effect:none;fill:none;fill-opacity:1;stroke:#806600;stroke-width:2.69374013;stroke-linecap:butt;stroke-linejoin:miter;stroke-miterlimit:4;stroke-dasharray:none;stroke-dashoffset:0;stroke-opacity:1"/><path id="path1622" d="m 230.6864,899.10723 c -2.50013,-0.33325 -4.41624,-1.06047 -4.25803,-1.61605 1.56794,-5.50617 2.25681,-8.9437 2.77305,-13.83763 l 0.60722,-5.75641 4.22695,-0.60705 c 2.32483,-0.33387 12.6274,-0.4709 22.89461,-0.3045 l 18.66766,0.30254 1.7275,9.09137 c 0.95012,5.00025 1.75469,10.11415 1.78793,11.36422 l 0.0604,2.27284 -21.97081,-0.15172 c -12.08395,-0.0834 -24.01638,-0.42437 -26.51651,-0.75761 z" transform="scale(0.26458333)" style="opacity:1;vector-effect:none;fill:none;fill-opacity:1;stroke:#806600;stroke-width:2.69374013;stroke-linecap:butt;stroke-linejoin:miter;stroke-miterlimit:4;stroke-dasharray:none;stroke-dashoffset:0;stroke-opacity:1"/><path id="path1624" d="m 231.34622,897.26329 c -2.40134,-0.35928 -2.77201,-0.79256 -2.24698,-2.62657 0.34581,-1.20797 0.90709,-4.46915 1.24727,-7.24707 1.11492,-9.1042 -0.27361,-8.58629 23.02016,-8.58629 h 20.58888 l 1.01137,4.79822 c 0.55625,2.63902 1.32738,6.95743 1.71363,9.59645 l 0.70226,4.79822 -21.58044,-0.15135 c -11.86924,-0.0832 -22.87451,-0.34497 -24.45615,-0.58161 z" transform="scale(0.26458333)" style="opacity:1;vector-effect:none;fill:none;fill-opacity:1;stroke:#806600;stroke-width:2.69374013;stroke-linecap:butt;stroke-linejoin:miter;stroke-miterlimit:4;stroke-dasharray:none;stroke-dashoffset:0;stroke-opacity:1"/><path id="path1626" d="m 231.35523,895.21833 c -0.78044,-1.28379 1.54935,-12.83414 2.74757,-13.62159 0.62111,-0.40818 9.59435,-0.7491 19.94054,-0.75761 l 18.81126,-0.0155 0.66126,4.29315 c 0.36369,2.36123 0.92695,5.7705 1.25168,7.57614 l 0.59042,3.283 h -21.77109 c -11.9741,0 -21.97834,-0.34093 -22.23164,-0.75762 z" transform="scale(0.26458333)" style="opacity:1;vector-effect:none;fill:none;fill-opacity:1;stroke:#806600;stroke-width:2.69374013;stroke-linecap:butt;stroke-linejoin:miter;stroke-miterlimit:4;stroke-dasharray:none;stroke-dashoffset:0;stroke-opacity:1"/><path id="path1628" d="m 233.08985,892.18788 c 0.28561,-0.97228 0.8214,-3.4724 1.19065,-5.55584 l 0.67135,-3.78807 h 18.00226 c 19.98056,0 18.26778,-0.63962 19.61119,7.3236 l 0.63906,3.78807 h -20.3169 c -18.87381,0 -20.28001,-0.12556 -19.79761,-1.76776 z" transform="scale(0.26458333)" style="opacity:1;vector-effect:none;fill:none;fill-opacity:1;stroke:#806600;stroke-width:2.69374013;stroke-linecap:butt;stroke-linejoin:miter;stroke-miterlimit:4;stroke-dasharray:none;stroke-dashoffset:0;stroke-opacity:1"/><path id="path1630" d="m 250.08764,892.19742 c 3.72589,-0.19381 10.08985,-0.1951 14.14214,-0.003 4.05229,0.19223 1.00384,0.3508 -6.77434,0.35238 -7.77817,0.002 -11.09368,-0.15571 -7.3678,-0.34951 z" transform="scale(0.26458333)" style="opacity:1;vector-effect:none;fill:none;fill-opacity:1;stroke:#806600;stroke-width:2.69374013;stroke-linecap:butt;stroke-linejoin:miter;stroke-miterlimit:4;stroke-dasharray:none;stroke-dashoffset:0;stroke-opacity:1"/><path id="path1632" d="m 231.69655,925.85651 c -18.63443,-2.86004 -34.54118,-7.65061 -44.20163,-13.31201 -6.788,-3.97803 -14.37474,-11.34916 -16.53333,-16.06348 -6.75181,-14.74577 4.60827,-29.01455 30.93546,-38.85636 6.31382,-2.36027 7.04311,-2.90933 6.80995,-5.127 -0.14362,-1.36601 -15.04763,-127.00723 -33.12002,-279.2027 -18.07239,-152.19548 -32.68507,-277.42914 -32.47262,-278.29703 0.33668,-1.37542 0.46117,-1.38348 0.96984,-0.0627 0.32096,0.83338 15.44964,126.97618 33.61928,280.31734 18.16964,153.34115 33.11311,278.89917 33.2077,279.01784 0.0946,0.11865 4.46908,-0.67022 9.72107,-1.75304 15.28426,-3.15121 38.58726,-4.53598 53.96629,-3.20691 7.18965,0.62133 13.12605,1.03383 13.19201,0.91665 0.066,-0.11718 -14.77979,-125.20282 -32.99053,-277.96809 -18.21076,-152.76527 -32.90445,-277.96105 -32.65265,-278.21285 0.2518,-0.25179 0.65514,-0.26048 0.89632,-0.0193 0.43914,0.43915 66.23156,551.49527 66.23156,554.73429 0,0.97539 0.98356,1.9157 2.27284,2.17291 1.25007,0.24938 6.19931,1.31304 10.99833,2.36368 l 8.72549,1.91026 120.98524,-280.64147 c 66.54189,-154.3528 121.41705,-280.64146 121.94481,-280.64146 1.17543,0 19.71671,-43.35992 -120.37676,281.50844 -66.16846,153.44068 -120.30629,279.39788 -120.30629,279.9049 0,0.50702 1.93192,1.50029 4.29315,2.20729 6.49583,1.94498 16.90673,7.4601 22.64553,11.99635 6.07887,4.80509 10.44788,12.69321 10.41478,18.80359 -0.0864,15.95008 -21.91568,30.27674 -55.5362,36.4487 -12.626,2.31784 -51.25748,2.96264 -63.63962,1.06221 z m 40.65864,-13.42086 c -1.25006,-0.24078 -3.29562,-0.24078 -4.54568,0 -1.25007,0.24077 -0.22729,0.43777 2.27284,0.43777 2.50013,0 3.52291,-0.197 2.27284,-0.43777 z m 20.96067,-5.74502 c 0,-0.21836 -0.68185,-0.65865 -1.51523,-0.97846 -0.83337,-0.31979 -1.51523,-0.14114 -1.51523,0.397 0,0.53815 0.68186,0.97846 1.51523,0.97846 0.83338,0 1.51523,-0.17866 1.51523,-0.397 z m -6.06092,-1.59161 c 0,-0.53814 -0.68185,-0.71679 -1.51522,-0.397 -0.83338,0.3198 -1.51523,0.7601 -1.51523,0.97845 0,0.21835 0.68185,0.397 1.51523,0.397 0.83337,0 1.51522,-0.4403 1.51522,-0.97845 z m 21.07517,-2.55701 c 10.97873,-3.54919 22.84748,-10.0859 24.06261,-13.25248 0.77656,-2.02366 -4.99902,-7.18514 -12.52516,-11.19337 -6.29567,-3.35293 -5.38004,-4.12727 -13.97517,11.81887 -3.14438,5.83363 -6.89092,11.85667 -8.32564,13.38452 -1.43471,1.52786 -2.06055,2.77792 -1.39074,2.77792 0.66979,0 6.13914,-1.59096 12.1541,-3.53546 z m -94.26969,-2.45825 c -0.36621,-0.59254 -1.24163,-1.07735 -1.94537,-1.07735 -2.63726,0 -5.72611,-4.9033 -7.50734,-11.91731 -1.01224,-3.98594 -2.1151,-7.52184 -2.4508,-7.85753 -0.90387,-0.90388 -11.87661,7.66549 -11.87661,9.27527 0,1.89528 6.28999,5.89083 15.74249,9.99999 7.80491,3.39293 9.34696,3.69547 8.03763,1.57693 z m 9.55491,-0.51266 c 0,-0.245 -0.45456,-0.7264 -1.01015,-1.06977 -0.55558,-0.34337 -1.01015,-0.14292 -1.01015,0.44546 0,0.58837 0.45457,1.06977 1.01015,1.06977 0.55559,0 1.01015,-0.20046 1.01015,-0.44546 z m 25.25382,-7.63576 c 0,-0.59366 3.51566,-1.01015 8.52668,-1.01015 4.68967,0 8.80762,0.45456 9.15099,1.01015 0.34337,0.55558 1.7545,1.01015 3.13584,1.01015 2.35262,0 2.46746,-0.23969 1.81499,-3.78807 -0.38311,-2.08344 -1.19921,-4.12204 -1.81354,-4.53022 -0.61435,-0.40818 -8.44843,-0.74911 -17.40909,-0.75762 l -16.29211,-0.0155 -1.01328,3.992 c -0.5573,2.1956 -0.76411,4.24116 -0.45959,4.54569 1.00845,1.00844 14.35911,0.58404 14.35911,-0.45647 z m 52.4076,-13.46166 c 2.84411,-6.57053 5.17109,-12.32985 5.17109,-12.79847 0,-0.95653 -14.12016,-4.40313 -14.88902,-3.63429 -0.27073,0.27075 0.31496,7.12483 1.30153,15.23131 0.98658,8.10648 2.12037,14.38103 2.51954,13.94347 0.39918,-0.43757 3.05277,-6.17148 5.89686,-12.74202 z m -29.17409,4.37029 c 0,-0.55559 -0.7955,-1.0032 -1.76777,-0.99469 -1.51073,0.0132 -1.54745,0.15784 -0.25254,0.99469 1.90637,1.23199 2.02031,1.23199 2.02031,0 z m 3.30222,-6.72352 c -0.68391,-0.2767 -2.04761,-0.29354 -3.03046,-0.0375 -0.98285,0.25612 -0.42329,0.48251 1.24347,0.5031 1.66675,0.0206 2.47089,-0.18896 1.78699,-0.46567 z m -58.14772,-6.66101 c -0.24077,-1.25006 -0.43776,-0.22728 -0.43776,2.27285 0,2.50013 0.19699,3.5229 0.43776,2.27284 0.24078,-1.25006 0.24078,-3.29562 0,-4.54569 z m 96.06666,3.76135 c -0.31102,-0.31102 -0.87585,0.24962 -1.2552,1.24585 -0.54818,1.43967 -0.43216,1.55569 0.56549,0.56548 0.69036,-0.68522 1.00073,-1.50032 0.68971,-1.81133 z m -104.73543,-3.77818 c -0.99764,-0.99022 -1.11367,-0.87419 -0.56547,0.56548 0.37934,0.99623 0.94418,1.55687 1.25519,1.24585 0.31101,-0.31102 6.4e-4,-1.12611 -0.68972,-1.81133 z m 102.02892,0.52191 c 1.2565,-1.60216 1.22077,-1.63789 -0.38139,-0.38139 -0.97228,0.76251 -1.76777,1.55801 -1.76777,1.76776 0,0.8314 0.82953,0.29629 2.14916,-1.38637 z m -0.12886,-3.39107 c 0,-1.45222 -1.75273,-1.03608 -2.36585,0.5617 -0.37544,0.97836 -0.0763,1.27751 0.90207,0.90208 0.80508,-0.30893 1.46378,-0.96763 1.46378,-1.46378 z m -60.86169,-2.63575 c -1.52785,-0.23146 -4.02798,-0.23146 -5.55584,0 -1.52785,0.23144 -0.27779,0.42082 2.77792,0.42082 3.05571,0 4.30578,-0.18938 2.77792,-0.42082 z" transform="scale(0.26458333)" style="opacity:1;vector-effect:none;fill:none;fill-opacity:1;stroke:#806600;stroke-width:2.69374013;stroke-linecap:butt;stroke-linejoin:miter;stroke-miterlimit:4;stroke-dasharray:none;stroke-dashoffset:0;stroke-opacity:1"/><path id="path1634" d="m 238.26255,927.23298 c -16.57052,-1.26026 -33.78752,-5.5966 -46.9721,-11.83059 -10.00296,-4.72963 -20.24583,-14.72255 -22.14505,-21.60463 -3.74798,-13.58139 6.79721,-26.46499 29.29375,-35.78967 7.72833,-3.20334 9.01374,-4.0747 9.01374,-6.11028 0,-1.30577 -7.48587,-65.44885 -16.63527,-142.54017 -20.5867,-173.46008 -44.35433,-375.6757 -46.45372,-395.22956 -0.86492,-8.05596 -1.78585,-15.89727 -2.0465,-17.42513 -0.32808,-1.92311 -0.0427,-2.77792 0.92727,-2.77792 0.83819,0 1.6442,1.52204 2.00599,3.78807 1.34193,8.40492 18.41374,151.16547 49.54479,414.31118 9.16223,77.4468 16.84887,141.00265 17.08143,141.23521 0.23257,0.23255 2.23725,-0.0658 4.45485,-0.66287 13.37389,-3.60121 51.14179,-5.70271 65.61344,-3.65089 l 5.29682,0.751 -0.50706,-2.87181 C 286.17999,843.68196 257.29121,601.35781 237.31905,432.31593 220.91017,293.43318 220.73527,291.7184 223.23321,294.21634 c 1.06933,1.06933 32.27001,258.71206 60.99616,503.68181 3.28407,28.00584 6.3311,51.23881 6.77115,51.62884 1.01811,0.90236 19.30938,4.54939 19.85436,3.95869 0.22389,-0.24267 25.28515,-58.17143 55.69172,-128.73059 95.09856,-220.67856 175.21424,-405.79161 182.91341,-422.63469 2.06041,-4.50745 4.35354,-8.19537 5.09585,-8.19537 0.98458,0 1.11378,0.6148 0.47765,2.27284 -0.47961,1.25007 -30.74911,71.59457 -67.26557,156.32111 -98.693,228.99038 -170.33524,395.42377 -172.86173,401.57822 -0.23768,0.57901 3.1262,2.50762 7.4753,4.28582 21.35562,8.73154 32.13591,22.03873 28.49741,35.17719 -1.04163,3.76125 -2.83763,6.41704 -7.52145,11.12211 -17.71639,17.7968 -56.93952,26.21307 -105.09492,22.55066 z m 70.39793,-25.82737 c 8.73913,-3.13827 17.5121,-7.43209 21.02394,-10.28992 l 2.52231,-2.05258 -2.74098,-2.87375 c -3.59262,-3.76665 -13.53867,-9.76526 -14.84882,-8.95554 -0.56449,0.34888 -3.6136,5.27679 -6.77581,10.95091 -3.16223,5.67413 -6.61857,11.56666 -7.68078,13.09452 -2.51183,3.61296 -1.2608,3.63156 8.50014,0.12636 z m -102.249,-7.0062 c -1.00857,-1.97826 -2.40921,-5.84209 -3.11253,-8.58629 -0.70332,-2.7442 -1.79285,-4.98946 -2.42119,-4.98946 -0.62834,0 -3.06417,1.64493 -5.41295,3.6554 -4.0744,3.48754 -4.19158,3.74263 -2.55165,5.55474 1.60338,1.77171 12.94867,7.96245 14.59218,7.96245 0.40696,0 -0.0853,-1.61857 -1.09386,-3.59684 z m 51.04396,-3.78115 c 3.88909,-0.065 8.54842,0.26143 10.35407,0.72562 3.59458,0.9241 3.91891,0.37526 2.29784,-3.88847 l -0.98515,-2.59114 h -16.07936 c -17.18997,0 -17.30568,0.0351 -17.30568,5.24737 0,1.93908 0.40196,2.01253 7.32361,1.33834 4.02798,-0.39233 10.50559,-0.7666 14.39467,-0.83172 z m 43.32828,-13.35036 c 4.17925,-9.54284 5.6334,-13.92283 4.11989,-12.40932 -0.29374,0.29375 -3.11589,-0.0661 -6.27145,-0.79961 -3.15555,-0.73354 -5.90806,-1.16301 -6.11667,-0.9544 -0.73275,0.73275 2.46752,24.79016 3.29773,24.79016 0.17409,0 2.41082,-4.78207 4.9705,-10.62683 z" transform="scale(0.26458333)" style="opacity:1;vector-effect:none;fill:none;fill-opacity:1;stroke:#806600;stroke-width:2.69374013;stroke-linecap:butt;stroke-linejoin:miter;stroke-miterlimit:4;stroke-dasharray:none;stroke-dashoffset:0;stroke-opacity:1"/><path id="path1636" d="m 241.25224,928.32628 c -42.02218,-3.07535 -73.48391,-20.10108 -73.48391,-39.76631 0,-11.73722 10.30086,-22.71938 28.87989,-30.78998 11.26557,-4.89369 10.37587,-2.16686 7.84063,-24.03093 C 203.272,823.24484 192.54681,732.15446 180.6551,631.31598 151.36693,382.96019 141.79298,300.57094 141.79298,296.88548 c 0,-2.392 0.39914,-3.03172 1.73149,-2.77513 2.84501,0.5479 -0.37515,-24.54168 34.13889,265.98988 28.17674,237.18555 34.71704,291.64246 35.06858,291.99402 0.16476,0.16474 3.28099,-0.32542 6.92496,-1.08925 11.15473,-2.33823 32.49637,-3.77184 49.89686,-3.35179 l 16.55132,0.39956 -0.44102,-2.55491 C 285.15461,842.54651 270.44704,719.28559 245.88499,512.11798 219.58761,290.31391 219.96454,293.92503 223.11026,293.92503 c 0.83337,0 1.51523,0.60126 1.51523,1.33613 0,0.73487 1.11913,9.93988 2.48697,20.45559 6.18239,47.52927 28.65879,233.71883 49.01239,406.00788 11.92927,100.97877 15.0872,126.02443 16.00746,126.95552 1.22554,1.23995 17.51186,4.1 18.289,3.21174 0.41754,-0.47726 37.03208,-84.96293 81.36564,-187.74595 124.51498,-288.67582 157.26285,-364.11503 159.72483,-367.94807 1.52681,-2.37706 4.44374,-3.10983 4.44374,-1.11632 0,1.27856 -9.45733,23.3454 -114.66315,267.54406 -96.64444,224.32639 -124.743,289.89111 -124.743,291.07316 0,0.54319 3.06834,2.37186 6.81853,4.0637 19.09633,8.61501 28.64632,18.80751 28.75307,30.68753 0.15581,17.33928 -25.34632,33.3843 -60.82542,38.26915 -13.90245,1.91414 -36.10524,2.62717 -50.04331,1.60713 z m 71.25652,-29.48057 c 7.80413,-3.06289 18.18274,-8.81044 18.18274,-10.06938 0,-1.55517 -14.85393,-11.64867 -15.75594,-10.70644 -0.31377,0.32777 -12.51463,21.04373 -13.7162,23.28889 -1.20171,2.24544 -0.3546,2.05686 11.2894,-2.51307 z M 205.43259,895.439 c 0,-0.78546 -4.16231,-13.03719 -4.57099,-13.45466 -0.68447,-0.6992 -7.55084,5.16792 -7.55084,6.45198 0,0.72157 2.38648,2.70315 5.3033,4.40351 5.22786,3.04757 6.81853,3.65392 6.81853,2.59917 z m 64.15052,-6.3642 c -0.281,-0.73992 -0.51091,-1.7627 -0.51091,-2.27284 0,-1.0202 -28.1375,-1.30808 -30.72704,-0.31438 -0.87881,0.33722 -1.59784,1.39474 -1.59784,2.35002 0,1.57538 1.55043,1.72971 16.67335,1.6597 13.44391,-0.0622 16.57439,-0.33776 16.16244,-1.4225 z m 30.99213,-13.55721 3.72384,-9.34114 -5.23907,-1.08193 c -2.88149,-0.59506 -5.38411,-0.98035 -5.56138,-0.8562 -0.57045,0.3995 2.12811,20.62605 2.75146,20.62318 0.33071,-0.002 2.27704,-4.20628 4.32515,-9.34391 z" transform="scale(0.26458333)" style="opacity:1;vector-effect:none;fill:none;fill-opacity:1;stroke:#806600;stroke-width:2.69374013;stroke-linecap:butt;stroke-linejoin:miter;stroke-miterlimit:4;stroke-dasharray:none;stroke-dashoffset:0;stroke-opacity:1"/><path id="path1638" d="m 229.05321,927.90036 c -26.67603,-4.34747 -44.75904,-12.17628 -55.36048,-23.96764 -5.41487,-6.02263 -7.02498,-10.44337 -6.42756,-17.64752 0.88422,-10.66251 10.09986,-20.14129 27.85318,-28.64846 5.10536,-2.44643 9.5233,-5.20682 9.81764,-6.13421 0.29434,-0.92738 -11.76081,-106.19248 -26.78922,-233.92243 -29.1826,-248.02974 -37.36394,-318.45993 -37.36394,-321.65257 0,-2.61204 4.66532,-2.81266 5.45858,-0.23473 1.43465,4.66227 3.16139,18.96437 64.15134,531.34622 1.53797,12.92062 2.98302,23.6684 3.21122,23.88396 0.2282,0.21556 3.36961,-0.22362 6.98091,-0.97597 9.37534,-1.95318 36.71511,-3.70764 51.51778,-3.30603 l 12.6269,0.34257 -0.24604,-2.52538 c -0.13532,-1.38896 -2.96453,-25.25381 -6.28714,-53.03301 -25.21953,-210.85213 -51.86058,-436.56541 -55.05036,-466.40797 -3.28307,-30.71524 -3.2835,-31.09216 -0.0358,-31.09216 1.38896,0 2.52538,0.5844 2.52538,1.29866 0,0.71426 3.8519,32.42042 8.55977,70.45814 9.59735,77.54273 21.63827,177.52082 40.44703,335.83975 6.99654,58.8919 13.83298,115.48569 15.19209,125.764 1.35911,10.2783 2.47113,19.19391 2.47115,19.81248 2e-5,0.61856 2.84108,1.67453 6.31348,2.34661 3.4724,0.67206 7.35531,1.42947 8.62867,1.68313 1.99627,0.39766 2.67383,-0.34309 4.91833,-5.37706 4.15328,-9.31498 67.32944,-155.35398 115.48749,-266.96269 86.31082,-200.02967 116.66493,-269.80522 121.66126,-279.665 2.10527,-4.15454 3.13757,-5.19802 5.1424,-5.19802 1.3796,0 2.50836,0.41593 2.50836,0.92428 0,1.09588 -23.12238,55.04843 -139.65342,325.86007 -91.00583,211.49244 -100.11481,232.83655 -99.57437,233.32199 0.1797,0.16142 4.19055,2.21368 8.91301,4.56061 16.74962,8.32406 24.85115,16.91587 25.9451,27.5152 1.81515,17.58707 -18.82798,33.04108 -53.7856,40.26538 -13.00447,2.68748 -56.76094,3.64582 -69.75718,1.5278 z m 89.12495,-32.87027 c 5.6183,-2.67203 10.50725,-5.33097 10.86433,-5.90874 0.68147,-1.10264 -12.46228,-10.45628 -13.65625,-9.71838 -0.3791,0.23431 -2.84373,4.17271 -5.47695,8.75202 -2.63321,4.57932 -5.49961,9.42349 -6.36978,10.76484 -1.56911,2.41875 -1.55742,2.43276 1.42072,1.70366 1.65156,-0.40434 7.59963,-2.92136 13.21793,-5.5934 z m -115.28014,-5.1411 c -2.56342,-7.2655 -2.78775,-7.42143 -5.94131,-4.12983 l -2.82247,2.94603 3.86336,2.62523 c 5.60789,3.81066 6.64575,3.50538 4.90042,-1.44143 z m 60.3658,-0.75509 c 2.63903,-0.23785 4.79823,-0.84125 4.79823,-1.34088 0,-1.19706 -29.00613,-1.18199 -29.74618,0.0155 -0.31404,0.50813 6e-5,1.16491 0.698,1.4595 1.43657,0.60635 16.9888,0.52039 24.24995,-0.13405 z m 36.95799,-15.06349 c 1.20198,-2.88092 2.18542,-5.66668 2.18542,-6.19058 0,-0.52391 -1.86612,-1.42624 -4.14696,-2.00516 l -4.14695,-1.05261 0.68629,5.72796 c 1.42276,11.87461 1.8271,12.13712 5.4222,3.52039 z" transform="scale(0.26458333)" style="opacity:1;vector-effect:none;fill:none;fill-opacity:1;stroke:#806600;stroke-width:2.69374013;stroke-linecap:butt;stroke-linejoin:miter;stroke-miterlimit:4;stroke-dasharray:none;stroke-dashoffset:0;stroke-opacity:1"/><path id="path1640" d="m 234.22194,929.24493 c -12.9586,-1.12363 -31.41186,-6.11477 -42.43671,-11.47804 -19.95974,-9.70985 -28.96194,-23.14019 -24.29,-36.23815 3.33372,-9.34619 10.01895,-15.48244 26.5249,-24.34672 9.26418,-4.97519 9.88248,-5.50364 9.6667,-8.2619 -0.93141,-11.90545 -10.6535,-96.19605 -41.17704,-357.00519 -22.46331,-191.93837 -22.90775,-195.88643 -22.18283,-197.05937 0.3163,-0.51179 1.85896,-0.93053 3.42812,-0.93053 2.1019,0 3.01596,0.59838 3.47188,2.27284 0.34037,1.25007 2.88354,20.45559 5.65149,42.67895 4.59667,36.90582 59.06148,492.33828 60.28087,504.06612 0.80041,7.69826 0.33166,7.3732 8.59007,5.9567 10.13892,-1.73906 44.76594,-3.79627 53.96354,-3.206 7.39461,0.47456 7.5014,0.44661 7.5014,-1.96324 0,-1.34455 -9.33407,-80.93944 -20.74238,-176.87751 -37.4392,-314.84462 -43.60361,-368.61987 -42.56595,-371.32398 0.71335,-1.85896 6.73979,-2.25112 6.73979,-0.43859 0,0.64092 5.90027,49.62069 13.11171,108.84394 7.21145,59.22325 20.63217,170.6364 29.82384,247.58477 17.61986,147.50543 23.45388,195.01552 24.01598,195.57762 0.18809,0.18809 3.49733,1.00869 7.35387,1.82357 5.42335,1.14594 7.27611,1.20881 8.17821,0.27753 1.1835,-1.22178 15.54132,-34.24818 115.80066,-266.36909 90.41576,-209.33103 118.93696,-274.89681 123.5862,-284.1054 2.20552,-4.3684 2.74382,-4.79823 6.00912,-4.79823 3.25615,0 3.52124,0.2094 2.87731,2.27284 -0.3901,1.25007 -26.38085,62.04862 -57.7572,135.10791 -103.22433,240.35602 -179.71921,418.67884 -180.37264,420.4799 -0.51658,1.42387 0.8882,2.54154 7.15571,5.69317 14.54173,7.31236 22.78379,14.92941 26.04466,24.06969 1.77611,4.97845 1.76512,6.9447 -0.0734,13.13577 -4.03576,13.58989 -24.79637,26.55183 -51.29292,32.02483 -14.41936,2.97841 -47.37215,4.22773 -66.88493,2.53579 z m 82.62686,-34.66326 c 5.24335,-2.4336 9.81593,-4.88194 10.16129,-5.44076 0.34537,-0.5588 -1.87995,-2.74326 -4.94515,-4.85434 -6.55701,-4.51598 -6.12711,-4.74477 -12.94895,6.89115 -2.99877,5.11496 -4.10634,7.82869 -3.19516,7.82869 0.76703,0 5.68461,-1.99114 10.92797,-4.42474 z m -115.43448,-6.11419 c -0.65405,-1.98176 -1.51758,-3.60321 -1.91896,-3.60321 -1.10207,0 -3.15414,2.27942 -3.15414,3.50359 0,1.10919 5.23998,4.72512 5.89628,4.06883 0.20129,-0.2013 -0.16914,-1.98744 -0.82318,-3.96921 z m 98.12339,-15.34853 c 2.20671,-4.98863 1.64772,-6.38766 -2.56595,-6.42196 -1.6349,-0.0133 -1.81259,0.51296 -1.27381,3.77261 0.34437,2.08344 0.63113,4.58356 0.63725,5.55584 0.0185,2.9317 1.0235,2.01954 3.20251,-2.90649 z" transform="scale(0.26458333)" style="opacity:1;vector-effect:none;fill:none;fill-opacity:1;stroke:#806600;stroke-width:2.69374013;stroke-linecap:butt;stroke-linejoin:miter;stroke-miterlimit:4;stroke-dasharray:none;stroke-dashoffset:0;stroke-opacity:1"/><path id="path1642" d="m 238.26255,930.25628 c -43.67465,-2.95668 -77.44127,-24.66209 -72.22069,-46.42391 2.48227,-10.34728 9.85406,-17.63958 27.90165,-27.60079 7.02416,-3.87692 7.99017,-4.75739 8.26698,-7.53491 0.40568,-4.07063 -1.43641,-20.39139 -29.66592,-262.83755 -34.65739,-297.65142 -33.65212,-288.78834 -32.98282,-290.79626 0.20861,-0.6258 1.94364,-1.13783 3.85564,-1.13783 2.6869,0 3.67476,0.52185 4.35005,2.29798 1.3565,3.56787 16.17664,125.28851 55.68091,457.31794 6.18035,51.94518 11.41353,94.62231 11.62929,94.83808 0.21576,0.21575 4.38421,-0.10765 9.26322,-0.71868 12.67385,-1.58723 47.32769,-3.51385 52.57164,-2.92278 2.9048,0.32741 4.59258,0.0853 4.89466,-0.70182 0.49265,-1.28382 -4.04659,-40.60093 -27.88274,-241.50912 C 227.11619,376.56767 219.96949,314.27162 219.39033,301.50118 l -0.32068,-7.07107 4.29315,-0.31062 c 2.5348,-0.1834 4.29314,0.12597 4.29314,0.75536 0,1.36646 61.98482,515.80716 64.56244,535.83353 1.23562,9.59999 2.42039,15.33908 3.27568,15.86768 2.15203,1.33002 12.02628,2.26443 13.05528,1.23543 1.2869,-1.28689 8.54249,-17.93077 102.96426,-236.19348 111.32212,-257.3291 113.79483,-263.02896 126.64714,-291.93409 l 11.22879,-25.25381 4.79822,-0.30789 c 2.63903,-0.16933 4.79823,-0.0103 4.79823,0.35335 0,0.36369 -53.4757,125.28133 -118.83488,277.59476 -65.35918,152.31344 -119.04086,277.90181 -119.29261,279.08527 -0.388,1.82393 0.8263,2.82424 7.97064,6.56599 5.7394,3.00593 10.71524,6.67019 15.5964,11.48532 11.52245,11.3666 13.02357,20.23391 5.44761,32.17995 -8.51461,13.42615 -34.78467,25.29378 -61.60804,27.83173 -16.13418,1.52659 -36.52899,1.94983 -50.00255,1.03769 z m 78.6035,-36.68789 c 4.12482,-1.87974 7.78212,-3.87472 8.12734,-4.4333 0.75078,-1.21479 -5.61091,-6.29112 -7.88409,-6.29112 -1.41245,0 -7.74548,8.61234 -9.287,12.62949 -0.85254,2.22169 0.71083,1.89237 9.04375,-1.90507 z m -116.92713,-6.38098 c -0.46919,-1.22268 -0.92816,-1.35613 -1.76973,-0.51456 -0.84158,0.84158 -0.77707,1.56905 0.24873,2.80506 1.56677,1.88784 2.55393,0.40126 1.521,-2.2905 z m 99.43786,-17.02997 c 0,-1.51835 -0.5822,-2.46576 -1.51523,-2.46576 -1.58479,0 -1.94099,1.7557 -0.90431,4.45727 0.8599,2.24087 2.41954,0.95714 2.41954,-1.99151 z" transform="scale(0.26458333)" style="opacity:1;vector-effect:none;fill:none;fill-opacity:1;stroke:#806600;stroke-width:2.69374013;stroke-linecap:butt;stroke-linejoin:miter;stroke-miterlimit:4;stroke-dasharray:none;stroke-dashoffset:0;stroke-opacity:1"/><path id="path1644" d="m 226.24122,929.73778 c -13.68265,-2.12727 -23.33298,-5.06564 -34.44569,-10.48818 -18.34472,-8.95146 -27.48697,-20.00098 -26.57373,-32.1176 0.24057,-3.1918 1.23844,-7.47095 2.21749,-9.50923 2.78672,-5.8017 10.73612,-12.88011 22.57268,-20.09948 l 10.87493,-6.63285 -0.19327,-7.11876 c -0.27951,-10.29506 1.90611,8.90823 -44.76019,-393.273 -8.86409,-76.39279 -16.42295,-142.90119 -16.79748,-147.79644 l -0.68096,-8.90046 4.9116,0.31416 c 4.74413,0.30346 4.93718,0.43808 5.66183,3.94831 1.63097,7.90046 13.15131,102.65127 54.88021,451.37092 6.41108,53.57609 11.84466,97.59921 12.07462,97.82917 0.22997,0.22996 5.1096,-0.0773 10.84363,-0.68286 14.21657,-1.50132 49.08819,-3.43718 50.70939,-2.81506 0.72357,0.27766 1.81797,0.19433 2.432,-0.18516 1.33652,-0.82602 -0.331,-15.85125 -23.50141,-211.7602 -31.56476,-266.88426 -36.633,-310.99739 -37.57394,-327.03689 l -0.63704,-10.85914 h 5.2051 c 2.86281,0 5.20511,0.42541 5.20511,0.94536 0,3.40271 64.40757,536.23149 65.79292,544.28949 0.59745,3.47516 1.43226,6.53229 1.85512,6.79364 0.42286,0.26133 3.22408,0.76372 6.22492,1.11642 l 5.45607,0.64125 4.85605,-10.97043 c 5.93521,-13.40838 83.7135,-192.81075 145.11673,-334.7243 71.28889,-164.76107 89.27277,-205.82413 90.82878,-207.39161 0.4452,-0.44847 3.11721,-0.67575 5.93783,-0.50507 l 5.12838,0.31033 -1.90285,4.54568 c -1.04657,2.50013 -50.06373,117.05143 -108.92701,254.55845 -58.86329,137.50701 -111.65587,260.90876 -117.31686,274.2261 -11.752,27.64636 -11.73984,24.1829 -0.10796,30.74075 8.3277,4.69501 16.77288,12.44371 20.33938,18.66198 3.58519,6.25085 3.99348,13.97513 1.07796,20.39415 -7.47877,16.46587 -34.60954,29.66298 -67.28584,32.72957 -15.45652,1.45056 -48.60457,1.14469 -59.4985,-0.54901 z m 90.65511,-37.18459 c 3.00042,-1.32693 5.74513,-2.88152 6.09934,-3.45464 0.62971,-1.01889 -3.85217,-5.24443 -5.56256,-5.24443 -0.92629,0 -7.88799,9.09003 -7.92977,10.35406 -0.0416,1.25859 1.67256,0.87485 7.39299,-1.65499 z" transform="scale(0.26458333)" style="opacity:1;vector-effect:none;fill:none;fill-opacity:1;stroke:#806600;stroke-width:2.69374013;stroke-linecap:butt;stroke-linejoin:miter;stroke-miterlimit:4;stroke-dasharray:none;stroke-dashoffset:0;stroke-opacity:1"/><path id="path1646" d="m 219.95036,929.42161 c -33.18462,-7.4043 -55.79612,-24.06142 -55.68291,-41.01972 0.0752,-11.26226 6.96286,-19.74213 25.32362,-31.17758 10.01605,-6.23818 10.24399,-6.51118 10.30099,-12.33741 0.069,-7.05539 -2.401,-29.13324 -27.70262,-247.61336 -37.5823,-324.52403 -35.45721,-304.28571 -31.95101,-304.28571 1.41299,0 2.56908,-0.66888 2.56908,-1.48639 0,-0.81751 1.56952,-0.0139 3.48784,1.78572 4.19948,3.93972 3.18018,-3.78013 40.13711,303.98638 13.82218,115.10715 26.22861,218.28572 27.56984,229.28572 2.23878,18.36117 2.67018,19.97544 5.26476,19.70024 1.55439,-0.16486 15.6833,-1.07837 31.39759,-2.03003 15.71428,-0.95164 28.74554,-1.84801 28.95836,-1.99193 0.6314,-0.42698 -2.83272,-30.69148 -29.67403,-259.24971 -22.35151,-190.32679 -28.81483,-246.88684 -32.20069,-281.78572 -0.64741,-6.67301 -0.39855,-8.21428 1.32634,-8.21428 1.32493,0 2.33992,-1.74572 2.69945,-4.64286 l 0.57618,-4.64286 0.22862,4.5435 c 0.17805,3.53839 0.93969,4.64449 3.44291,5 3.07135,0.4362 3.35721,1.66355 6.42813,27.59936 28.27552,238.80401 63.11436,522.61853 64.29087,523.74552 0.5867,0.56198 3.3023,1.23485 6.03467,1.49527 l 4.96796,0.4735 55.45924,-127.85715 c 30.50259,-70.32142 80.13656,-184.75 110.29775,-254.28571 75.94064,-175.07895 73.92068,-170.62512 77.63137,-171.17079 1.70735,-0.25107 3.1043,-1.06009 3.1043,-1.79782 0,-0.73772 1.28571,-0.53837 2.85714,0.443 1.57143,0.98137 2.85714,2.34925 2.85714,3.03972 0,0.69048 -53.03571,125.22005 -117.85714,276.73239 -64.82143,151.51234 -117.85714,276.95459 -117.85714,278.76056 0,2.40433 1.62574,4.14785 6.07143,6.51131 14.75415,7.84374 25.35714,21.07612 25.35714,31.64534 0,15.42079 -19.11874,30.89239 -47.85714,38.7278 -9.86188,2.6888 -16.03078,3.18928 -45,3.65078 -25.71501,0.40964 -35.74449,0.05 -42.85715,-1.53708 z m 26.75596,-13.01117 c -0.47471,-0.4747 -1.70685,-0.52544 -2.7381,-0.11271 -1.13962,0.45603 -0.80111,0.79454 0.8631,0.86308 1.50595,0.062 2.3497,-0.27561 1.875,-0.75031 z m 29.34266,-0.074 c -0.96719,-0.39131 -2.89576,-0.41513 -4.28571,-0.053 -1.38996,0.3622 -0.59862,0.68237 1.75852,0.71149 2.35714,0.0291 3.49438,-0.26723 2.52719,-0.65856 z m 4.97281,-4.33337 c -1.375,-0.35931 -3.625,-0.35931 -5,0 -1.375,0.35933 -0.25,0.65333 2.5,0.65333 2.75,0 3.875,-0.294 2.5,-0.65333 z m -22.889,-1.48638 c -2.96396,-0.30925 -7.46396,-0.30406 -10,0.0114 -2.53605,0.31559 -0.111,0.56862 5.389,0.56228 5.5,-0.006 7.57495,-0.26455 4.611,-0.5738 z m 26.95399,-7.74959 c 0.63154,-1.02186 0.39188,-1.26151 -0.62997,-0.62997 -0.98395,0.6081 -1.6493,0.0981 -1.6493,-1.26417 0,-1.88045 -0.35032,-1.95836 -1.98478,-0.44146 -1.4378,1.33441 -1.53622,2.13127 -0.35714,2.8916 2.29606,1.48059 3.44819,1.34196 4.62119,-0.556 z m -47.63642,-0.72539 c -0.98214,-0.3963 -2.58928,-0.3963 -3.57143,0 -0.98214,0.3963 -0.17857,0.72056 1.78572,0.72056 1.96428,0 2.76786,-0.32426 1.78571,-0.72056 z m 30.04311,-1.52635 c -3.31558,-0.2996 -9.1013,-0.30317 -12.85715,-0.009 -3.75585,0.2959 -1.0431,0.54104 6.02833,0.54538 7.07143,0.004 10.1444,-0.23721 6.82882,-0.53681 z m -77.54311,-3.78119 c 0,-0.29664 -1.125,-1.42164 -2.5,-2.5 -2.26579,-1.77696 -2.31632,-1.72643 -0.53936,0.53937 1.86624,2.37965 3.03936,3.1364 3.03936,1.96063 z m 127.78993,-5.40423 c 4.1163,-1.8755 4.48157,-3.00698 1.71263,-5.305 -1.46141,-1.21287 -2.4428,-0.99661 -4.06841,0.8965 -5.24273,6.10545 -4.48416,7.52499 2.35578,4.4085 z m -84.96846,-11.80635 c -1.89335,-1.89336 -3.07106,-0.27702 -1.942,2.66527 0.74392,1.93863 1.1974,2.06148 2.11699,0.57355 0.64366,-1.04145 0.56491,-2.49892 -0.17499,-3.23882 z m 98.05688,-3.08078 c 0.18471,-1.25851 -0.098,-1.85431 -0.6284,-1.32398 -0.53033,0.53033 -0.97408,1.39281 -0.9861,1.91661 -0.0114,0.52382 -0.58849,1.91667 -1.28102,3.09525 -1.02048,1.73672 -0.89724,1.80715 0.65027,0.3716 1.05017,-0.97419 2.06053,-2.80095 2.24525,-4.05948 z m -139.92597,1.60786 c 0,-1.14401 -0.5462,-1.74244 -1.21378,-1.32986 -0.66757,0.41259 -0.84392,1.34859 -0.39188,2.08002 1.15518,1.86911 1.60566,1.65866 1.60566,-0.75016 z m 14.76191,-3.63427 c 0,-0.78571 -0.6808,-1.42857 -1.51288,-1.42857 -0.83209,0 -1.11558,0.64286 -0.62998,1.42857 0.4856,0.78571 1.1664,1.42857 1.51288,1.42857 0.34649,0 0.62998,-0.64286 0.62998,-1.42857 z m 63.92857,-1.02321 c -2.16071,-0.32733 -5.69643,-0.32733 -7.85714,0 -2.16072,0.32731 -0.39286,0.59512 3.92857,0.59512 4.32143,0 6.08928,-0.26781 3.92857,-0.59512 z m 10.35714,-0.40536 c 0,-0.78572 -1.125,-1.41873 -2.5,-1.4067 -2.13649,0.0187 -2.18842,0.22323 -0.35714,1.4067 2.69601,1.7423 2.85714,1.7423 2.85714,0 z m -1.07143,-3.80326 c -0.98214,-0.3963 -2.58928,-0.3963 -3.57142,0 -0.98215,0.3963 -0.17858,0.72056 1.78571,0.72056 1.96429,0 2.76786,-0.32426 1.78571,-0.72056 z m -19.28571,-1.50567 c -2.16071,-0.32733 -5.69643,-0.32733 -7.85714,0 -2.16072,0.32731 -0.39286,0.59513 3.92857,0.59513 4.32143,0 6.08928,-0.26782 3.92857,-0.59513 z m 12.90503,-4.3106 c -3.7058,-0.29321 -10.13437,-0.29626 -14.28571,-0.007 -4.15134,0.28987 -1.11932,0.52977 6.73782,0.53348 7.85715,0.004 11.2537,-0.23313 7.54789,-0.52634 z m 17.45211,-0.61857 c 0,-0.65476 -0.60491,-1.19047 -1.34425,-1.19047 -0.73935,0 -1.67536,0.53571 -2.08002,1.19047 -0.40467,0.65477 0.20024,1.19048 1.34426,1.19048 1.144,0 2.08001,-0.53571 2.08001,-1.19048 z m -53.24404,-2.05357 c -0.47471,-0.4747 -1.70685,-0.52545 -2.7381,-0.11272 -1.13962,0.45603 -0.80111,0.79455 0.8631,0.86309 1.50595,0.062 2.3497,-0.27562 1.875,-0.75032 z m 28.63895,-1.60389 c -2.92566,-0.30697 -8.06852,-0.31121 -11.42857,-0.01 -3.36006,0.30179 -0.96634,0.55294 5.31938,0.55813 6.28571,0.006 9.03485,-0.24173 6.10919,-0.54869 z" transform="scale(0.26458333)" style="opacity:1;vector-effect:none;fill:none;fill-opacity:1;stroke:#806600;stroke-width:3.80952382;stroke-linecap:butt;stroke-linejoin:miter;stroke-miterlimit:4;stroke-dasharray:none;stroke-dashoffset:0;stroke-opacity:1"/><path id="path1648" d="m 133.43824,217.68848 c -0.16648,-2.61751 -2.4967,-7.36653 -5.17824,-10.55337 -6.29855,-7.4854 -4.84164,-13.06521 4.67967,-17.92262 11.58974,-5.91264 29.99448,-8.6284 53.33533,-7.87003 17.81787,0.57892 21.65653,0.1783 22.33915,-2.33142 0.65294,-2.40056 0.87298,-2.32894 1.05862,0.34456 0.14437,2.0791 2.75241,3.92806 6.79226,4.81536 16.31552,3.58349 24.35797,11.33217 20.95797,20.19243 -1.44393,3.76281 -15.78661,10.39364 -26.71603,12.35121 -13.82681,2.47652 -55.65805,1.23888 -65.84281,-1.94806 l -9.48459,-2.96784 -0.81931,5.32445 c -0.75454,4.90354 -0.84324,4.94823 -1.12202,0.56533 z m 84.39655,-12.85506 c 11.06897,-3.3161 12.41118,-6.49274 3.98451,-9.43029 -8.91753,-3.10867 -9.86335,-2.89354 -10.09325,2.29574 -0.19112,4.31405 -0.2728,4.28831 -1.60298,-0.50508 -1.38251,-4.98194 -1.72886,-5.05856 -25.41831,-5.62312 -31.28421,-0.74555 -54.18386,3.8166 -48.365,9.63546 7.57653,7.57653 60.45627,9.93017 81.49503,3.62729 z" transform="scale(0.26458333)" style="opacity:1;vector-effect:none;fill:none;fill-opacity:1;stroke:#806600;stroke-width:5.38748026;stroke-linecap:butt;stroke-linejoin:miter;stroke-miterlimit:4;stroke-dasharray:none;stroke-dashoffset:0;stroke-opacity:1"/><path id="path1650" d="m 219.0656,841.32701 c -0.51689,-1.47749 -11.0091,-86.78155 -23.31602,-189.56458 -42.35691,-353.74977 -42.39156,-354.0118 -47.56707,-359.73068 -2.15442,-2.3806 -4.47417,-14.40331 -7.3527,-38.10714 -2.3129,-19.0461 -3.75063,-35.08393 -3.19495,-35.63961 0.55568,-0.55568 7.42159,-0.0156 15.25757,1.2002 7.83598,1.2158 24.32634,1.92514 36.64524,1.57632 18.81625,-0.5328 22.41117,-0.14961 22.48032,2.39624 0.0453,1.66675 1.72781,16.66751 3.73896,33.33503 3.07013,25.44376 3.22539,30.96599 0.96796,34.42814 -3.11036,4.77024 -3.06489,5.19982 35.51855,335.52556 13.38356,114.5811 24.33374,209.2811 24.33374,210.44443 0,1.18518 -6.88408,2.65794 -15.65737,3.34969 -8.61155,0.679 -21.3402,1.73815 -28.2859,2.35366 -9.47766,0.83988 -12.86302,0.44885 -13.56833,-1.56726 z" transform="scale(0.26458333)" style="opacity:1;vector-effect:none;fill:none;fill-opacity:1;stroke:#806600;stroke-width:5.38748026;stroke-linecap:butt;stroke-linejoin:miter;stroke-miterlimit:4;stroke-dasharray:none;stroke-dashoffset:0;stroke-opacity:1"/><path id="path1652" d="m 218.9985,930.37376 c -17.44183,-3.51877 -42.6959,-17.0045 -49.54237,-26.45577 -11.35942,-15.68125 -6.85221,-29.23647 14.66362,-44.10017 6.96047,-4.80847 13.02712,-9.03323 13.48145,-9.38834 1.97312,-1.54224 -0.8443,-29.99414 -16.07176,-162.30155 -50.45752,-438.41223 -46.03968,-395.17227 -40.5528,-396.91374 2.3544,-0.74726 4.28073,-2.26018 4.28073,-3.36205 0,-1.10186 -0.75603,-1.53614 -1.68007,-0.96505 -0.92404,0.57109 -3.30312,-13.19477 -5.28685,-30.59079 -1.98373,-17.39603 -4.25398,-33.03768 -5.045,-34.75922 -0.79102,-1.72155 -3.48906,-7.08032 -5.99565,-11.90839 -6.19497,-11.93242 -4.5177,-17.69579 6.57828,-22.60408 4.74267,-2.0979 14.93655,-4.7297 22.65306,-5.84843 16.90326,-2.45061 55.45103,-3.71757 55.44827,-1.82243 -10e-4,0.74408 4.53219,2.85887 10.07394,4.69955 10.25026,3.40459 18.20836,10.89594 18.20836,17.14043 0,4.81683 -5.36132,9.14572 -17.1726,13.86568 -6.29899,2.51717 -9.7974,5.04777 -9.29362,6.72261 0.44435,1.47724 2.43482,15.41381 4.42327,30.97016 4.06706,31.81796 5.38239,37.49442 9.37591,40.46261 2.02303,1.50363 8.05953,45.83268 21.87162,160.61425 34.34872,285.44554 47.59718,388.75471 50.05891,390.35048 1.2957,0.83993 3.60598,1.301 5.13395,1.0246 1.58508,-0.28674 40.40518,-87.26364 90.39585,-202.53306 150.00806,-345.89127 148.72155,-342.99491 155.04102,-349.04583 5.37437,-5.146 6.04409,-5.31792 8.36287,-2.14678 3.03777,4.15439 12.60474,-19.24995 -101.02616,247.1469 -48.10753,112.78353 -97.64252,229.1531 -110.07774,258.59905 l -22.6095,53.53809 5.74036,4.03584 c 11.60687,8.16039 24.29631,22.57897 25.59767,29.08576 3.35976,16.79886 -14.69126,34.24056 -45.11113,43.58835 -13.37631,4.11043 -76.11516,6.09061 -91.92389,2.90132 z m 47.47717,-13.40363 c -1.66675,-0.63448 -3.71231,-2.15369 -4.54568,-3.37603 -1.09546,-1.60677 -1.935,-1.5876 -3.03046,0.0693 -0.83338,1.26041 -3.3335,2.74594 -5.55584,3.30118 -2.22234,0.55522 0.50508,1.04318 6.06092,1.08436 5.55583,0.0412 8.73782,-0.44425 7.07106,-1.07872 z m -34.82332,-8.6563 c -3.43592,-6.94462 -3.61704,-8.61218 -1.26176,-11.61676 2.4284,-3.09785 2.37386,-3.21485 -0.46629,-1.00033 -1.76899,1.37932 -3.81758,1.90662 -4.55242,1.17179 -0.73484,-0.73484 0.0208,3.13687 1.67925,8.60382 1.65842,5.46694 3.02516,10.16718 3.03718,10.44497 0.0121,0.2778 1.27152,0.50508 2.79886,0.50508 2.15068,0 1.87218,-1.8288 -1.23482,-8.10857 z m 59.65184,4.06998 c 0.58086,-2.22124 0.17185,-4.58512 -0.90893,-5.25307 -2.39676,-1.48127 -2.83693,-1.0283 -4.61185,4.74597 -1.00431,3.26726 -0.57297,4.54569 1.53369,4.54569 1.61204,0 3.40622,-1.81736 3.98709,-4.03859 z m -70.18227,-11.57352 c -2.20242,-5.73938 -3.42079,-1.09244 -1.78795,6.81938 1.49624,7.24995 1.65374,7.39066 2.30124,2.05608 0.38229,-3.14957 0.1513,-7.14353 -0.51329,-8.87546 z m 79.69894,9.43196 c 0,-2.28792 -0.90914,-3.59796 -2.02031,-2.91122 -1.11116,0.68674 -2.0203,2.55867 -2.0203,4.15985 0,1.60117 0.90914,2.91122 2.0203,2.91122 1.11117,0 2.02031,-1.87194 2.02031,-4.15985 z m -87.49337,-5.39816 c -0.51224,-1.96569 -0.96503,-0.84657 -1.0062,2.48694 -0.0412,3.3335 0.37793,4.94179 0.93134,3.57398 0.55341,-1.36781 0.58709,-4.09522 0.0748,-6.06092 z m 95.54365,6.02247 c -0.017,-0.83337 -0.91223,-2.87893 -1.98936,-4.54568 -1.58367,-2.45055 -1.96436,-2.1606 -1.98937,1.51522 -0.017,2.50013 0.8782,4.54569 1.98937,4.54569 1.11116,0 2.00638,-0.68185 1.98936,-1.51523 z m -101.60457,-8.04277 c -0.51223,-1.9657 -0.96502,-0.84657 -1.00619,2.48693 -0.0412,3.33351 0.37793,4.94179 0.93133,3.57398 0.55341,-1.3678 0.5871,-4.09522 0.0749,-6.06091 z m 105.9034,0.89594 c -1.64991,-1.64992 -2.24758,-1.42383 -2.24758,0.85021 0,4.01608 2.71671,6.73279 3.72072,3.72073 0.42595,-1.27784 -0.23696,-3.33477 -1.47314,-4.57094 z m 7.823,3.10622 c -0.017,-0.83337 -0.91223,-2.87893 -1.98936,-4.54568 -1.58367,-2.45055 -1.96436,-2.1606 -1.98937,1.51522 -0.017,2.50013 0.8782,4.54569 1.98937,4.54569 1.11116,0 2.00638,-0.68185 1.98936,-1.51523 z m -123.84788,-4.92449 c -0.64493,-1.61166 -1.12366,-1.13295 -1.2206,1.22061 -0.0877,2.12972 0.38978,3.32297 1.06111,2.65165 0.67133,-0.67133 0.7431,-2.41386 0.1595,-3.87226 z m 60.74429,3.02676 c -1.94455,-0.50815 -5.12653,-0.50815 -7.07107,0 -1.94454,0.50817 -0.35355,0.92394 3.53553,0.92394 3.88909,0 5.48008,-0.41577 3.53554,-0.92394 z m 65.40145,-4.01166 c -1.76079,-3.02797 -2.15503,-3.11525 -2.20548,-0.48825 -0.0654,3.40236 2.05907,6.46579 3.49092,5.03394 0.47225,-0.47225 -0.10626,-2.51781 -1.28544,-4.54569 z m 10.35744,-1.50095 c 0.61224,0.61226 1.79925,0.004 2.63777,-1.3537 0.97425,-1.57636 0.68264,-1.9465 -0.80784,-1.02533 -1.28285,0.79285 -2.33246,0.47876 -2.33246,-0.69799 0,-1.17675 1.06066,-2.13954 2.35703,-2.13954 1.29635,0 1.7729,-0.58414 1.05896,-1.29805 -0.71391,-0.71394 -2.68371,-0.14809 -4.37731,1.25752 -1.69362,1.40556 -3.07929,1.80787 -3.07929,0.89398 0,-0.91386 -1.02985,-0.63173 -2.28856,0.62698 -1.25871,1.25871 -1.64835,3.94067 -0.86586,5.9599 1.34425,3.46893 1.56499,3.47814 4.00356,0.16729 1.41946,-1.92727 3.08177,-3.00321 3.694,-2.39098 z m -147.9848,-2.18611 c -3.01686,-3.21129 -3.75827,-5.05076 -2.03575,-5.05076 1.49005,0 2.16358,-0.5456 1.49673,-1.21247 -0.66685,-0.66684 -2.25045,-0.57093 -3.51911,0.21315 -1.5781,0.97532 -0.8712,2.95356 2.23806,6.26322 2.49959,2.66069 4.99928,4.83763 5.55486,4.83763 0.55559,0 -1.12507,-2.27285 -3.73479,-5.05077 z m 88.69761,-0.23593 c -1.67997,-2.02426 -7.12366,-2.72446 -19.74954,-2.54031 l -17.43029,0.25424 15.52311,2.27114 c 8.53771,1.24914 16.12697,2.89037 16.86503,3.6472 0.73806,0.7568 2.63995,0.87792 4.22643,0.26914 2.21322,-0.84929 2.34477,-1.75724 0.56526,-3.90141 z m 12.31764,0.28781 c 0,-0.52705 -2.72741,-2.36866 -6.06091,-4.09249 -6.45079,-3.33582 -7.65187,-2.64664 -3.53553,2.02873 2.34507,2.66355 9.59644,4.22299 9.59644,2.06376 z m 54.54824,-8.95411 c 0,-2.9452 -1.02108,-3.58444 -4.33933,-2.7167 -4.15144,1.08563 -4.17846,1.25238 -0.62401,3.85147 4.77794,3.49371 4.96334,3.45132 4.96334,-1.13477 z m -108.08632,-0.18914 c 0.68674,-1.11117 0.28582,-2.02031 -0.89092,-2.02031 -1.17675,0 -2.13954,0.90914 -2.13954,2.02031 0,1.11117 0.40092,2.0203 0.89092,2.0203 0.49001,0 1.4528,-0.90913 2.13954,-2.0203 z m 85.86297,0 c 0,-1.11117 -0.40092,-2.02031 -0.89092,-2.02031 -0.49001,0 -1.4528,0.90914 -2.13954,2.02031 -0.68674,1.11117 -0.28583,2.0203 0.89092,2.0203 1.17674,0 2.13954,-0.90913 2.13954,-2.0203 z m -34.34519,-0.7778 c 0,-0.42778 -2.27284,-2.26702 -5.05076,-4.08718 -2.77792,-1.82017 -5.05077,-2.51823 -5.05077,-1.55125 0,0.96698 2.04556,2.74469 4.54569,3.95047 5.48326,2.64446 5.55584,2.66652 5.55584,1.68796 z m -95.96449,-3.26281 c 1.58024,-2.5569 -1.09426,-2.5569 -5.05077,0 -2.61162,1.68776 -2.55829,1.96271 0.38585,1.98937 1.87897,0.017 3.97818,-0.8782 4.66492,-1.98937 z m 7.64369,-8.08122 c 0.47221,-2.77792 0.44447,-3.78238 -0.0616,-2.23213 -0.70362,2.1552 -1.28133,2.23431 -2.4545,0.33607 -0.88831,-1.43732 -1.44012,0.0942 -1.31062,3.63768 0.25294,6.92084 2.53047,5.8843 3.82676,-1.74162 z m 13.56951,6.06091 c 0,-1.11116 -1.59099,-2.00638 -3.53553,-1.98937 -3.02146,0.0265 -3.0949,0.31569 -0.50508,1.98937 3.81275,2.46399 4.04061,2.46399 4.04061,0 z m 14.12919,-2.0203 c 3.45549,0 18.19569,-10.92884 18.19569,-13.49085 0,-1.62578 -2.38955,-2.67159 -6.10423,-2.67159 -4.52995,0 -6.69028,1.28625 -8.37664,4.9874 -1.24983,2.74309 -3.04861,4.50771 -3.9973,3.9214 -0.94868,-0.58634 -1.72488,-0.10326 -1.72488,1.07349 0,3.8386 -5.56132,2.24787 -6.6463,-1.90107 -1.15675,-4.42344 -5.3898,-5.56523 -5.61753,-1.51523 -0.0781,1.38896 -0.92333,0.70711 -1.8783,-1.51523 -1.65675,-3.85547 -1.74282,-3.83232 -1.87831,0.50508 -0.10031,3.21107 1.01664,4.54568 3.80429,4.54568 2.17046,0 5.57973,2.1887 7.57615,4.86377 1.99642,2.67508 3.93289,4.03879 4.30328,3.03046 0.37039,-1.00832 1.42523,-1.83331 2.34408,-1.83331 z m 66.68301,0 c -1.18935,-2.22234 -3.72147,-4.01037 -5.62692,-3.9734 -2.84848,0.0552 -2.61644,0.77368 1.30506,4.04061 6.03378,5.02665 7.03965,5.01101 4.32186,-0.0672 z m 44.35207,0.89611 c -2.96159,-3.56849 -3.25595,-3.58799 -4.51799,-0.29917 -0.59494,1.55038 0.61451,2.73919 2.96702,2.91641 3.24178,0.24419 3.5267,-0.23662 1.55097,-2.61724 z M 186.7567,879.9225 c 2.17439,-3.51824 -0.30208,-4.26333 -3.07302,-0.92457 -1.59351,1.92007 -1.74677,3.07928 -0.40712,3.07928 1.18164,0 2.74771,-0.96962 3.48014,-2.15471 z m 122.14538,-1.8859 c -1.66675,-1.07714 -3.93959,-1.95842 -5.05076,-1.95842 -1.11117,0 -0.6566,0.88128 1.01015,1.95842 1.66675,1.07715 3.9396,1.95843 5.05076,1.95843 1.11117,0 0.6566,-0.88128 -1.01015,-1.95843 z m 16.05138,-3.03045 c 0.14122,3.29754 0.51916,3.4931 2.05567,1.06347 1.24167,-1.96348 1.05918,-3.50067 -0.53603,-4.51474 -4.05983,-2.58088 -5.45564,-1.80601 -5.30718,2.94619 0.13556,4.33739 0.22154,4.36055 1.8783,0.50508 l 1.73631,-4.04061 z m -15.04123,-1.01016 c -0.68674,-1.11116 -2.33138,-2.00638 -3.65476,-1.98937 -1.44577,0.0182 -1.19658,0.81263 0.62431,1.98937 3.88125,2.50827 4.58064,2.50827 3.03045,0 z m 8.45117,-4.41941 c -0.64493,-1.61166 -1.12366,-1.13295 -1.2206,1.2206 -0.0877,2.12973 0.38977,3.32298 1.0611,2.65165 0.67133,-0.67132 0.74311,-2.41386 0.15951,-3.87225 z m -3.4004,-0.63135 c 0,-1.66675 -0.90914,-3.03046 -2.02031,-3.03046 -1.11117,0 -2.0203,1.36371 -2.0203,3.03046 0,1.66675 0.90913,3.03046 2.0203,3.03046 1.11117,0 2.02031,-1.36371 2.02031,-3.03046 z m -25.25382,-1.01015 c 0.68674,-1.11117 -0.67696,-2.02031 -3.03046,-2.02031 -2.35349,0 -3.71719,0.90914 -3.03045,2.02031 0.68674,1.11117 2.05044,2.0203 3.03045,2.0203 0.98002,0 2.34372,-0.90913 3.03046,-2.0203 z m -66.94962,-3.03046 c 0.63959,-1.66675 0.37956,-3.03046 -0.57786,-3.03046 -0.95741,0 -2.26405,1.36371 -2.90364,3.03046 -0.63959,1.66675 -0.37956,3.03046 0.57785,3.03046 0.95742,0 2.26405,-1.36371 2.90365,-3.03046 z m 28.4759,-25.33594 c 12.17449,-1.15446 22.42199,-2.38559 22.77223,-2.73583 0.35024,-0.35024 -5.72009,-55.54415 -13.48961,-122.65311 -51.30264,-443.12458 -47.24446,-405.42979 -45.58011,-423.37449 1.16486,-12.55942 -0.6623,-39.34088 -4.14683,-60.7815 l -1.0671,-6.56599 -19.60643,-0.0887 c -10.78354,-0.0488 -26.42496,-0.87914 -34.75872,-1.84521 -8.33375,-0.96608 -15.45747,-1.45434 -15.83048,-1.08503 -0.97642,0.96672 5.54178,53.20123 7.68787,61.6078 0.99284,3.88909 3.17577,10.78734 4.85096,15.32945 3.51776,9.53801 10.89131,66.49841 41.56024,321.05135 12.18265,101.11627 23.24796,192.71185 24.58958,203.54574 2.81684,22.74657 -0.82659,20.80498 33.0184,17.59554 z m 26.81488,0.88182 c -0.67133,-0.67132 -2.41385,-0.74308 -3.87225,-0.1594 -1.61167,0.64492 -1.13294,1.12366 1.2206,1.22059 2.12974,0.0877 3.32298,-0.38978 2.65165,-1.0611 z M 216.47312,203.16033 c 6.71109,-1.87426 10.63501,-5.96654 5.72108,-5.96654 -1.02029,0 -3.17365,-0.50599 -4.78525,-1.12442 -1.86988,-0.71754 -3.43214,0.56183 -4.31736,3.53554 l -1.38716,4.65995 -2.20116,-4.50899 c -1.39097,-2.84934 -4.81337,-4.99904 -9.29815,-5.84039 -10.02286,-1.8803 -50.7217,0.44899 -57.97821,3.31823 l -6.06091,2.3965 5.05076,1.96361 c 14.2092,5.52419 57.83376,6.43226 75.25636,1.56651 z" transform="scale(0.26458333)" style="opacity:1;vector-effect:none;fill:none;fill-opacity:1;stroke:#806600;stroke-width:5.38748026;stroke-linecap:butt;stroke-linejoin:miter;stroke-miterlimit:4;stroke-dasharray:none;stroke-dashoffset:0;stroke-opacity:1"/><path id="path1654" d="m 226.06957,932.6089 c -24.56824,-2.66928 -53.29389,-18.00984 -60.62218,-32.37448 -8.27789,-16.22602 -2.98326,-26.99315 22.00924,-44.75792 l 8.86423,-6.30072 -1.31148,-18.65734 c -1.40689,-20.01472 -7.48152,-74.4763 -34.47307,-309.06568 -25.05532,-217.76112 -26.01984,-227.78054 -22.2014,-230.62796 2.63018,-1.96133 2.80658,-4.21678 1.10605,-14.14214 -1.11276,-6.49476 -3.07507,-20.44545 -4.36069,-31.00155 -1.5307,-12.56836 -4.36413,-23.84795 -8.20914,-32.67972 -8.70169,-19.98726 -4.60594,-26.0852 21.5091,-32.02372 15.37492,-3.49623 63.86357,-5.51328 64.94255,-2.70151 0.4858,1.26598 3.32528,2.79252 6.30995,3.39232 8.18502,1.64486 19.27708,9.92166 21.40493,15.97218 2.42487,6.89508 -0.38503,10.37445 -13.83103,17.12637 -5.62564,2.82491 -10.52485,5.39901 -10.88713,5.72022 -1.76203,1.56225 8.42397,63.32618 11.62717,70.5026 4.26297,9.55072 7.70196,34.71092 31.50056,230.46291 26.26604,216.04748 37.76556,305.8299 40.69078,317.69297 1.4697,5.96031 4.35555,5.77642 6.7144,-0.42786 1.04002,-2.73543 14.5519,-33.41881 30.02641,-68.1853 15.47453,-34.76646 54.96078,-125.03308 87.74729,-200.59249 118.37757,-272.81178 119.47639,-275.23342 127.17539,-280.278 4.61854,-3.02618 5.51952,-3.07342 7.73371,-0.40547 4.28957,5.1686 14.5349,-19.88674 -146.44531,358.13716 -47.47846,111.49191 -86.02534,202.91213 -85.6597,203.15602 17.82044,11.88709 29.9592,26.87117 29.9592,36.98164 0,19.08801 -24.18933,38.02711 -54.6575,42.79425 -17.62287,2.75731 -60.53549,4.03537 -76.66233,2.28322 z m 11.16678,-66.30231 c -0.65323,-0.65322 -3.66027,1.4007 -6.68231,4.5643 l -5.49462,5.75199 6.68231,-4.5643 c 3.67527,-2.51037 6.14785,-5.09876 5.49462,-5.75199 z m 26.71394,-29.95724 c 9.67574,-1.34993 9.52131,-0.82172 6.7134,-22.96251 -1.3761,-10.85071 -16.39425,-139.69911 -52.86531,-453.55849 -2.45327,-21.11219 -4.38187,-48.38631 -4.28577,-60.60915 0.17086,-21.73231 -2.67399,-63.17751 -4.81901,-70.20561 -0.90795,-2.97488 -3.70055,-3.55832 -17.61044,-3.67927 -9.09225,-0.0791 -23.80447,-0.84015 -32.69381,-1.6913 -8.88934,-0.85116 -16.47093,-1.31136 -16.84797,-1.02267 -1.61986,1.24026 6.51364,55.45564 9.97606,66.49732 5.51002,17.57154 12.8236,72.2762 43.14343,322.70762 14.89675,123.04197 27.72745,224.75221 28.51269,226.02276 1.3864,2.24324 18.45167,1.61602 40.77673,-1.4987 z M 207.7975,201.99716 c 0.60122,-0.60122 -0.72372,-2.47657 -2.94431,-4.16744 -3.33846,-2.54208 -8.7289,-2.87605 -31.13655,-1.92911 -14.90451,0.62986 -27.96939,2.01548 -29.03307,3.07916 -1.83825,1.83825 1.82224,2.65351 22.79715,5.07739 8.62681,0.99691 38.80166,-0.54488 40.31678,-2.06 z m 12.21116,-1.65368 c 0,-0.49001 -0.90914,-1.4528 -2.02031,-2.13954 -1.11117,-0.68674 -2.0203,-0.28582 -2.0203,0.89092 0,1.17675 0.90913,2.13954 2.0203,2.13954 1.11117,0 2.02031,-0.40091 2.02031,-0.89092 z" transform="scale(0.26458333)" style="opacity:1;vector-effect:none;fill:none;fill-opacity:1;stroke:#806600;stroke-width:5.38748026;stroke-linecap:butt;stroke-linejoin:miter;stroke-miterlimit:4;stroke-dasharray:none;stroke-dashoffset:0;stroke-opacity:1"/><path id="path1656" d="m 209.90713,930.79538 c -24.55841,-7.93992 -40.22583,-18.653 -46.63176,-31.88587 -3.82077,-7.89269 -4.10409,-10.12405 -2.1244,-16.73166 2.20428,-7.35725 13.80842,-19.91613 27.43799,-29.6955 l 5.95594,-4.27345 -2.33008,-27.00748 c -1.28154,-14.85411 -12.41589,-115.19379 -24.743,-222.97707 -34.19331,-298.97248 -34.7671,-304.83728 -30.2648,-309.33958 3.02564,-3.02564 -5.38942,-57.40785 -11.32226,-73.16994 -2.67908,-7.11766 -4.87105,-15.14921 -4.87105,-17.84789 0,-12.80136 20.03573,-19.8312 63.07922,-22.13229 23.80713,-1.27272 25.93375,-1.07231 35.17314,3.31467 29.00145,13.77027 31.80577,25.69152 8.78747,37.35578 -6.25515,3.16973 -10.06111,6.42586 -10.05443,8.60192 0.0206,6.69172 8.15678,52.05414 11.28514,62.91886 5.60578,19.46875 6.33531,24.98895 47.28274,357.77564 14.61109,118.74676 24.08617,190.02319 25.58244,192.4442 0.72038,1.1656 2.44329,-0.12546 3.91441,-2.93318 3.79095,-7.23528 61.02192,-137.60843 127.5347,-290.52628 77.05622,-177.15797 102.98099,-235.70997 108.90291,-245.96089 2.72457,-4.71627 7.51572,-9.89988 10.64697,-11.51912 5.34298,-2.76296 5.84515,-2.6602 8.16284,1.67046 3.5822,6.69342 8.53975,-5.59341 -115.03516,285.10398 -45.34611,106.67211 -89.20492,210.08116 -97.46402,229.79788 -8.25909,19.71675 -15.66535,35.1998 -16.45836,34.40679 -0.79301,-0.79303 -0.88693,0.004 -0.20872,1.7716 0.67822,1.76741 -0.24781,4.69439 -2.05784,6.50442 -1.81001,1.81003 -2.41519,3.29095 -1.34484,3.29095 3.95417,0 22.04167,18.21477 26.57706,26.76406 3.55115,6.69399 4.36109,10.5552 3.34744,15.95834 -3.35122,17.86364 -31.02003,36.38269 -59.86627,40.06922 -26.32067,3.36375 -76.11006,2.38436 -88.89342,-1.74857 z m 55.00999,-96.59073 c 3.07954,-0.61591 5.59916,-2.28183 5.59916,-3.70203 0,-1.42021 -12.76415,-111.99403 -28.36478,-245.7196 -23.06491,-197.70789 -28.74097,-251.81965 -30.37812,-289.60443 -1.10733,-25.55686 -2.67147,-51.01271 -3.47586,-56.56855 l -1.46252,-10.10152 -31.80289,-2.02031 c -27.82247,-1.76744 -31.8009,-1.64101 -31.78705,1.01016 0.0353,6.77116 6.28868,44.5456 10.05669,60.74944 5.69905,24.50806 11.73794,67.95602 29.32462,210.98159 8.47113,68.8924 21.25675,172.24743 28.41248,229.67786 7.15573,57.43042 13.01042,105.51245 13.01042,106.84892 0,1.8168 4.44992,2.06892 17.63434,0.99915 9.69889,-0.78697 20.15397,-1.93477 23.23351,-2.55068 z M 191.37294,201.9625 c 6.79971,-0.71071 11.87967,-2.07441 11.28881,-3.03045 -1.30188,-2.10649 -31.97573,-2.31495 -41.49448,-0.28201 l -6.81853,1.45625 7.07107,1.30825 c 10.23519,1.89366 16.05888,2.0002 29.95313,0.54796 z" transform="scale(0.26458333)" style="opacity:1;vector-effect:none;fill:none;fill-opacity:1;stroke:#806600;stroke-width:5.38748026;stroke-linecap:butt;stroke-linejoin:miter;stroke-miterlimit:4;stroke-dasharray:none;stroke-dashoffset:0;stroke-opacity:1"/><path id="path1658" d="m 220.81124,934.50397 c -13.55093,-1.76853 -35.0663,-10.69125 -46.13233,-19.13172 -3.90412,-2.97783 -9.43764,-10.19547 -12.29672,-16.03921 -5.0814,-10.38602 -5.12324,-10.81263 -1.86006,-18.96809 3.25759,-8.14153 24.98193,-30.61262 29.5953,-30.61262 3.91922,0 2.20838,-16.54464 -41.0516,-396.98995 -11.28357,-99.23223 -14.35419,-132.60516 -14.77798,-160.61425 -0.55236,-36.50667 -3.05097,-53.79438 -11.73922,-81.22294 -3.54763,-11.19976 -3.87489,-14.4533 -1.89162,-18.8061 4.92935,-10.81874 30.47714,-17.32526 70.05722,-17.84218 24.1282,-0.31512 24.29959,-0.2841 35.98702,6.51367 21.90055,12.73803 23.33386,22.99625 4.92416,35.24231 -8.29597,5.51844 -11.5998,8.98361 -11.55745,12.12183 0.0626,4.63734 7.04183,41.79647 13.93049,74.16912 2.25494,10.59689 16.86619,121.80769 32.46943,247.13509 27.65092,222.09598 35.5249,281.9357 37.33677,283.74757 1.13549,1.13549 -5.77885,16.72815 117.62166,-265.25085 58.34408,-133.32041 109.92067,-250.14455 114.61465,-259.60921 5.9217,-11.9402 10.63683,-18.63236 15.4017,-21.85952 6.45251,-4.37019 7.02274,-4.43837 9.44254,-1.12909 6.74293,9.2215 14.55286,-10.44 -141.93175,357.31323 -43.0265,101.11627 -80.22924,188.56849 -82.67272,194.33828 l -4.44273,10.49053 12.70382,13.27882 c 7.95299,8.31295 13.59071,16.23897 15.07537,21.19436 2.11423,7.05664 1.848,8.97132 -2.4535,17.6455 -8.90552,17.95841 -32.39902,31.11513 -62.40375,34.94704 -17.75477,2.26747 -56.34907,2.23531 -73.9487,-0.0616 z m 37.58321,-100.93064 c 11.17978,-0.10021 11.84207,10.35665 -12.99736,-205.21338 -29.03464,-251.97833 -32.78599,-287.48666 -35.41307,-335.20167 -1.16239,-21.11219 -2.65607,-43.93536 -3.31928,-50.71815 l -1.20585,-12.33236 -21.32367,-1.3047 c -11.72802,-0.71759 -25.35868,-1.3047 -30.29034,-1.3047 h -8.96667 l 1.37432,10.6066 c 0.75587,5.83363 4.02972,24.33416 7.27521,41.11228 3.2455,16.77813 8.16326,46.07353 10.92836,65.1009 4.87147,33.5218 34.84252,272.73251 51.4296,410.47984 4.48241,37.22413 8.67221,70.76034 9.31069,74.52494 l 1.16085,6.84469 13.49322,-1.27449 c 7.42128,-0.70098 15.76607,-1.29489 18.54399,-1.3198 z" transform="scale(0.26458333)" style="opacity:1;vector-effect:none;fill:none;fill-opacity:1;stroke:#806600;stroke-width:5.38748026;stroke-linecap:butt;stroke-linejoin:miter;stroke-miterlimit:4;stroke-dasharray:none;stroke-dashoffset:0;stroke-opacity:1"/><path id="path1660" d="m 226.06957,936.7161 c -26.9678,-2.93912 -51.99114,-15.83715 -62.50117,-32.21562 -11.02195,-17.17621 -7.42348,-28.22328 16.0756,-49.35098 l 10.84815,-9.75341 -5.50604,-53.88535 C 181.95778,761.87381 170.89939,661.71244 160.41188,568.92993 138.44454,374.58569 133.9283,329.43915 132.11767,286.08721 c -1.38332,-33.1208 -4.15343,-51.71354 -11.01414,-73.92594 -6.34711,-20.54956 -3.04813,-26.70007 17.92049,-33.4104 10.43377,-3.33899 20.27904,-4.46663 45.6293,-5.22621 l 32.32488,-0.96856 12.48218,8.14064 c 23.08488,15.0555 22.77159,20.77781 -2.26464,41.36397 l -5.94491,4.88823 8.45452,44.21635 c 9.35771,48.94 12.25003,70.11455 45.77825,335.14028 27.70801,219.01954 27.73264,219.2031 29.42132,219.2031 1.72073,0 -2.78262,10.0228 67.62699,-150.51273 113.86222,-259.60843 148.83333,-338.94147 158.71495,-360.04987 13.72203,-29.312 26.82597,-40.48019 32.60766,-27.79076 4.177,9.16749 1.85836,14.95067 -134.84138,336.32285 -50.80981,119.45054 -92.82286,218.79521 -93.36236,220.76591 -0.64844,2.36871 2.5651,7.33244 9.48163,14.64566 5.7544,6.08443 12.26378,15.13459 14.46531,20.11151 l 4.00277,9.04893 -4.37081,10.16021 c -7.20203,16.74152 -25.33958,29.37031 -50.79397,35.36667 -15.42475,3.63366 -61.66007,5.39573 -82.36614,3.13905 z m 37.18247,-107.23013 c 2.48701,-2.4129 -0.45471,-33.07725 -17.14648,-178.73369 -31.28248,-272.97857 -33.37852,-292.89487 -38.1295,-362.30125 -2.07875,-30.36819 -4.16101,-55.59635 -4.62726,-56.0626 -0.46624,-0.46624 -13.27298,-1.44362 -28.45942,-2.17195 -24.43605,-1.17193 -27.61171,-0.95514 -27.61171,1.88494 0,1.76505 2.27556,15.52991 5.05679,30.58858 13.03208,70.56062 18.46244,110.86317 54.46518,404.22472 10.6367,86.67109 19.82416,159.74276 20.41658,162.38148 1.05966,4.71988 1.34581,4.77471 17.64291,3.38007 9.11118,-0.7797 17.38799,-2.21533 18.39291,-3.1903 z" transform="scale(0.26458333)" style="opacity:1;vector-effect:none;fill:none;fill-opacity:1;stroke:#806600;stroke-width:5.38748026;stroke-linecap:butt;stroke-linejoin:miter;stroke-miterlimit:4;stroke-dasharray:none;stroke-dashoffset:0;stroke-opacity:1"/><path id="path1662" d="m 304.86147,810.68909 c 0,-2.84249 -26.0568,-208.11923 -46.58743,-367.01808 C 244.19836,334.73092 240.50967,309.57973 231.82639,263.33852 l -6.35838,-33.86037 12.42261,-12.93686 c 7.54657,-7.85896 12.42261,-14.68478 12.42261,-17.39001 0,-2.49827 -3.53165,-7.98481 -8.04493,-12.4981 l -8.04494,-8.04494 14.61093,1.35331 c 44.1682,4.09099 83.63945,15.39779 112.18625,32.13651 14.03898,8.2319 24.01417,16.72629 49.50045,42.1522 30.03369,29.96253 33.07093,32.40345 51.43716,41.3381 25.2643,12.29036 37.28441,13.57521 54.26637,5.8006 6.44061,-2.9486 14.76295,-7.68955 18.49411,-10.53545 3.73116,-2.84589 7.12428,-4.83397 7.54031,-4.41796 0.41602,0.41601 -2.05332,5.27058 -5.48742,10.78792 -6.8001,10.92535 -30.74211,64.6177 -150.20348,336.84645 -43.27186,98.60796 -79.35797,179.29389 -80.19134,179.30207 -0.83338,0.008 -1.51523,-1.19913 -1.51523,-2.6829 z" transform="scale(0.26458333)" style="opacity:1;vector-effect:none;fill:none;fill-opacity:1;stroke:#806600;stroke-width:5.38748026;stroke-linecap:butt;stroke-linejoin:miter;stroke-miterlimit:4;stroke-dasharray:none;stroke-dashoffset:0;stroke-opacity:1"/><path id="path1664" d="m 210.32293,935.50091 c -35.48324,-9.55081 -60.76165,-36.26494 -52.84313,-55.84445 1.48379,-3.66885 9.0145,-13.23522 16.73491,-21.25864 l 14.03712,-14.58801 -1.3783,-15.71656 c -0.75807,-8.6441 -11.74388,-109.3577 -24.41291,-223.80799 -22.89945,-206.87045 -29.28236,-270.34665 -33.22491,-330.4121 -1.39892,-21.31266 -3.70082,-37.71642 -7.16205,-51.03796 -6.03439,-23.22512 -6.41191,-31.95253 -1.56503,-36.18036 11.04318,-9.63274 27.19648,-13.33003 65.39717,-14.9686 27.48038,-1.17874 32.17105,-0.92355 36.30994,1.97544 3.02918,2.12172 8.8221,3.32906 15.97312,3.32906 29.20545,0 72.00764,8.85486 100.11626,20.71193 19.2354,8.11409 44.13184,23.74785 47.32784,29.71961 1.24506,2.32643 2.96389,3.79716 3.81961,3.26829 0.85572,-0.52887 13.53734,11.22007 28.18134,26.10875 23.48279,23.87512 28.59299,28.03211 43.29457,35.21872 24.71128,12.0797 33.19703,13.82987 46.5881,9.60871 5.9939,-1.88941 16.48765,-7.04806 23.31945,-11.46366 9.09204,-5.87648 12.42144,-7.19103 12.42144,-4.9044 0,2.64255 0.85619,2.53076 5.55584,-0.72546 9.95364,-6.89649 12.01716,-6.842 15.4576,0.40819 5.65685,11.92093 8.98692,3.48173 -137.17252,347.62812 -95.22821,224.22394 -90.62917,212.83291 -87.54167,216.8257 1.44069,1.86315 5.99992,7.33106 10.13156,12.15093 4.13167,4.81986 9.46675,12.80109 11.85574,17.73607 l 4.34361,8.97272 -5.46407,11.16819 c -9.42129,19.25642 -30.59797,32.35422 -60.03381,37.13101 -19.05041,3.09147 -77.19444,2.41151 -90.06682,-1.05325 z m 50.92035,-108.03957 c 2.36054,-2.2999 -0.96349,-35.61853 -22.06356,-221.15577 -23.30457,-204.92193 -26.66877,-237.13505 -32.25131,-308.81455 -2.67023,-34.28553 -5.22552,-62.70789 -5.67843,-63.16081 -1.40173,-1.40172 -51.952,-3.49214 -51.952,-2.14838 0,0.69653 4.03018,25.15625 8.95595,54.35494 10.87075,64.43899 16.425,106.20342 46.55619,350.07338 12.90522,104.44977 23.89308,191.161 24.41747,192.6916 0.75372,2.19998 4.01428,2.48633 15.56523,1.36698 8.03648,-0.77876 15.43919,-2.22211 16.45046,-3.20739 z m 50.61099,-18.62019 c 1.73962,-4.16687 2.71466,-7.57614 2.16675,-7.57614 -1.15933,0 -9.15955,15.28167 -9.15955,17.49617 0,3.00758 3.91339,-2.54397 6.9928,-9.92003 z m -0.0734,-11.11167 C 317.84114,785.07152 369.24296,669.08667 419.44709,554.78779 483.47181,409.02381 522.15225,322.21471 530.37457,305.83724 l 6.82035,-13.585 -14.41556,7.52409 c -18.5435,9.67862 -32.45837,10.11477 -52.14864,1.63454 -21.3039,-9.17518 -31.77437,-17.08921 -65.9323,-49.83441 -27.62369,-26.48122 -35.19266,-32.56585 -50.50763,-40.60271 -28.31845,-14.86072 -63.8743,-24.9664 -101.54558,-28.86129 l -12.82032,-1.32552 6.44766,8.02325 c 8.03702,10.00099 7.33783,12.6732 -7.51307,28.71393 l -11.25065,12.15205 7.34397,40.83243 c 4.03919,22.45783 10.07262,60.37888 13.40763,84.26899 7.46796,53.49616 51.4043,396.51364 54.79589,427.7996 1.35515,12.50064 3.05644,22.72843 3.78065,22.72843 0.72421,0 2.94899,-3.40926 4.94395,-7.57614 z" transform="scale(0.26458333)" style="opacity:1;vector-effect:none;fill:none;fill-opacity:1;stroke:#806600;stroke-width:5.38748026;stroke-linecap:butt;stroke-linejoin:miter;stroke-miterlimit:4;stroke-dasharray:none;stroke-dashoffset:0;stroke-opacity:1"/><path id="path1666" d="m 218.79094,938.68285 c -32.62465,-4.62371 -63.50061,-29.08057 -63.79668,-50.53339 -0.13218,-9.57747 5.16151,-18.17185 20.49641,-33.27616 7.63116,-7.5164 10.1728,-11.50162 10.1728,-15.95063 0,-3.26192 -9.51348,-92.84613 -21.14106,-199.076 -25.7168,-234.94929 -30.14382,-277.86029 -35.35009,-342.64701 -2.62467,-32.66143 -5.99878,-59.86934 -9.54954,-77.00493 -5.2491,-25.33162 -5.3385,-26.73051 -2.03091,-31.77853 7.26221,-11.08354 26.92323,-16.3542 69.37601,-18.59812 21.542,-1.13864 28.21978,-0.81131 35.35533,1.73303 4.83842,1.72525 16.63024,3.65089 26.20404,4.2792 47.18329,3.09654 91.06339,16.86802 124.78175,39.16191 5.97788,3.95245 25.11981,20.91526 42.53765,37.69515 26.14194,25.18448 34.29375,31.80095 46.70984,37.91241 23.27474,11.45631 31.36428,13.0494 44.52691,8.76874 6.00615,-1.95327 16.13786,-6.70956 22.51495,-10.56953 6.37707,-3.85997 12.55373,-6.4254 13.72589,-5.70096 1.17218,0.72444 4.3321,-0.12492 7.02206,-1.88744 6.65585,-4.36108 10.28822,-4.02778 14.00982,1.28554 8.22953,11.74933 8.97305,9.80738 -121.97022,318.57465 -90.41029,213.18958 -101.15894,239.08179 -101.15894,243.67994 0,1.82741 3.9961,8.47331 8.88021,14.76868 4.88413,6.29537 10.84413,15.37296 13.24446,20.1724 l 4.36424,8.72626 -4.55231,9.4038 c -8.70594,17.98407 -26.49346,31.3119 -50.9005,38.13871 -12.48312,3.49161 -75.16314,5.3171 -93.47212,2.72228 z m 40.23882,-113.00601 c 2.2145,-2.20825 -0.428,-29.71804 -16.99673,-176.94486 C 218.52121,439.81021 212.3115,381.06767 205.96156,307.5037 c -3.34735,-38.77906 -6.47564,-70.89693 -6.95175,-71.37305 -0.47612,-0.47611 -11.5045,-1.38961 -24.50754,-2.03001 l -23.64187,-1.16436 1.23536,5.86734 c 2.81342,13.3624 15.70578,95.75127 21.30923,136.17702 6.56983,47.39765 56.70519,447.082 56.70519,452.05973 0,2.57718 2.17752,2.84418 13.63706,1.67208 7.50038,-0.76713 14.37751,-2.13316 15.28252,-3.03561 z m 72.73977,-76.93976 c 11.63037,-26.11244 53.63389,-121.11729 93.34115,-211.12188 39.70723,-90.0046 79.8075,-180.38723 89.11169,-200.85029 9.30418,-20.46307 16.59978,-37.52248 16.21247,-37.9098 -0.38732,-0.38732 -5.91281,1.68036 -12.27885,4.59483 -17.24379,7.89447 -33.38492,6.55638 -55.96807,-4.63972 -17.3102,-8.58191 -26.75203,-16.149 -69.4296,-55.64388 -27.01843,-25.0035 -42.5493,-34.41688 -74.04578,-44.87966 -20.49033,-6.80666 -69.60155,-16.72653 -71.82109,-14.50698 -0.56703,0.56703 0.42547,3.11032 2.20556,5.65175 5.92056,8.45279 4.11248,14.66712 -8.10791,27.86659 l -11.34444,12.25335 10.26685,62.10802 c 5.64678,34.15941 17.09738,114.83799 25.44579,179.28572 15.20826,117.40413 41.52448,325.09252 41.52448,327.71252 0,4.51493 6.02561,-7.5714 24.88775,-49.92057 z" transform="scale(0.26458333)" style="opacity:1;vector-effect:none;fill:none;fill-opacity:1;stroke:#806600;stroke-width:5.38748026;stroke-linecap:butt;stroke-linejoin:miter;stroke-miterlimit:4;stroke-dasharray:none;stroke-dashoffset:0;stroke-opacity:1"/><path id="path1668" d="m 228.08988,940.4671 c -10.5561,-0.73153 -23.18426,-2.80897 -28.06258,-4.61652 -25.80208,-9.5604 -46.68871,-30.91388 -46.68871,-47.73229 0,-8.70828 4.30345,-16.14309 18.25508,-31.53815 6.62722,-7.31288 12.04949,-14.97111 12.04949,-17.01831 0,-4.90948 -4.76534,-50.04722 -25.26552,-239.31718 -21.27909,-196.46133 -24.24311,-225.07186 -29.30226,-282.84271 -4.92027,-56.18501 -6.90092,-72.70481 -12.12822,-101.15644 -2.20807,-12.01827 -4.01467,-22.51542 -4.01467,-23.32701 0,-0.81158 2.3405,-4.25713 5.20113,-7.65679 7.43345,-8.83416 24.92706,-13.62125 60.16961,-16.46531 25.30087,-2.04176 31.36985,-1.92887 44.10778,0.82046 8.12363,1.75339 23.54827,4.12421 34.27697,5.26849 35.40156,3.77578 61.72305,10.63469 89.91726,23.43081 20.99125,9.52701 34.77779,19.68668 64.32225,47.40081 35.71936,33.50647 40.21405,37.01875 58.46508,45.68613 21.85411,10.37847 29.36463,10.25313 52.68103,-0.87913 10.01663,-4.78238 19.56258,-8.8948 21.21321,-9.1387 1.65061,-0.24391 6.08804,-1.72366 9.86096,-3.28834 6.57907,-2.72843 7.05455,-2.61852 11.61676,2.68537 2.61629,3.04163 4.75691,7.20206 4.75691,9.24538 0,13.05608 -14.7753,49.85714 -117.65475,293.04439 -89.67256,211.96869 -108.61942,257.55045 -108.61942,261.31317 0,1.40676 4.16003,8.41738 9.24453,15.57918 5.08448,7.16178 11.02939,16.46409 13.2109,20.67178 l 3.96638,7.65035 -6.51159,12.21699 c -10.73454,20.14006 -32.88961,34.52624 -58.75392,38.15128 -17.9816,2.52023 -53.81744,3.37126 -76.31369,1.81229 z m 28.66199,-116.20203 c 2.42691,-1.49991 2.5283,-0.46036 -20.66635,-211.89859 -25.16524,-229.40182 -24.94933,-227.3421 -32.16602,-306.86602 -3.31662,-36.54735 -6.45171,-66.87122 -6.96687,-67.38637 -0.51516,-0.51516 -10.6721,-1.43352 -22.57097,-2.04081 l -21.63432,-1.10416 1.3285,5.29319 c 2.09793,8.35881 16.79686,103.56758 22.51416,145.83 2.85607,21.11219 16.04837,125.20841 29.31621,231.32494 13.26784,106.11652 24.66924,196.91954 25.33645,201.78447 l 1.2131,8.84534 11.22253,-1.31899 c 6.17239,-0.72543 12.0555,-1.83379 13.07358,-2.463 z m 58.04433,-42.69803 c 2.57342,-5.27805 44.91449,-100.51018 94.09124,-211.62696 49.17676,-111.11678 95.8814,-216.51077 103.78809,-234.20887 7.9067,-17.6981 14.10417,-32.45001 13.77217,-32.78202 -0.33201,-0.33201 -5.33219,1.19305 -11.11151,3.38901 -13.32486,5.06305 -22.815,5.03861 -39.45717,-0.10164 -18.15753,-5.60828 -37.49149,-19.1872 -72.0226,-50.584 -42.51013,-38.65158 -61.93744,-50.1136 -102.02541,-60.19451 -19.93988,-5.01427 -49.86626,-10.69074 -50.90188,-9.65512 -0.42195,0.42195 0.29138,3.09047 1.58517,5.93004 3.49026,7.66028 0.99049,13.95518 -10.56081,26.59415 l -10.38658,11.36458 2.42391,14.56069 c 8.03747,48.28192 17.15008,108.19129 23.4186,153.96176 7.99345,58.36536 46.31658,357.88343 48.53274,379.31228 0.77568,7.50038 2.0324,13.63706 2.7927,13.63706 0.76031,0 3.48792,-4.31841 6.06134,-9.59645 z" transform="scale(0.26458333)" style="opacity:1;vector-effect:none;fill:none;fill-opacity:1;stroke:#806600;stroke-width:5.38748026;stroke-linecap:butt;stroke-linejoin:miter;stroke-miterlimit:4;stroke-dasharray:none;stroke-dashoffset:0;stroke-opacity:1"/><path id="path1670" d="m 212.30046,940.54907 c -15.97411,-2.83833 -32.31287,-11.60025 -45.01134,-24.13804 -20.79347,-20.53036 -20.73833,-31.75829 0.28395,-57.82324 7.72739,-9.58097 14.04979,-19.13701 14.04979,-21.23565 0,-2.09863 -10.4107,-100.85407 -23.13488,-219.45654 -12.72419,-118.60246 -25.47462,-240.64212 -28.33429,-271.19923 -6.6228,-70.76808 -10.42506,-103.51016 -15.31529,-131.88323 -3.8046,-22.07422 -3.80907,-22.80288 -0.17005,-27.72088 8.51009,-11.50104 26.43041,-17.01739 65.35193,-20.11706 20.37044,-1.62228 29.13137,-1.45198 42.42641,0.82473 9.21517,1.57805 27.45379,4.32532 40.53026,6.10505 45.35045,6.17225 81.46066,18.30291 108.38115,36.40894 7.31798,4.92189 28.30619,22.68327 46.64046,39.46972 27.47184,25.15261 36.20374,31.91773 49.64501,38.46296 22.09396,10.75863 30.87422,10.72104 55.91316,-0.2394 10.27982,-4.49985 20.16965,-8.98334 21.9774,-9.96332 1.80775,-0.97998 6.35344,-2.33616 10.10153,-3.01373 6.1534,-1.11239 7.28738,-0.52848 11.68556,6.01721 4.5084,6.70969 4.69909,7.99332 2.5626,17.24911 -3.79801,16.45388 -27.85621,75.46275 -116.51627,285.78574 -89.4387,212.1702 -108.09998,257.05582 -108.09998,260.01093 0,1.01215 3.48949,7.01795 7.7544,13.34619 4.26492,6.32824 10.22723,15.76715 13.24954,20.97535 5.37769,9.26708 5.4219,9.61251 2.06861,16.16244 -10.92942,21.34833 -27.02525,35.13935 -49.51321,42.42328 -11.03715,3.57497 -19.0873,4.28957 -54.37154,4.82651 -22.77894,0.34662 -46.24865,-0.2284 -52.15491,-1.27784 z m 43.71861,-118.05249 c 0.89329,-0.8933 -4.5321,-52.86615 -26.89133,-257.60726 -9.5258,-87.22668 -20.93903,-195.80252 -25.36273,-241.27965 -4.42371,-45.47713 -8.46177,-83.10436 -8.97347,-83.61606 -0.5117,-0.5117 -9.72475,-1.39037 -20.47345,-1.9526 l -19.54308,-1.02222 1.21905,4.85707 c 1.53776,6.12692 7.55792,43.61417 15.37336,95.72913 3.33274,22.22336 18.36566,138.13836 33.4065,257.5889 15.04084,119.45054 27.86534,220.24645 28.49889,223.9909 l 1.15191,6.80809 10.43301,-1.38397 c 5.73815,-0.76119 10.76075,-1.71175 11.16134,-2.11233 z M 370.167,652.76606 C 483.32144,397.94563 523.05442,307.77195 523.05442,305.78921 c 0,-1.23922 -1.02452,-1.16373 -2.66317,0.19623 -5.75635,4.77733 -23.74787,6.97508 -35.56912,4.34491 -22.30522,-4.96277 -41.5234,-17.33226 -79.95556,-51.46213 -51.82808,-46.02618 -73.73701,-57.12813 -135.06736,-68.44287 l -15.86937,-2.92771 1.17182,5.85909 c 1.64575,8.22875 -1.27437,14.53506 -12.07919,26.08628 l -9.36868,10.01588 2.08739,13.66695 c 1.14806,7.51682 6.23728,40.4865 11.30937,73.26595 9.14966,59.13168 30.07755,216.54852 49.6893,373.75644 12.11009,97.07463 11.94397,95.98072 14.22896,93.69573 0.98169,-0.98169 27.62089,-59.96674 59.19819,-131.0779 z" transform="scale(0.26458333)" style="opacity:1;vector-effect:none;fill:#806600;fill-opacity:1;stroke:#806600;stroke-width:5.38582706;stroke-linecap:butt;stroke-linejoin:miter;stroke-miterlimit:4;stroke-dasharray:none;stroke-dashoffset:0;stroke-opacity:1"/><path id="path1672" d="M 217.21466,664.38934 C 181.63991,384.20011 164.90164,261.18956 160.17155,245.17603 c -0.92323,-3.12553 0.55288,-3.53194 12.72887,-3.50459 7.57526,0.017 15.00001,0.80838 16.49944,1.75859 1.98052,1.25509 5.43491,28.1567 12.62894,98.34999 5.4465,53.14228 17.59019,168.03863 26.986,255.32522 9.3958,87.2866 18.53279,172.71213 20.30443,189.83449 3.49074,33.7371 3.34743,34.43356 -7.09861,34.4974 l -5.06217,0.0309 z" transform="scale(0.26458333)" style="opacity:1;vector-effect:none;fill:#806600;fill-opacity:1;stroke:#806600;stroke-width:10.88101292;stroke-linecap:butt;stroke-linejoin:miter;stroke-miterlimit:4;stroke-dasharray:none;stroke-dashoffset:0;stroke-opacity:1"/><path id="path1674" d="M 38.486812,61.268276 58.799295,224.83723 v 0" style="opacity:1;vector-effect:none;fill:none;fill-opacity:1;stroke:#784421;stroke-width:3;stroke-linecap:butt;stroke-linejoin:miter;stroke-miterlimit:4;stroke-dasharray:none;stroke-dashoffset:0;stroke-opacity:1"/><path style="opacity:1;vector-effect:none;fill:none;fill-opacity:1;stroke:#784421;stroke-width:3;stroke-linecap:butt;stroke-linejoin:miter;stroke-miterlimit:4;stroke-dasharray:none;stroke-dashoffset:0;stroke-opacity:1" id="path1676" d="M 38.486812,61.268276 58.799295,224.83723 v 0"/><path id="path1678" d="M 47.039437,60.199198 67.35192,223.76815 v 0" style="opacity:1;vector-effect:none;fill:none;fill-opacity:1;stroke:#784421;stroke-width:3;stroke-linecap:butt;stroke-linejoin:miter;stroke-miterlimit:4;stroke-dasharray:none;stroke-dashoffset:0;stroke-opacity:1"/><path style="opacity:1;vector-effect:none;fill:none;fill-opacity:1;stroke:#784421;stroke-width:3;stroke-linecap:butt;stroke-linejoin:miter;stroke-miterlimit:4;stroke-dasharray:none;stroke-dashoffset:0;stroke-opacity:1" id="path1680" d="M 55.592062,58.595581 75.904545,222.16453 v 0"/><path id="path1682" d="M 32.072344,59.664659 52.384827,223.23361 v 0" style="opacity:1;vector-effect:none;fill:none;fill-opacity:1;stroke:#784421;stroke-width:3;stroke-linecap:butt;stroke-linejoin:miter;stroke-miterlimit:4;stroke-dasharray:none;stroke-dashoffset:0;stroke-opacity:1"/><path id="path1684" d="M 65.024776,55.960873 86.060787,208.80106" style="opacity:1;vector-effect:none;fill:#4d4d4d;fill-opacity:1;stroke:#666;stroke-width:.70555556;stroke-linecap:butt;stroke-linejoin:miter;stroke-miterlimit:4;stroke-dasharray:none;stroke-dashoffset:0;stroke-opacity:1"/><path style="opacity:1;vector-effect:none;fill:none;fill-opacity:1;stroke:#666;stroke-width:.70555556;stroke-linecap:butt;stroke-linejoin:miter;stroke-miterlimit:4;stroke-dasharray:none;stroke-dashoffset:0;stroke-opacity:1" id="path1686" d="M 67.859599,52.181111 88.706622,205.0213"/><path id="path1688" d="M 69.900672,49.724266 90.558707,201.24154" style="opacity:1;vector-effect:none;fill:none;fill-opacity:1;stroke:#666;stroke-width:.70555556;stroke-linecap:butt;stroke-linejoin:miter;stroke-miterlimit:4;stroke-dasharray:none;stroke-dashoffset:0;stroke-opacity:1"/><path style="opacity:1;vector-effect:none;fill:none;fill-opacity:1;stroke:#666;stroke-width:.70555556;stroke-linecap:butt;stroke-linejoin:miter;stroke-miterlimit:4;stroke-dasharray:none;stroke-dashoffset:0;stroke-opacity:1" id="path1690" d="M 72.546507,49.535278 92.826566,198.21773"/><path id="path1692" d="M 75.721509,50.669206 95.245616,194.05999" style="opacity:1;vector-effect:none;fill:none;fill-opacity:1;stroke:#666;stroke-width:.70555556;stroke-linecap:butt;stroke-linejoin:miter;stroke-miterlimit:4;stroke-dasharray:none;stroke-dashoffset:0;stroke-opacity:1"/><path style="opacity:1;vector-effect:none;fill:none;fill-opacity:1;stroke:#666;stroke-width:.70555556;stroke-linecap:butt;stroke-linejoin:miter;stroke-miterlimit:4;stroke-dasharray:none;stroke-dashoffset:0;stroke-opacity:1" id="path1694" d="M 78.745321,51.047182 97.702467,189.71326"/><path id="path1696" d="M 82.676275,52.181111 99.932546,184.61058" style="opacity:1;vector-effect:none;fill:none;fill-opacity:1;stroke:#666;stroke-width:.70555556;stroke-linecap:butt;stroke-linejoin:miter;stroke-miterlimit:4;stroke-dasharray:none;stroke-dashoffset:0;stroke-opacity:1"/><path style="opacity:1;vector-effect:none;fill:none;fill-opacity:1;stroke:#666;stroke-width:.70555556;stroke-linecap:butt;stroke-linejoin:miter;stroke-miterlimit:4;stroke-dasharray:none;stroke-dashoffset:0;stroke-opacity:1" id="path1698" d="M 85.851277,53.504028 102.35161,180.26386"/><path id="path1700" d="M 89.215267,54.070992 104.95967,175.53916" style="opacity:1;vector-effect:none;fill:none;fill-opacity:1;stroke:#666;stroke-width:.70555556;stroke-linecap:butt;stroke-linejoin:miter;stroke-miterlimit:4;stroke-dasharray:none;stroke-dashoffset:0;stroke-opacity:1"/><path style="opacity:1;vector-effect:none;fill:none;fill-opacity:1;stroke:#666;stroke-width:.70555556;stroke-linecap:butt;stroke-linejoin:miter;stroke-miterlimit:4;stroke-dasharray:none;stroke-dashoffset:0;stroke-opacity:1" id="path1702" d="M 93.146221,56.149861 107.00076,168.92457"/><path id="path1704" d="M 97.266164,58.22873 108.85286,162.87695" style="opacity:1;vector-effect:none;fill:none;fill-opacity:1;stroke:#666;stroke-width:.70555556;stroke-linecap:butt;stroke-linejoin:miter;stroke-miterlimit:4;stroke-dasharray:none;stroke-dashoffset:0;stroke-opacity:1"/><path style="opacity:1;vector-effect:none;fill:none;fill-opacity:1;stroke:#666;stroke-width:.70555556;stroke-linecap:butt;stroke-linejoin:miter;stroke-miterlimit:4;stroke-dasharray:none;stroke-dashoffset:0;stroke-opacity:1" id="path1706" d="M 100.81914,61.441528 111.8389,157.96326"/><path id="path1708" d="m 104.37213,63.520397 9.88583,88.206263" style="opacity:1;vector-effect:none;fill:none;fill-opacity:1;stroke:#666;stroke-width:.70555556;stroke-linecap:butt;stroke-linejoin:miter;stroke-miterlimit:4;stroke-dasharray:none;stroke-dashoffset:0;stroke-opacity:1"/><path style="opacity:1;vector-effect:none;fill:none;fill-opacity:1;stroke:#666;stroke-width:.70555556;stroke-linecap:butt;stroke-linejoin:miter;stroke-miterlimit:4;stroke-dasharray:none;stroke-dashoffset:0;stroke-opacity:1" id="path1710" d="M 107.54715,67.300159 116.67703,146.246"/><path id="path1712" d="m 110.91116,70.701944 8.37393,69.496436" style="opacity:1;vector-effect:none;fill:none;fill-opacity:1;stroke:#666;stroke-width:.70555556;stroke-linecap:butt;stroke-linejoin:miter;stroke-miterlimit:4;stroke-dasharray:none;stroke-dashoffset:0;stroke-opacity:1"/><path style="opacity:1;vector-effect:none;fill:none;fill-opacity:1;stroke:#666;stroke-width:.70555556;stroke-linecap:butt;stroke-linejoin:miter;stroke-miterlimit:4;stroke-dasharray:none;stroke-dashoffset:0;stroke-opacity:1" id="path1714" d="m 113.89719,72.780813 7.99595,60.047037"/><path id="path1716" d="m 117.2612,75.426647 6.86202,50.219653" style="opacity:1;vector-effect:none;fill:none;fill-opacity:1;stroke:#666;stroke-width:.70555556;stroke-linecap:butt;stroke-linejoin:miter;stroke-miterlimit:4;stroke-dasharray:none;stroke-dashoffset:0;stroke-opacity:1"/><path style="opacity:1;vector-effect:none;fill:none;fill-opacity:1;stroke:#666;stroke-width:.70555556;stroke-linecap:butt;stroke-linejoin:miter;stroke-miterlimit:4;stroke-dasharray:none;stroke-dashoffset:0;stroke-opacity:1" id="path1718" d="m 120.47402,77.505516 6.48404,44.361024"/><path id="path1720" d="m 123.30885,79.017421 5.53911,37.557449" style="opacity:1;vector-effect:none;fill:none;fill-opacity:1;stroke:#666;stroke-width:.70555556;stroke-linecap:butt;stroke-linejoin:miter;stroke-miterlimit:4;stroke-dasharray:none;stroke-dashoffset:0;stroke-opacity:1"/><path style="opacity:1;vector-effect:none;fill:none;fill-opacity:1;stroke:#666;stroke-width:.70555556;stroke-linecap:butt;stroke-linejoin:miter;stroke-miterlimit:4;stroke-dasharray:none;stroke-dashoffset:0;stroke-opacity:1" id="path1722" d="m 126.33268,80.718313 4.0272,29.241977"/><path id="path1724" d="m 129.35651,82.04123 3.27124,23.57233" style="opacity:1;vector-effect:none;fill:none;fill-opacity:1;stroke:#666;stroke-width:.70555556;stroke-linecap:butt;stroke-linejoin:miter;stroke-miterlimit:4;stroke-dasharray:none;stroke-dashoffset:0;stroke-opacity:1"/><path style="opacity:1;vector-effect:none;fill:none;fill-opacity:1;stroke:#666;stroke-width:.70555556;stroke-linecap:butt;stroke-linejoin:miter;stroke-miterlimit:4;stroke-dasharray:none;stroke-dashoffset:0;stroke-opacity:1" id="path1726" d="m 132.60711,81.285278 2.32631,16.957748"/><ellipse id="path1730" cx="182.899" cy="182.022" rx="14.206" ry="2.117" transform="matrix(0.91644787,0.40015409,-0.38407829,0.92330053,0,0)" style="opacity:1;vector-effect:none;fill:#666;fill-opacity:1;stroke:#666;stroke-width:1.42156827;stroke-linecap:butt;stroke-linejoin:miter;stroke-miterlimit:4;stroke-dasharray:none;stroke-dashoffset:0;stroke-opacity:1"/><ellipse style="opacity:1;vector-effect:none;fill:#666;fill-opacity:1;stroke:#666;stroke-width:1.42156827;stroke-linecap:butt;stroke-linejoin:miter;stroke-miterlimit:4;stroke-dasharray:none;stroke-dashoffset:0;stroke-opacity:1" id="ellipse1732" cx="165.231" cy="195.593" rx="14.206" ry="2.117" transform="matrix(0.95680803,0.29072048,-0.2739561,0.9617422,0,0)"/><ellipse id="ellipse1734" cx="127.838" cy="214.983" rx="14.206" ry="2.117" transform="matrix(0.99384218,0.11080488,-0.09342081,0.99562671,0,0)" style="opacity:1;vector-effect:none;fill:#666;fill-opacity:1;stroke:#666;stroke-width:1.42156827;stroke-linecap:butt;stroke-linejoin:miter;stroke-miterlimit:4;stroke-dasharray:none;stroke-dashoffset:0;stroke-opacity:1"/></g></g></svg>