<svg xmlns="http://www.w3.org/2000/svg" xmlns:svg="http://www.w3.org/2000/svg" id="svg8" width="816" height="11in" version="1.1" viewBox="0 0 215.9 279.4"><metadata id="metadata5"/><g id="layer1" transform="translate(0,-17.6)"><g id="g1019"><path style="opacity:1;vector-effect:none;fill:#502d16;fill-opacity:1;stroke:#502d16;stroke-width:.70555556;stroke-linecap:butt;stroke-linejoin:miter;stroke-miterlimit:4;stroke-dasharray:none;stroke-dashoffset:0;stroke-opacity:1" id="path14" d="M 52.239854,97.90715 C 190.71055,234.8421 162.52248,221.86028 198.14404,238.69557 c 9.78573,4.62488 7.4876,12.44211 7.4876,12.44211 -2.54164,5.92282 -3.98894,3.61246 -7.75322,6.6206 l -2.96268,2.89865 c -0.88049,4.77727 -5.7846,6.76817 -7.22472,6.93562 0,0 -7.39141,1.37457 -11.75011,-8.53259 C 160.13025,223.12298 165.80943,239.28775 48.258334,101.55894 Z"/><ellipse id="path16" cx="-29.399" cy="183.997" rx="1.411" ry="1.456" transform="rotate(-42.526598)" style="opacity:1;vector-effect:none;fill:#d5e5ff;fill-opacity:1;stroke:#d5e5ff;stroke-width:1.08960271;stroke-linecap:butt;stroke-linejoin:miter;stroke-miterlimit:4;stroke-dasharray:none;stroke-dashoffset:0;stroke-opacity:1"/><ellipse id="path18" cx="-29.19" cy="193.948" rx="1.451" ry="1.7" transform="rotate(-42.526598)" style="opacity:1;vector-effect:none;fill:#d5e5ff;fill-opacity:1;stroke:#d5e5ff;stroke-width:.99268472;stroke-linecap:butt;stroke-linejoin:miter;stroke-miterlimit:4;stroke-dasharray:none;stroke-dashoffset:0;stroke-opacity:1"/><ellipse style="opacity:1;vector-effect:none;fill:#d5e5ff;fill-opacity:1;stroke:#d5e5ff;stroke-width:1.10106993;stroke-linecap:butt;stroke-linejoin:miter;stroke-miterlimit:4;stroke-dasharray:none;stroke-dashoffset:0;stroke-opacity:1" id="ellipse28" cx="-29.403" cy="205.829" rx="1.609" ry="1.885" transform="rotate(-42.526598)"/><ellipse id="ellipse30" cx="-29.143" cy="217.707" rx="1.416" ry="1.658" transform="rotate(-42.526598)" style="opacity:1;vector-effect:none;fill:#d5e5ff;fill-opacity:1;stroke:#d5e5ff;stroke-width:.96859914;stroke-linecap:butt;stroke-linejoin:miter;stroke-miterlimit:4;stroke-dasharray:none;stroke-dashoffset:0;stroke-opacity:1"/><ellipse style="opacity:1;vector-effect:none;fill:#d5e5ff;fill-opacity:1;stroke:#d5e5ff;stroke-width:1.14172041;stroke-linecap:butt;stroke-linejoin:miter;stroke-miterlimit:4;stroke-dasharray:none;stroke-dashoffset:0;stroke-opacity:1" id="ellipse32" cx="-29.483" cy="232.907" rx="1.669" ry="1.955" transform="rotate(-42.526598)"/><ellipse id="path38" cx="236.372" cy="38.102" rx="2.673" ry="2.405" transform="rotate(47.473402)" style="opacity:1;vector-effect:none;fill:#d5e5ff;fill-opacity:1;stroke:#04a;stroke-width:.5;stroke-linecap:butt;stroke-linejoin:miter;stroke-miterlimit:4;stroke-dasharray:none;stroke-dashoffset:0;stroke-opacity:1"/><ellipse style="opacity:1;vector-effect:none;fill:#d5e5ff;fill-opacity:1;stroke:#04a;stroke-width:.37464607;stroke-linecap:butt;stroke-linejoin:miter;stroke-miterlimit:4;stroke-dasharray:none;stroke-dashoffset:0;stroke-opacity:1" id="ellipse849" cx="231.152" cy="38.102" rx="1.867" ry="1.934" transform="rotate(47.473402)"/><ellipse id="ellipse851" cx="196.516" cy="37.434" rx="4.246" ry="1.105" transform="rotate(47.473402)" style="opacity:1;vector-effect:none;fill:#d5e5ff;fill-opacity:1;stroke:#04a;stroke-width:.42722431;stroke-linecap:butt;stroke-linejoin:miter;stroke-miterlimit:4;stroke-dasharray:none;stroke-dashoffset:0;stroke-opacity:1"/><ellipse style="opacity:1;vector-effect:none;fill:#d5e5ff;fill-opacity:1;stroke:#04a;stroke-width:.42722431;stroke-linecap:butt;stroke-linejoin:miter;stroke-miterlimit:4;stroke-dasharray:none;stroke-dashoffset:0;stroke-opacity:1" id="ellipse853" cx="160.592" cy="-113.294" rx="4.246" ry="1.105" transform="rotate(88.70361)"/><ellipse id="ellipse855" cx="143.321" cy="-127.779" rx="4.246" ry="1.105" transform="rotate(95.122319)" style="opacity:1;vector-effect:none;fill:#d5e5ff;fill-opacity:1;stroke:#04a;stroke-width:.42722431;stroke-linecap:butt;stroke-linejoin:miter;stroke-miterlimit:4;stroke-dasharray:none;stroke-dashoffset:0;stroke-opacity:1"/><ellipse style="opacity:1;vector-effect:none;fill:#d5e5ff;fill-opacity:1;stroke:#04a;stroke-width:.42722431;stroke-linecap:butt;stroke-linejoin:miter;stroke-miterlimit:4;stroke-dasharray:none;stroke-dashoffset:0;stroke-opacity:1" id="ellipse857" cx="178.935" cy="-89.263" rx="4.246" ry="1.105" transform="rotate(79.64094)"/><ellipse id="ellipse859" cx="-29.483" cy="259.365" rx="1.669" ry="1.955" transform="rotate(-42.526598)" style="opacity:1;vector-effect:none;fill:#d5e5ff;fill-opacity:1;stroke:#d5e5ff;stroke-width:1.14172041;stroke-linecap:butt;stroke-linejoin:miter;stroke-miterlimit:4;stroke-dasharray:none;stroke-dashoffset:0;stroke-opacity:1"/><ellipse style="opacity:1;vector-effect:none;fill:#d5e5ff;fill-opacity:1;stroke:#d5e5ff;stroke-width:1.14172041;stroke-linecap:butt;stroke-linejoin:miter;stroke-miterlimit:4;stroke-dasharray:none;stroke-dashoffset:0;stroke-opacity:1" id="ellipse861" cx="-29.483" cy="269.948" rx="1.669" ry="1.955" transform="rotate(-42.526598)"/><path id="path863" d="M 56.701198,108.95087 C 155.38299,220.33603 155.38299,220.33603 155.38299,220.33603" style="opacity:1;vector-effect:none;fill:none;fill-opacity:1;stroke:#acf;stroke-width:1;stroke-linecap:butt;stroke-linejoin:miter;stroke-miterlimit:4;stroke-dasharray:none;stroke-dashoffset:0;stroke-opacity:1"/><path id="path865" d="m 65.452436,113.10146 38.922624,40.45998" style="opacity:1;vector-effect:none;fill:none;fill-opacity:1;stroke:#80b3ff;stroke-width:.70555556;stroke-linecap:butt;stroke-linejoin:miter;stroke-miterlimit:4;stroke-dasharray:none;stroke-dashoffset:0;stroke-opacity:1"/><path id="path867" d="m 104.37506,153.56144 52.43922,55.98783" style="opacity:1;vector-effect:none;fill:#acf;fill-opacity:1;stroke:#80b3ff;stroke-width:.70555556;stroke-linecap:butt;stroke-linejoin:miter;stroke-miterlimit:4;stroke-dasharray:none;stroke-dashoffset:0;stroke-opacity:1"/><path id="path869" d="m 121.11206,177.74079 40.20476,45.81197" style="opacity:1;vector-effect:none;fill:#06f;fill-opacity:1;stroke:#acf;stroke-width:.70555556;stroke-linecap:butt;stroke-linejoin:miter;stroke-miterlimit:4;stroke-dasharray:none;stroke-dashoffset:0;stroke-opacity:1"/><path id="path873" d="m 65.452436,113.10146 53.849384,49.61715" style="opacity:1;vector-effect:none;fill:#28170b;fill-opacity:1;stroke:#00f;stroke-width:.70555556;stroke-linecap:butt;stroke-linejoin:miter;stroke-miterlimit:4;stroke-dasharray:none;stroke-dashoffset:0;stroke-opacity:1"/><ellipse id="path879" cx="318.156" cy="30.351" rx="4.017" ry="20.053" transform="rotate(47.473402)" style="opacity:1;vector-effect:none;fill:#28170b;fill-opacity:1;stroke:#28170b;stroke-width:.98485345;stroke-linecap:butt;stroke-linejoin:miter;stroke-miterlimit:4;stroke-dasharray:none;stroke-dashoffset:0;stroke-opacity:1"/><ellipse id="path883" cx="321.764" cy="29.95" rx="4.865" ry="17.427" transform="rotate(47.473402)" style="opacity:1;vector-effect:none;fill:#28170b;fill-opacity:1;stroke:#28170b;stroke-width:1.15857208;stroke-linecap:butt;stroke-linejoin:miter;stroke-miterlimit:4;stroke-dasharray:none;stroke-dashoffset:0;stroke-opacity:1"/><path id="path885" d="M 49.966426,99.379945 33.361865,80.881742" style="opacity:1;vector-effect:none;fill:#b380ff;fill-opacity:1;stroke:#5f8dd3;stroke-width:3;stroke-linecap:butt;stroke-linejoin:miter;stroke-miterlimit:4;stroke-dasharray:none;stroke-dashoffset:0;stroke-opacity:1"/><g id="g986" transform="matrix(1.1849777,0,0,1.1849777,-6.2495652,-14.746661)"><path style="opacity:1;vector-effect:none;fill:#a80;fill-opacity:1;stroke:#a80;stroke-width:.70555556;stroke-linecap:butt;stroke-linejoin:miter;stroke-miterlimit:4;stroke-dasharray:none;stroke-dashoffset:0;stroke-opacity:1" id="path887" d="m 34.003184,83.557501 -5.239028,-5.71207 C 25.664401,74.70454 22.348621,71.761784 19.13229,68.727813 l 3.299213,-3.025989 8.487068,10.439607 5.251261,5.428851 z"/><path style="fill:none;stroke:maroon;stroke-width:.26458332px;stroke-linecap:butt;stroke-linejoin:miter;stroke-opacity:1" id="path889" d="m 32.457919,76.633544 c -0.08072,0.0438 -0.163598,0.08382 -0.242134,0.131412 -0.05246,0.03178 -0.102424,0.09394 -0.147725,0.135491 -0.114899,0.105384 -0.229795,0.210766 -0.344695,0.31615 -0.344694,0.316148 -0.689386,0.632295 -1.034081,0.948444 -0.114899,0.105384 -0.229796,0.210765 -0.344694,0.316149 -0.01642,0.01506 -0.04828,0.02292 -0.04924,0.04517 -0.0054,0.125874 0.127236,-0.02603 -0.0041,0.09441 -0.01642,0.01506 -0.03282,0.03011 -0.04924,0.04517 -0.01642,0.01506 -0.04126,0.02441 -0.04924,0.04517 -0.01124,0.02942 0.0072,0.06499 -0.0041,0.09441 -0.008,0.02076 -0.04132,0.02432 -0.04924,0.04516 -0.01124,0.02942 0.0072,0.06498 -0.0041,0.0944 -0.007,0.01836 -0.171218,0.157039 -0.196969,0.180657 -0.09848,0.09033 -0.196967,0.180656 -0.295452,0.270985 -0.02218,0.02034 -0.139606,0.114258 -0.147725,0.135491 -0.01124,0.02942 0.0072,0.06498 -0.0041,0.09441 -0.0079,0.02083 -0.04828,0.02292 -0.04924,0.04517 -9.61e-4,0.02224 0.04612,0.027 0.04517,0.04924 -9.61e-4,0.02224 -0.04828,0.02292 -0.04924,0.04516 -4.09e-4,0.0095 0.126038,0.14733 0.135491,0.147725 0.04451,0.0019 0.05398,-0.09225 0.09848,-0.09033 0.02224,9.6e-4 0.02292,0.04828 0.04517,0.04924 0.02583,0.0011 0.158008,-0.169511 0.196967,-0.180656 0.03027,-0.0087 0.06413,0.01274 0.09441,0.0041 0.04283,-0.01225 0.05398,-0.09225 0.09849,-0.09033 0.02224,9.61e-4 0.02292,0.04828 0.04517,0.04924 0.003,1.28e-4 0.135784,-0.124539 0.147725,-0.135491 0.246209,-0.22582 0.492419,-0.45164 0.738631,-0.677462 0.508834,-0.466695 1.017667,-0.93339 1.526501,-1.400085 0.01642,-0.01506 0.03282,-0.03011 0.04924,-0.04517 0.01642,-0.01506 0.0278,-0.03906 0.04924,-0.04516 0.03028,-0.0087 0.06413,0.01274 0.09441,0.0041 0.05746,-0.01643 0.09027,-0.119061 0.147727,-0.135492 0.03028,-0.0087 0.06413,0.01273 0.09441,0.0041 0.02137,-0.0062 0.027,-0.04612 0.04924,-0.04517 0.02224,9.61e-4 0.02658,0.03697 0.04517,0.04924 0.254133,0.167808 0.121342,0.03344 0.229902,0.151804 0.01506,0.01642 0.02292,0.04828 0.04516,0.04924 0.02224,9.61e-4 0.027,-0.04612 0.04924,-0.04517 0.02224,9.6e-4 0.04612,0.027 0.04517,0.04924 -0.131313,0.120438 0.0014,-0.03148 -0.0041,0.09441 -9.82e-4,0.02273 -0.195994,0.15793 -0.196968,0.180656 -9.61e-4,0.02224 0.04612,0.027 0.04517,0.04924 -0.002,0.04721 -0.145688,0.08829 -0.147727,0.135493 -9.6e-4,0.02224 0.04612,0.027 0.04517,0.04924 -9.82e-4,0.02273 -0.195994,0.157929 -0.196967,0.180655 -9.61e-4,0.02224 0.04612,0.027 0.04517,0.04924 -9.6e-4,0.02224 -0.03282,0.03011 -0.04924,0.04517 -0.01642,0.01506 -0.03282,0.03011 -0.04924,0.04517 -0.213382,0.19571 -0.426764,0.391421 -0.640145,0.587131 -0.525248,0.48175 -1.050496,0.9635 -1.575743,1.445249 -0.08207,0.07527 -0.164139,0.150546 -0.24621,0.22582 -0.01642,0.01506 -0.04828,0.02292 -0.04924,0.04517 -9.61e-4,0.02224 0.04612,0.027 0.04517,0.04924 -0.0019,0.04451 -0.09656,0.04582 -0.09849,0.09033 -9.61e-4,0.02224 0.03604,0.02894 0.04517,0.04924 0.02034,0.04546 0.02076,0.09819 0.04109,0.143644 0.0091,0.02031 0.03899,0.02786 0.04517,0.04924 0.0053,0.01869 -0.03272,0.14046 0.04108,0.143649 0.04451,0.0019 0.05566,-0.07808 0.09848,-0.09033 0.03028,-0.0087 0.06413,0.01273 0.09441,0.0041 0.02134,-0.0061 0.274739,-0.251986 0.295453,-0.270985 0.01642,-0.01506 0.0278,-0.03907 0.04924,-0.04516 0.03028,-0.0087 0.06413,0.01273 0.09441,0.0041 0.02598,-0.0074 0.21196,-0.194407 0.24621,-0.22582 0.196967,-0.180656 0.393935,-0.361311 0.590904,-0.541969 0.03425,-0.03141 0.22023,-0.218396 0.24621,-0.22582 0.03028,-0.0087 0.06412,0.01274 0.09441,0.0041 0.03067,-0.0088 0.226745,-0.207966 0.24621,-0.22582 0.180556,-0.165603 0.361109,-0.331203 0.541663,-0.496805 0.164141,-0.150547 0.328279,-0.301093 0.492421,-0.451642 0.01642,-0.01506 0.03282,-0.03011 0.04924,-0.04516 0.01642,-0.01506 0.027,-0.04612 0.04924,-0.04516 0.02224,9.6e-4 0.02292,0.04828 0.04516,0.04924 0.0042,1.83e-4 0.222993,-0.204526 0.24621,-0.22582 0.01642,-0.01506 0.027,-0.04612 0.04924,-0.04517 0.02224,9.61e-4 0.02292,0.04828 0.04517,0.04924 0.02273,9.82e-4 0.174242,-0.181645 0.196968,-0.180656 0.02224,9.61e-4 0.02292,0.04828 0.04517,0.04924 0.02224,9.61e-4 0.027,-0.04612 0.04924,-0.04517 0.02224,9.61e-4 0.03011,0.03282 0.04517,0.04924 0.01096,0.01195 0.135587,0.144722 0.135492,0.147725 -9.61e-4,0.02224 -0.04828,0.02292 -0.04924,0.04517 -9.61e-4,0.02224 0.05311,0.02844 0.04517,0.04924 -0.0159,0.04161 -0.07685,0.05138 -0.09848,0.09033 -0.01526,0.02757 0.0072,0.06498 -0.0041,0.09441 -0.008,0.02076 -0.03283,0.03011 -0.04924,0.04517 -0.01642,0.01506 -0.03282,0.03011 -0.04924,0.04516 -0.09848,0.09033 -0.196967,0.180655 -0.295452,0.270984 -0.01808,0.01658 -0.196811,0.176849 -0.196967,0.180656 -9.61e-4,0.02224 0.04612,0.027 0.04517,0.04924 -9.61e-4,0.02224 -0.03283,0.03011 -0.04924,0.04517 -0.08207,0.07527 -0.164139,0.150546 -0.24621,0.22582 -0.08207,0.07527 -0.164139,0.150546 -0.24621,0.22582 -0.01642,0.01506 -0.03283,0.03011 -0.04924,0.04517 -0.01642,0.01506 -0.04125,0.0244 -0.04924,0.04516 -0.01124,0.02942 0.0072,0.06498 -0.0041,0.09441 -0.01683,0.04401 -0.2294,0.181785 -0.24621,0.22582 -0.01124,0.02942 0.0072,0.06499 -0.0041,0.0944 -0.01618,0.04238 -0.279265,0.228606 -0.295452,0.270984 -0.01124,0.02942 0.0072,0.06499 -0.0041,0.09441 -0.0079,0.02083 -0.03283,0.03011 -0.04924,0.04517 -0.01642,0.01506 -0.03283,0.03011 -0.04924,0.04517 -0.09848,0.09033 -0.19697,0.180658 -0.295453,0.270984 -0.01642,0.01506 -0.03282,0.03011 -0.04924,0.04517 -0.01642,0.01506 -0.04126,0.02441 -0.04924,0.04517 -0.01124,0.02942 0.0072,0.06499 -0.0041,0.09441 -0.0069,0.01802 -0.260549,0.238972 -0.295451,0.270984 -0.02217,0.02034 -0.139608,0.11426 -0.147725,0.135491 -0.01124,0.02942 0.0072,0.06498 -0.0041,0.09441 -0.01681,0.04403 -0.2294,0.181784 -0.24621,0.22582 -0.01124,0.02942 0.0072,0.06498 -0.0041,0.09441 -0.008,0.02076 -0.04828,0.02292 -0.04924,0.04517 -1.29e-4,0.003 0.124537,0.135781 0.135491,0.147725 0.01096,0.01195 0.132491,0.14756 0.135491,0.147725 0.02019,8.72e-4 0.161521,-0.164808 0.19697,-0.180658 0.04546,-0.02034 0.09819,-0.02076 0.143648,-0.04108 0.02031,-0.0091 0.02894,-0.03604 0.04924,-0.04517 0.04546,-0.02034 0.09988,-0.01733 0.143651,-0.04108 0.04762,-0.02584 0.244244,-0.224017 0.295452,-0.270984 0.213382,-0.195711 0.426763,-0.391421 0.640145,-0.587132 0.508833,-0.466694 1.017667,-0.933389 1.526501,-1.400084 0.01642,-0.01506 0.03282,-0.03011 0.04924,-0.04517 0.01642,-0.01506 0.027,-0.04612 0.04924,-0.04517 0.02224,9.61e-4 0.02292,0.04828 0.04517,0.04924 0.02224,9.61e-4 0.02787,-0.039 0.04924,-0.04517 0.03028,-0.0087 0.06413,0.01274 0.09441,0.0041 0.04283,-0.01225 0.05566,-0.07808 0.09848,-0.09033 0.03028,-0.0087 0.06412,0.01274 0.09441,0.0041 0.02137,-0.0062 0.027,-0.04612 0.04924,-0.04517 0.02224,9.61e-4 0.02292,0.04828 0.04516,0.04924 0.25175,0.01088 0.03691,-0.12451 0.283219,0.01224 0.01945,0.01085 0.03011,0.03283 0.04516,0.04924 0.01506,0.01642 0.04612,0.027 0.04516,0.04924 -0.0019,0.04451 -0.07685,0.05138 -0.09848,0.09033 -0.02418,0.04354 -0.02915,0.09603 -0.05332,0.139573 -0.01929,0.03475 -0.115369,0.105814 -0.147725,0.135491 -0.114899,0.105383 -0.229796,0.210765 -0.344695,0.316148 -0.01642,0.01506 -0.03282,0.03011 -0.04924,0.04517 -0.01642,0.01506 -0.04828,0.02292 -0.04924,0.04517 -9.61e-4,0.02224 0.04612,0.027 0.04517,0.04924 -1.28e-4,0.003 -0.135781,0.124537 -0.147725,0.135491 -0.196967,0.180656 -0.393936,0.361313 -0.590904,0.541969 -0.213382,0.195711 -0.426763,0.391421 -0.640144,0.587131 -0.01642,0.01506 -0.03283,0.03011 -0.04924,0.04517 -0.01642,0.01506 -0.04828,0.02292 -0.04924,0.04517 -9.61e-4,0.02224 0.04612,0.027 0.04517,0.04924 -9.61e-4,0.02224 -0.03282,0.03011 -0.04924,0.04516 -0.01642,0.01506 -0.03282,0.03011 -0.04924,0.04517 -0.09848,0.09033 -0.196967,0.180656 -0.295452,0.270985 -0.01642,0.01506 -0.04828,0.02292 -0.04924,0.04516 -9.6e-4,0.02224 0.04612,0.027 0.04517,0.04924 -9.61e-4,0.02224 -0.03282,0.03011 -0.04924,0.04517 -0.08207,0.07527 -0.164141,0.150547 -0.246209,0.225819 -0.01642,0.01506 -0.04828,0.02292 -0.04924,0.04517 -9.61e-4,0.02224 0.04612,0.027 0.04517,0.04924 -9.82e-4,0.02273 -0.195996,0.157932 -0.196968,0.180656 -9.6e-4,0.02224 0.04612,0.027 0.04516,0.04924 -0.0019,0.04451 -0.09656,0.04582 -0.09848,0.09033 0.120439,0.131313 0.0014,-0.03148 -0.0041,0.09441 -9.6e-4,0.02224 0.04612,0.027 0.04517,0.04924 -9.61e-4,0.02224 -0.04828,0.02292 -0.04924,0.04516 -9.6e-4,0.02224 0.03011,0.03283 0.04517,0.04924 0.03011,0.03283 0.06022,0.06566 0.09033,0.09848 0.04781,0.05212 0.09344,0.14338 0.184737,0.102562 0.04066,-0.01819 0.05783,-0.07214 0.09849,-0.09033 0.02871,-0.0129 0.06412,0.01274 0.09441,0.0041 0.04515,-0.01291 0.151815,-0.167752 0.196967,-0.180656 0.03028,-0.0087 0.06413,0.01274 0.09441,0.0041 0.02598,-0.0074 0.211959,-0.194406 0.246209,-0.225819 0.180554,-0.165602 0.361107,-0.331203 0.541663,-0.496805 0.508833,-0.466695 1.017667,-0.93339 1.5265,-1.400085 0.164139,-0.150546 0.328281,-0.301094 0.492419,-0.45164 0.01642,-0.01506 0.03283,-0.03011 0.04924,-0.04516 0.01642,-0.01506 0.027,-0.04612 0.04924,-0.04517 0.02224,9.6e-4 0.03011,0.03282 0.04517,0.04924 0.01506,0.01642 0.03011,0.03282 0.04517,0.04924 0.01506,0.01642 0.04612,0.027 0.04517,0.04924 -9.61e-4,0.02224 -0.0384,0.02572 -0.04924,0.04516 -0.02418,0.04354 -0.02915,0.09603 -0.05332,0.139573 -0.02163,0.03894 -0.09656,0.04582 -0.09848,0.09033 -9.61e-4,0.02224 0.04612,0.027 0.04517,0.04924 -1.65e-4,0.0038 -0.178884,0.16407 -0.196969,0.180657 -0.01642,0.01506 -0.03282,0.03011 -0.04924,0.04516 -0.01642,0.01506 -0.04125,0.02441 -0.04924,0.04517 -0.01125,0.02941 0.0072,0.06498 -0.0041,0.0944 -0.01409,0.0369 -0.178453,0.152684 -0.196968,0.180656 -0.02744,0.04157 -0.02588,0.09801 -0.05332,0.139573 -0.03441,0.05209 -0.189006,0.173353 -0.246209,0.225819 -0.16414,0.150547 -0.328281,0.301094 -0.49242,0.451641 -0.541662,0.496804 -1.083324,0.993609 -1.624986,1.490413"/></g><ellipse style="opacity:1;vector-effect:none;fill:#d5e5ff;fill-opacity:1;stroke:#d5e5ff;stroke-width:.76212853;stroke-linecap:butt;stroke-linejoin:miter;stroke-miterlimit:4;stroke-dasharray:none;stroke-dashoffset:0;stroke-opacity:1" id="ellipse891" cx="-28.811" cy="174.544" rx=".987" ry="1.018" transform="rotate(-42.526598)"/><ellipse id="ellipse893" cx="-29.546" cy="166.727" rx=".987" ry="1.018" transform="rotate(-42.526598)" style="opacity:1;vector-effect:none;fill:#d5e5ff;fill-opacity:1;stroke:#d5e5ff;stroke-width:.76212853;stroke-linecap:butt;stroke-linejoin:miter;stroke-miterlimit:4;stroke-dasharray:none;stroke-dashoffset:0;stroke-opacity:1"/><ellipse style="opacity:1;vector-effect:none;fill:#d5e5ff;fill-opacity:1;stroke:#d5e5ff;stroke-width:.76212853;stroke-linecap:butt;stroke-linejoin:miter;stroke-miterlimit:4;stroke-dasharray:none;stroke-dashoffset:0;stroke-opacity:1" id="ellipse895" cx="-30.014" cy="157.372" rx=".987" ry="1.018" transform="rotate(-42.526598)"/><ellipse style="opacity:1;vector-effect:none;fill:#d5e5ff;fill-opacity:1;stroke:#d5e5ff;stroke-width:.50941908;stroke-linecap:butt;stroke-linejoin:miter;stroke-miterlimit:4;stroke-dasharray:none;stroke-dashoffset:0;stroke-opacity:1" id="ellipse897" cx="-31.675" cy="200.964" rx=".745" ry=".872" transform="rotate(-42.526598)"/><ellipse id="ellipse899" cx="-28.201" cy="212.055" rx=".745" ry=".872" transform="rotate(-42.526598)" style="opacity:1;vector-effect:none;fill:#d5e5ff;fill-opacity:1;stroke:#d5e5ff;stroke-width:.50941908;stroke-linecap:butt;stroke-linejoin:miter;stroke-miterlimit:4;stroke-dasharray:none;stroke-dashoffset:0;stroke-opacity:1"/><ellipse id="ellipse901" cx="-28.602" cy="189.137" rx=".745" ry=".872" transform="rotate(-42.526598)" style="opacity:1;vector-effect:none;fill:#d5e5ff;fill-opacity:1;stroke:#d5e5ff;stroke-width:.50941908;stroke-linecap:butt;stroke-linejoin:miter;stroke-miterlimit:4;stroke-dasharray:none;stroke-dashoffset:0;stroke-opacity:1"/></g></g></svg>