<?xml version="1.0" encoding="UTF-8" standalone="no"?>
<!-- Created with Inkscape (http://www.inkscape.org/) -->

<svg
   xmlns:dc="http://purl.org/dc/elements/1.1/"
   xmlns:cc="http://creativecommons.org/ns#"
   xmlns:rdf="http://www.w3.org/1999/02/22-rdf-syntax-ns#"
   xmlns:svg="http://www.w3.org/2000/svg"
   xmlns="http://www.w3.org/2000/svg"
   xmlns:sodipodi="http://sodipodi.sourceforge.net/DTD/sodipodi-0.dtd"
   xmlns:inkscape="http://www.inkscape.org/namespaces/inkscape"
   width="8.5in"
   height="11in"
   viewBox="0 0 215.9 279.4"
   version="1.1"
   id="svg8"
   sodipodi:docname="oboe.svg"
   inkscape:version="0.92.5 (2060ec1f9f, 2020-04-08)"
   inkscape:export-filename="/home/david/Music/Instruments/oboe.png"
   inkscape:export-xdpi="4.2788124"
   inkscape:export-ydpi="4.2788124">
  <defs
     id="defs2" />
  <sodipodi:namedview
     id="base"
     pagecolor="#ffffff"
     bordercolor="#666666"
     borderopacity="1.0"
     inkscape:pageopacity="0.0"
     inkscape:pageshadow="2"
     inkscape:zoom="0.49497475"
     inkscape:cx="-93.907828"
     inkscape:cy="516.37318"
     inkscape:document-units="mm"
     inkscape:current-layer="layer1"
     showgrid="false"
     units="in"
     showborder="true"
     inkscape:snap-global="false" />
  <metadata
     id="metadata5">
    <rdf:RDF>
      <cc:Work
         rdf:about="">
        <dc:format>image/svg+xml</dc:format>
        <dc:type
           rdf:resource="http://purl.org/dc/dcmitype/StillImage" />
        <dc:title></dc:title>
      </cc:Work>
    </rdf:RDF>
  </metadata>
  <g
     inkscape:label="Layer 1"
     inkscape:groupmode="layer"
     id="layer1"
     transform="translate(0,-17.6)">
    <g
       id="g1019">
      <path
         sodipodi:nodetypes="csccccscc"
         style="opacity:1;vector-effect:none;fill:#502d16;fill-opacity:1;stroke:#502d16;stroke-width:0.70555556;stroke-linecap:butt;stroke-linejoin:miter;stroke-miterlimit:4;stroke-dasharray:none;stroke-dashoffset:0;stroke-opacity:1"
         d="M 52.239854,97.90715 C 190.71055,234.8421 162.52248,221.86028 198.14404,238.69557 c 9.78573,4.62488 7.4876,12.44211 7.4876,12.44211 -2.54164,5.92282 -3.98894,3.61246 -7.75322,6.6206 l -2.96268,2.89865 c -0.88049,4.77727 -5.7846,6.76817 -7.22472,6.93562 0,0 -7.39141,1.37457 -11.75011,-8.53259 C 160.13025,223.12298 165.80943,239.28775 48.258334,101.55894 Z"
         id="path14"
         inkscape:connector-curvature="0" />
      <ellipse
         transform="rotate(-42.526598)"
         ry="1.4560881"
         rx="1.4105853"
         cy="183.99721"
         cx="-29.399052"
         id="path16"
         style="opacity:1;vector-effect:none;fill:#d5e5ff;fill-opacity:1;stroke:#d5e5ff;stroke-width:1.08960271;stroke-linecap:butt;stroke-linejoin:miter;stroke-miterlimit:4;stroke-dasharray:none;stroke-dashoffset:0;stroke-opacity:1" />
      <ellipse
         transform="rotate(-42.526598)"
         ry="1.6996703"
         rx="1.450938"
         cy="193.94768"
         cx="-29.190487"
         id="path18"
         style="opacity:1;vector-effect:none;fill:#d5e5ff;fill-opacity:1;stroke:#d5e5ff;stroke-width:0.99268472;stroke-linecap:butt;stroke-linejoin:miter;stroke-miterlimit:4;stroke-dasharray:none;stroke-dashoffset:0;stroke-opacity:1" />
      <ellipse
         style="opacity:1;vector-effect:none;fill:#d5e5ff;fill-opacity:1;stroke:#d5e5ff;stroke-width:1.10106993;stroke-linecap:butt;stroke-linejoin:miter;stroke-miterlimit:4;stroke-dasharray:none;stroke-dashoffset:0;stroke-opacity:1"
         id="ellipse28"
         cx="-29.403099"
         cy="205.82912"
         rx="1.609357"
         ry="1.8852469"
         transform="rotate(-42.526598)" />
      <ellipse
         transform="rotate(-42.526598)"
         ry="1.6584311"
         rx="1.4157337"
         cy="217.70691"
         cx="-29.143242"
         id="ellipse30"
         style="opacity:1;vector-effect:none;fill:#d5e5ff;fill-opacity:1;stroke:#d5e5ff;stroke-width:0.96859914;stroke-linecap:butt;stroke-linejoin:miter;stroke-miterlimit:4;stroke-dasharray:none;stroke-dashoffset:0;stroke-opacity:1" />
      <ellipse
         style="opacity:1;vector-effect:none;fill:#d5e5ff;fill-opacity:1;stroke:#d5e5ff;stroke-width:1.14172041;stroke-linecap:butt;stroke-linejoin:miter;stroke-miterlimit:4;stroke-dasharray:none;stroke-dashoffset:0;stroke-opacity:1"
         id="ellipse32"
         cx="-29.482841"
         cy="232.90657"
         rx="1.6687731"
         ry="1.9548485"
         transform="rotate(-42.526598)" />
      <ellipse
         transform="rotate(47.473402)"
         ry="2.4054255"
         rx="2.6726952"
         cy="38.101849"
         cx="236.37178"
         id="path38"
         style="opacity:1;vector-effect:none;fill:#d5e5ff;fill-opacity:1;stroke:#0044aa;stroke-width:0.5;stroke-linecap:butt;stroke-linejoin:miter;stroke-miterlimit:4;stroke-dasharray:none;stroke-dashoffset:0;stroke-opacity:1" />
      <ellipse
         transform="rotate(47.473402)"
         style="opacity:1;vector-effect:none;fill:#d5e5ff;fill-opacity:1;stroke:#0044aa;stroke-width:0.37464607;stroke-linecap:butt;stroke-linejoin:miter;stroke-miterlimit:4;stroke-dasharray:none;stroke-dashoffset:0;stroke-opacity:1"
         id="ellipse849"
         cx="231.1523"
         cy="38.101849"
         rx="1.8667461"
         ry="1.9335634" />
      <ellipse
         transform="rotate(47.473402)"
         ry="1.1054658"
         rx="4.2458825"
         cy="37.433674"
         cx="196.51607"
         id="ellipse851"
         style="opacity:1;vector-effect:none;fill:#d5e5ff;fill-opacity:1;stroke:#0044aa;stroke-width:0.42722431;stroke-linecap:butt;stroke-linejoin:miter;stroke-miterlimit:4;stroke-dasharray:none;stroke-dashoffset:0;stroke-opacity:1" />
      <ellipse
         transform="rotate(88.70361)"
         style="opacity:1;vector-effect:none;fill:#d5e5ff;fill-opacity:1;stroke:#0044aa;stroke-width:0.42722431;stroke-linecap:butt;stroke-linejoin:miter;stroke-miterlimit:4;stroke-dasharray:none;stroke-dashoffset:0;stroke-opacity:1"
         id="ellipse853"
         cx="160.59244"
         cy="-113.29422"
         rx="4.2458825"
         ry="1.1054658" />
      <ellipse
         inkscape:transform-center-y="-0.40090429"
         inkscape:transform-center-x="2.9399648"
         ry="1.1054658"
         rx="4.2458825"
         cy="-127.77907"
         cx="143.32104"
         id="ellipse855"
         style="opacity:1;vector-effect:none;fill:#d5e5ff;fill-opacity:1;stroke:#0044aa;stroke-width:0.42722431;stroke-linecap:butt;stroke-linejoin:miter;stroke-miterlimit:4;stroke-dasharray:none;stroke-dashoffset:0;stroke-opacity:1"
         transform="rotate(95.122319)" />
      <ellipse
         transform="rotate(79.64094)"
         style="opacity:1;vector-effect:none;fill:#d5e5ff;fill-opacity:1;stroke:#0044aa;stroke-width:0.42722431;stroke-linecap:butt;stroke-linejoin:miter;stroke-miterlimit:4;stroke-dasharray:none;stroke-dashoffset:0;stroke-opacity:1"
         id="ellipse857"
         cx="178.93488"
         cy="-89.262741"
         rx="4.2458825"
         ry="1.1054658" />
      <ellipse
         transform="rotate(-42.526598)"
         ry="1.9548485"
         rx="1.6687731"
         cy="259.3649"
         cx="-29.482841"
         id="ellipse859"
         style="opacity:1;vector-effect:none;fill:#d5e5ff;fill-opacity:1;stroke:#d5e5ff;stroke-width:1.14172041;stroke-linecap:butt;stroke-linejoin:miter;stroke-miterlimit:4;stroke-dasharray:none;stroke-dashoffset:0;stroke-opacity:1" />
      <ellipse
         style="opacity:1;vector-effect:none;fill:#d5e5ff;fill-opacity:1;stroke:#d5e5ff;stroke-width:1.14172041;stroke-linecap:butt;stroke-linejoin:miter;stroke-miterlimit:4;stroke-dasharray:none;stroke-dashoffset:0;stroke-opacity:1"
         id="ellipse861"
         cx="-29.482841"
         cy="269.94824"
         rx="1.6687731"
         ry="1.9548485"
         transform="rotate(-42.526598)" />
      <path
         inkscape:connector-curvature="0"
         id="path863"
         d="M 56.701198,108.95087 C 155.38299,220.33603 155.38299,220.33603 155.38299,220.33603"
         style="opacity:1;vector-effect:none;fill:none;fill-opacity:1;stroke:#aaccff;stroke-width:1;stroke-linecap:butt;stroke-linejoin:miter;stroke-miterlimit:4;stroke-dasharray:none;stroke-dashoffset:0;stroke-opacity:1" />
      <path
         inkscape:connector-curvature="0"
         id="path865"
         d="m 65.452436,113.10146 38.922624,40.45998"
         style="opacity:1;vector-effect:none;fill:none;fill-opacity:1;stroke:#80b3ff;stroke-width:0.70555556;stroke-linecap:butt;stroke-linejoin:miter;stroke-miterlimit:4;stroke-dasharray:none;stroke-dashoffset:0;stroke-opacity:1" />
      <path
         inkscape:connector-curvature="0"
         id="path867"
         d="m 104.37506,153.56144 52.43922,55.98783"
         style="opacity:1;vector-effect:none;fill:#aaccff;fill-opacity:1;stroke:#80b3ff;stroke-width:0.70555556;stroke-linecap:butt;stroke-linejoin:miter;stroke-miterlimit:4;stroke-dasharray:none;stroke-dashoffset:0;stroke-opacity:1" />
      <path
         inkscape:connector-curvature="0"
         id="path869"
         d="m 121.11206,177.74079 40.20476,45.81197"
         style="opacity:1;vector-effect:none;fill:#0066ff;fill-opacity:1;stroke:#aaccff;stroke-width:0.70555556;stroke-linecap:butt;stroke-linejoin:miter;stroke-miterlimit:4;stroke-dasharray:none;stroke-dashoffset:0;stroke-opacity:1" />
      <path
         inkscape:connector-curvature="0"
         id="path873"
         d="m 65.452436,113.10146 53.849384,49.61715"
         style="opacity:1;vector-effect:none;fill:#28170b;fill-opacity:1;stroke:#0000ff;stroke-width:0.70555556;stroke-linecap:butt;stroke-linejoin:miter;stroke-miterlimit:4;stroke-dasharray:none;stroke-dashoffset:0;stroke-opacity:1" />
      <ellipse
         transform="rotate(47.473402)"
         ry="20.052786"
         rx="4.0166159"
         cy="30.351032"
         cx="318.15628"
         id="path879"
         style="opacity:1;vector-effect:none;fill:#28170b;fill-opacity:1;stroke:#28170b;stroke-width:0.98485345;stroke-linecap:butt;stroke-linejoin:miter;stroke-miterlimit:4;stroke-dasharray:none;stroke-dashoffset:0;stroke-opacity:1" />
      <ellipse
         transform="rotate(47.473402)"
         ry="17.426868"
         rx="4.8652"
         cy="29.95013"
         cx="321.7644"
         id="path883"
         style="opacity:1;vector-effect:none;fill:#28170b;fill-opacity:1;stroke:#28170b;stroke-width:1.15857208;stroke-linecap:butt;stroke-linejoin:miter;stroke-miterlimit:4;stroke-dasharray:none;stroke-dashoffset:0;stroke-opacity:1" />
      <path
         inkscape:connector-curvature="0"
         id="path885"
         d="M 49.966426,99.379945 33.361865,80.881742"
         style="opacity:1;vector-effect:none;fill:#b380ff;fill-opacity:1;stroke:#5f8dd3;stroke-width:3;stroke-linecap:butt;stroke-linejoin:miter;stroke-miterlimit:4;stroke-dasharray:none;stroke-dashoffset:0;stroke-opacity:1" />
      <g
         transform="matrix(1.1849777,0,0,1.1849777,-6.2495652,-14.746661)"
         id="g986">
        <path
           style="opacity:1;vector-effect:none;fill:#aa8800;fill-opacity:1;stroke:#aa8800;stroke-width:0.70555556;stroke-linecap:butt;stroke-linejoin:miter;stroke-miterlimit:4;stroke-dasharray:none;stroke-dashoffset:0;stroke-opacity:1"
           d="m 34.003184,83.557501 -5.239028,-5.71207 C 25.664401,74.70454 22.348621,71.761784 19.13229,68.727813 l 3.299213,-3.025989 8.487068,10.439607 5.251261,5.428851 z"
           id="path887"
           inkscape:connector-curvature="0"
           sodipodi:nodetypes="ccccccc" />
        <path
           style="fill:none;stroke:#800000;stroke-width:0.26458332px;stroke-linecap:butt;stroke-linejoin:miter;stroke-opacity:1"
           d="m 32.457919,76.633544 c -0.08072,0.0438 -0.163598,0.08382 -0.242134,0.131412 -0.05246,0.03178 -0.102424,0.09394 -0.147725,0.135491 -0.114899,0.105384 -0.229795,0.210766 -0.344695,0.31615 -0.344694,0.316148 -0.689386,0.632295 -1.034081,0.948444 -0.114899,0.105384 -0.229796,0.210765 -0.344694,0.316149 -0.01642,0.01506 -0.04828,0.02292 -0.04924,0.04517 -0.0054,0.125874 0.127236,-0.02603 -0.0041,0.09441 -0.01642,0.01506 -0.03282,0.03011 -0.04924,0.04517 -0.01642,0.01506 -0.04126,0.02441 -0.04924,0.04517 -0.01124,0.02942 0.0072,0.06499 -0.0041,0.09441 -0.008,0.02076 -0.04132,0.02432 -0.04924,0.04516 -0.01124,0.02942 0.0072,0.06498 -0.0041,0.0944 -0.007,0.01836 -0.171218,0.157039 -0.196969,0.180657 -0.09848,0.09033 -0.196967,0.180656 -0.295452,0.270985 -0.02218,0.02034 -0.139606,0.114258 -0.147725,0.135491 -0.01124,0.02942 0.0072,0.06498 -0.0041,0.09441 -0.0079,0.02083 -0.04828,0.02292 -0.04924,0.04517 -9.61e-4,0.02224 0.04612,0.027 0.04517,0.04924 -9.61e-4,0.02224 -0.04828,0.02292 -0.04924,0.04516 -4.09e-4,0.0095 0.126038,0.14733 0.135491,0.147725 0.04451,0.0019 0.05398,-0.09225 0.09848,-0.09033 0.02224,9.6e-4 0.02292,0.04828 0.04517,0.04924 0.02583,0.0011 0.158008,-0.169511 0.196967,-0.180656 0.03027,-0.0087 0.06413,0.01274 0.09441,0.0041 0.04283,-0.01225 0.05398,-0.09225 0.09849,-0.09033 0.02224,9.61e-4 0.02292,0.04828 0.04517,0.04924 0.003,1.28e-4 0.135784,-0.124539 0.147725,-0.135491 0.246209,-0.22582 0.492419,-0.45164 0.738631,-0.677462 0.508834,-0.466695 1.017667,-0.93339 1.526501,-1.400085 0.01642,-0.01506 0.03282,-0.03011 0.04924,-0.04517 0.01642,-0.01506 0.0278,-0.03906 0.04924,-0.04516 0.03028,-0.0087 0.06413,0.01274 0.09441,0.0041 0.05746,-0.01643 0.09027,-0.119061 0.147727,-0.135492 0.03028,-0.0087 0.06413,0.01273 0.09441,0.0041 0.02137,-0.0062 0.027,-0.04612 0.04924,-0.04517 0.02224,9.61e-4 0.02658,0.03697 0.04517,0.04924 0.254133,0.167808 0.121342,0.03344 0.229902,0.151804 0.01506,0.01642 0.02292,0.04828 0.04516,0.04924 0.02224,9.61e-4 0.027,-0.04612 0.04924,-0.04517 0.02224,9.6e-4 0.04612,0.027 0.04517,0.04924 -0.131313,0.120438 0.0014,-0.03148 -0.0041,0.09441 -9.82e-4,0.02273 -0.195994,0.15793 -0.196968,0.180656 -9.61e-4,0.02224 0.04612,0.027 0.04517,0.04924 -0.002,0.04721 -0.145688,0.08829 -0.147727,0.135493 -9.6e-4,0.02224 0.04612,0.027 0.04517,0.04924 -9.82e-4,0.02273 -0.195994,0.157929 -0.196967,0.180655 -9.61e-4,0.02224 0.04612,0.027 0.04517,0.04924 -9.6e-4,0.02224 -0.03282,0.03011 -0.04924,0.04517 -0.01642,0.01506 -0.03282,0.03011 -0.04924,0.04517 -0.213382,0.19571 -0.426764,0.391421 -0.640145,0.587131 -0.525248,0.48175 -1.050496,0.9635 -1.575743,1.445249 -0.08207,0.07527 -0.164139,0.150546 -0.24621,0.22582 -0.01642,0.01506 -0.04828,0.02292 -0.04924,0.04517 -9.61e-4,0.02224 0.04612,0.027 0.04517,0.04924 -0.0019,0.04451 -0.09656,0.04582 -0.09849,0.09033 -9.61e-4,0.02224 0.03604,0.02894 0.04517,0.04924 0.02034,0.04546 0.02076,0.09819 0.04109,0.143644 0.0091,0.02031 0.03899,0.02786 0.04517,0.04924 0.0053,0.01869 -0.03272,0.14046 0.04108,0.143649 0.04451,0.0019 0.05566,-0.07808 0.09848,-0.09033 0.03028,-0.0087 0.06413,0.01273 0.09441,0.0041 0.02134,-0.0061 0.274739,-0.251986 0.295453,-0.270985 0.01642,-0.01506 0.0278,-0.03907 0.04924,-0.04516 0.03028,-0.0087 0.06413,0.01273 0.09441,0.0041 0.02598,-0.0074 0.21196,-0.194407 0.24621,-0.22582 0.196967,-0.180656 0.393935,-0.361311 0.590904,-0.541969 0.03425,-0.03141 0.22023,-0.218396 0.24621,-0.22582 0.03028,-0.0087 0.06412,0.01274 0.09441,0.0041 0.03067,-0.0088 0.226745,-0.207966 0.24621,-0.22582 0.180556,-0.165603 0.361109,-0.331203 0.541663,-0.496805 0.164141,-0.150547 0.328279,-0.301093 0.492421,-0.451642 0.01642,-0.01506 0.03282,-0.03011 0.04924,-0.04516 0.01642,-0.01506 0.027,-0.04612 0.04924,-0.04516 0.02224,9.6e-4 0.02292,0.04828 0.04516,0.04924 0.0042,1.83e-4 0.222993,-0.204526 0.24621,-0.22582 0.01642,-0.01506 0.027,-0.04612 0.04924,-0.04517 0.02224,9.61e-4 0.02292,0.04828 0.04517,0.04924 0.02273,9.82e-4 0.174242,-0.181645 0.196968,-0.180656 0.02224,9.61e-4 0.02292,0.04828 0.04517,0.04924 0.02224,9.61e-4 0.027,-0.04612 0.04924,-0.04517 0.02224,9.61e-4 0.03011,0.03282 0.04517,0.04924 0.01096,0.01195 0.135587,0.144722 0.135492,0.147725 -9.61e-4,0.02224 -0.04828,0.02292 -0.04924,0.04517 -9.61e-4,0.02224 0.05311,0.02844 0.04517,0.04924 -0.0159,0.04161 -0.07685,0.05138 -0.09848,0.09033 -0.01526,0.02757 0.0072,0.06498 -0.0041,0.09441 -0.008,0.02076 -0.03283,0.03011 -0.04924,0.04517 -0.01642,0.01506 -0.03282,0.03011 -0.04924,0.04516 -0.09848,0.09033 -0.196967,0.180655 -0.295452,0.270984 -0.01808,0.01658 -0.196811,0.176849 -0.196967,0.180656 -9.61e-4,0.02224 0.04612,0.027 0.04517,0.04924 -9.61e-4,0.02224 -0.03283,0.03011 -0.04924,0.04517 -0.08207,0.07527 -0.164139,0.150546 -0.24621,0.22582 -0.08207,0.07527 -0.164139,0.150546 -0.24621,0.22582 -0.01642,0.01506 -0.03283,0.03011 -0.04924,0.04517 -0.01642,0.01506 -0.04125,0.0244 -0.04924,0.04516 -0.01124,0.02942 0.0072,0.06498 -0.0041,0.09441 -0.01683,0.04401 -0.2294,0.181785 -0.24621,0.22582 -0.01124,0.02942 0.0072,0.06499 -0.0041,0.0944 -0.01618,0.04238 -0.279265,0.228606 -0.295452,0.270984 -0.01124,0.02942 0.0072,0.06499 -0.0041,0.09441 -0.0079,0.02083 -0.03283,0.03011 -0.04924,0.04517 -0.01642,0.01506 -0.03283,0.03011 -0.04924,0.04517 -0.09848,0.09033 -0.19697,0.180658 -0.295453,0.270984 -0.01642,0.01506 -0.03282,0.03011 -0.04924,0.04517 -0.01642,0.01506 -0.04126,0.02441 -0.04924,0.04517 -0.01124,0.02942 0.0072,0.06499 -0.0041,0.09441 -0.0069,0.01802 -0.260549,0.238972 -0.295451,0.270984 -0.02217,0.02034 -0.139608,0.11426 -0.147725,0.135491 -0.01124,0.02942 0.0072,0.06498 -0.0041,0.09441 -0.01681,0.04403 -0.2294,0.181784 -0.24621,0.22582 -0.01124,0.02942 0.0072,0.06498 -0.0041,0.09441 -0.008,0.02076 -0.04828,0.02292 -0.04924,0.04517 -1.29e-4,0.003 0.124537,0.135781 0.135491,0.147725 0.01096,0.01195 0.132491,0.14756 0.135491,0.147725 0.02019,8.72e-4 0.161521,-0.164808 0.19697,-0.180658 0.04546,-0.02034 0.09819,-0.02076 0.143648,-0.04108 0.02031,-0.0091 0.02894,-0.03604 0.04924,-0.04517 0.04546,-0.02034 0.09988,-0.01733 0.143651,-0.04108 0.04762,-0.02584 0.244244,-0.224017 0.295452,-0.270984 0.213382,-0.195711 0.426763,-0.391421 0.640145,-0.587132 0.508833,-0.466694 1.017667,-0.933389 1.526501,-1.400084 0.01642,-0.01506 0.03282,-0.03011 0.04924,-0.04517 0.01642,-0.01506 0.027,-0.04612 0.04924,-0.04517 0.02224,9.61e-4 0.02292,0.04828 0.04517,0.04924 0.02224,9.61e-4 0.02787,-0.039 0.04924,-0.04517 0.03028,-0.0087 0.06413,0.01274 0.09441,0.0041 0.04283,-0.01225 0.05566,-0.07808 0.09848,-0.09033 0.03028,-0.0087 0.06412,0.01274 0.09441,0.0041 0.02137,-0.0062 0.027,-0.04612 0.04924,-0.04517 0.02224,9.61e-4 0.02292,0.04828 0.04516,0.04924 0.25175,0.01088 0.03691,-0.12451 0.283219,0.01224 0.01945,0.01085 0.03011,0.03283 0.04516,0.04924 0.01506,0.01642 0.04612,0.027 0.04516,0.04924 -0.0019,0.04451 -0.07685,0.05138 -0.09848,0.09033 -0.02418,0.04354 -0.02915,0.09603 -0.05332,0.139573 -0.01929,0.03475 -0.115369,0.105814 -0.147725,0.135491 -0.114899,0.105383 -0.229796,0.210765 -0.344695,0.316148 -0.01642,0.01506 -0.03282,0.03011 -0.04924,0.04517 -0.01642,0.01506 -0.04828,0.02292 -0.04924,0.04517 -9.61e-4,0.02224 0.04612,0.027 0.04517,0.04924 -1.28e-4,0.003 -0.135781,0.124537 -0.147725,0.135491 -0.196967,0.180656 -0.393936,0.361313 -0.590904,0.541969 -0.213382,0.195711 -0.426763,0.391421 -0.640144,0.587131 -0.01642,0.01506 -0.03283,0.03011 -0.04924,0.04517 -0.01642,0.01506 -0.04828,0.02292 -0.04924,0.04517 -9.61e-4,0.02224 0.04612,0.027 0.04517,0.04924 -9.61e-4,0.02224 -0.03282,0.03011 -0.04924,0.04516 -0.01642,0.01506 -0.03282,0.03011 -0.04924,0.04517 -0.09848,0.09033 -0.196967,0.180656 -0.295452,0.270985 -0.01642,0.01506 -0.04828,0.02292 -0.04924,0.04516 -9.6e-4,0.02224 0.04612,0.027 0.04517,0.04924 -9.61e-4,0.02224 -0.03282,0.03011 -0.04924,0.04517 -0.08207,0.07527 -0.164141,0.150547 -0.246209,0.225819 -0.01642,0.01506 -0.04828,0.02292 -0.04924,0.04517 -9.61e-4,0.02224 0.04612,0.027 0.04517,0.04924 -9.82e-4,0.02273 -0.195996,0.157932 -0.196968,0.180656 -9.6e-4,0.02224 0.04612,0.027 0.04516,0.04924 -0.0019,0.04451 -0.09656,0.04582 -0.09848,0.09033 0.120439,0.131313 0.0014,-0.03148 -0.0041,0.09441 -9.6e-4,0.02224 0.04612,0.027 0.04517,0.04924 -9.61e-4,0.02224 -0.04828,0.02292 -0.04924,0.04516 -9.6e-4,0.02224 0.03011,0.03283 0.04517,0.04924 0.03011,0.03283 0.06022,0.06566 0.09033,0.09848 0.04781,0.05212 0.09344,0.14338 0.184737,0.102562 0.04066,-0.01819 0.05783,-0.07214 0.09849,-0.09033 0.02871,-0.0129 0.06412,0.01274 0.09441,0.0041 0.04515,-0.01291 0.151815,-0.167752 0.196967,-0.180656 0.03028,-0.0087 0.06413,0.01274 0.09441,0.0041 0.02598,-0.0074 0.211959,-0.194406 0.246209,-0.225819 0.180554,-0.165602 0.361107,-0.331203 0.541663,-0.496805 0.508833,-0.466695 1.017667,-0.93339 1.5265,-1.400085 0.164139,-0.150546 0.328281,-0.301094 0.492419,-0.45164 0.01642,-0.01506 0.03283,-0.03011 0.04924,-0.04516 0.01642,-0.01506 0.027,-0.04612 0.04924,-0.04517 0.02224,9.6e-4 0.03011,0.03282 0.04517,0.04924 0.01506,0.01642 0.03011,0.03282 0.04517,0.04924 0.01506,0.01642 0.04612,0.027 0.04517,0.04924 -9.61e-4,0.02224 -0.0384,0.02572 -0.04924,0.04516 -0.02418,0.04354 -0.02915,0.09603 -0.05332,0.139573 -0.02163,0.03894 -0.09656,0.04582 -0.09848,0.09033 -9.61e-4,0.02224 0.04612,0.027 0.04517,0.04924 -1.65e-4,0.0038 -0.178884,0.16407 -0.196969,0.180657 -0.01642,0.01506 -0.03282,0.03011 -0.04924,0.04516 -0.01642,0.01506 -0.04125,0.02441 -0.04924,0.04517 -0.01125,0.02941 0.0072,0.06498 -0.0041,0.0944 -0.01409,0.0369 -0.178453,0.152684 -0.196968,0.180656 -0.02744,0.04157 -0.02588,0.09801 -0.05332,0.139573 -0.03441,0.05209 -0.189006,0.173353 -0.246209,0.225819 -0.16414,0.150547 -0.328281,0.301094 -0.49242,0.451641 -0.541662,0.496804 -1.083324,0.993609 -1.624986,1.490413"
           id="path889"
           inkscape:connector-curvature="0" />
      </g>
      <ellipse
         style="opacity:1;vector-effect:none;fill:#d5e5ff;fill-opacity:1;stroke:#d5e5ff;stroke-width:0.76212853;stroke-linecap:butt;stroke-linejoin:miter;stroke-miterlimit:4;stroke-dasharray:none;stroke-dashoffset:0;stroke-opacity:1"
         id="ellipse891"
         cx="-28.811371"
         cy="174.54439"
         rx="0.98664153"
         ry="1.0184687"
         transform="rotate(-42.526598)" />
      <ellipse
         transform="rotate(-42.526598)"
         ry="1.0184687"
         rx="0.98664153"
         cy="166.72675"
         cx="-29.546364"
         id="ellipse893"
         style="opacity:1;vector-effect:none;fill:#d5e5ff;fill-opacity:1;stroke:#d5e5ff;stroke-width:0.76212853;stroke-linecap:butt;stroke-linejoin:miter;stroke-miterlimit:4;stroke-dasharray:none;stroke-dashoffset:0;stroke-opacity:1" />
      <ellipse
         style="opacity:1;vector-effect:none;fill:#d5e5ff;fill-opacity:1;stroke:#d5e5ff;stroke-width:0.76212853;stroke-linecap:butt;stroke-linejoin:miter;stroke-miterlimit:4;stroke-dasharray:none;stroke-dashoffset:0;stroke-opacity:1"
         id="ellipse895"
         cx="-30.014084"
         cy="157.37231"
         rx="0.98664153"
         ry="1.0184687"
         transform="rotate(-42.526598)" />
      <ellipse
         style="opacity:1;vector-effect:none;fill:#d5e5ff;fill-opacity:1;stroke:#d5e5ff;stroke-width:0.50941908;stroke-linecap:butt;stroke-linejoin:miter;stroke-miterlimit:4;stroke-dasharray:none;stroke-dashoffset:0;stroke-opacity:1"
         id="ellipse897"
         cx="-31.675278"
         cy="200.9635"
         rx="0.7445823"
         ry="0.87222505"
         transform="rotate(-42.526598)" />
      <ellipse
         transform="rotate(-42.526598)"
         ry="0.87222505"
         rx="0.7445823"
         cy="212.05518"
         cx="-28.200775"
         id="ellipse899"
         style="opacity:1;vector-effect:none;fill:#d5e5ff;fill-opacity:1;stroke:#d5e5ff;stroke-width:0.50941908;stroke-linecap:butt;stroke-linejoin:miter;stroke-miterlimit:4;stroke-dasharray:none;stroke-dashoffset:0;stroke-opacity:1" />
      <ellipse
         transform="rotate(-42.526598)"
         ry="0.87222505"
         rx="0.7445823"
         cy="189.13683"
         cx="-28.601677"
         id="ellipse901"
         style="opacity:1;vector-effect:none;fill:#d5e5ff;fill-opacity:1;stroke:#d5e5ff;stroke-width:0.50941908;stroke-linecap:butt;stroke-linejoin:miter;stroke-miterlimit:4;stroke-dasharray:none;stroke-dashoffset:0;stroke-opacity:1" />
    </g>
  </g>
</svg>
