<svg xmlns="http://www.w3.org/2000/svg" xmlns:svg="http://www.w3.org/2000/svg" id="svg2" width="534.474" height="1024.818" version="1.1" viewBox="0 0 501.069 960.767"><defs id="defs4"><linearGradient id="linearGradient3714"><stop style="stop-color:#fff" id="stop3716" offset="0"/><stop style="stop-color:#67674e" id="stop3718" offset="1"/></linearGradient><linearGradient id="linearGradient4328-4"><stop style="stop-color:#ffd200" id="stop4330-4" offset="0"/><stop style="stop-color:#a7a70e" id="stop4342-1" offset=".274"/><stop style="stop-color:#8f7600" id="stop4332-9" offset=".526"/><stop style="stop-color:#f7f762" id="stop4334-5" offset=".644"/><stop style="stop-color:#fff" id="stop4344-57" offset=".763"/><stop style="stop-color:#ebeb6e" id="stop4336-47" offset="1"/></linearGradient></defs><metadata id="metadata7"/><g id="layer1" transform="translate(79.773826,-40.49093)"><g id="g4988" transform="matrix(-0.95020482,-0.31162605,-0.31162605,0.95020482,543.50583,87.538163)"><g id="g4877"><g style="fill:#848484;fill-opacity:1" id="g4836" transform="translate(38.90952,16.828174)"><rect id="rect4172-6" width="34.016" height="8.319" x="90.197" y="55.462" style="fill:#848484;fill-opacity:1;stroke:none"/><path id="rect4309" d="m 67.969,49.615 c 0.09039,-0.10784 0.35808,-0.22357 0.35808,-0.22357 l 13.238,-2.4177 c 0,0 0.70463,-0.0927 1.0475,-0.009 0.34285,0.0836 0.85154,0.44499 0.85154,0.44499 l 8.9307,6.8624 -0.0074,10.519 -8.9568,7.0592 c 0,0 -0.51562,0.3961 -0.78827,0.45964 -0.27266,0.0635 -1.0096,-0.0858 -1.0096,-0.0858 l -13.429,-2.365 c 0,0 -0.23462,-0.064 -0.34967,-0.20156 -0.11505,-0.13753 -0.0763,-0.3344 -0.0916,-0.50469 -0.56792,-6.3219 -1.2012,-12.811 0.0068,-19.042 0.03389,-0.17481 0.08505,-0.35911 0.19944,-0.49558 z" style="fill:#848484;fill-opacity:1;stroke:none"/></g><g style="fill:#848484;fill-opacity:1" id="g4840" transform="translate(38.90952,15.620174)"><rect id="rect4172" width="35.641" height="8.319" x="200.58" y="56.647" style="fill:#848484;fill-opacity:1;stroke:none"/><path id="rect4309-4" d="m 256.76,50.823 c -0.0904,-0.10784 -0.35808,-0.22357 -0.35808,-0.22357 l -13.238,-2.4177 c 0,0 -0.70463,-0.0927 -1.0475,-0.009 -0.34285,0.0836 -0.85153,0.44499 -0.85153,0.44499 l -8.9307,6.8624 0.007,10.519 8.9568,7.0592 c 0,0 0.51562,0.3961 0.78827,0.45964 0.27266,0.0635 1.0096,-0.0858 1.0096,-0.0858 l 13.429,-2.365 c 0,0 0.23462,-0.064 0.34968,-0.20156 0.11505,-0.13753 0.0763,-0.3344 0.0916,-0.50469 0.56792,-6.3219 1.2012,-12.811 -0.007,-19.042 -0.0339,-0.17481 -0.0851,-0.35911 -0.19944,-0.49558 z" style="fill:#848484;fill-opacity:1;stroke:none"/></g></g><g id="g4885" transform="translate(1.1372146)"><g style="fill:#848484;fill-opacity:1" id="g4848" transform="translate(38.90952,16.828174)"><rect id="rect4172-4" width="33.349" height="8.319" x="95.766" y="127.77" style="fill:#848484;fill-opacity:1;stroke:none"/><path id="rect4309-7" d="m 72.812,121.8 c 0.09039,-0.10784 0.35808,-0.22357 0.35808,-0.22357 l 13.238,-2.4177 c 0,0 0.70463,-0.0927 1.0475,-0.009 0.34285,0.0836 0.85154,0.44499 0.85154,0.44499 l 8.9307,6.8624 -0.0074,10.519 -8.9568,7.0592 c 0,0 -0.51562,0.3961 -0.78827,0.45964 -0.27266,0.0635 -1.0096,-0.0858 -1.0096,-0.0858 l -13.429,-2.365 c 0,0 -0.23462,-0.064 -0.34967,-0.20156 -0.11505,-0.13753 -0.0763,-0.3344 -0.0916,-0.50469 -0.56792,-6.3219 -1.2012,-12.811 0.0068,-19.042 0.03389,-0.17481 0.08505,-0.35911 0.19944,-0.49558 z" style="fill:#848484;fill-opacity:1;stroke:none"/></g><g style="fill:#848484;fill-opacity:1" id="g4844" transform="translate(38.90952,16.568174)"><rect id="rect4172-9" width="35.141" height="8.319" x="195.76" y="127.86" style="fill:#848484;fill-opacity:1;stroke:none"/><path id="rect4309-78" d="m 251.9,122.06 c -0.0904,-0.10784 -0.35808,-0.22357 -0.35808,-0.22357 l -13.238,-2.4177 c 0,0 -0.70463,-0.0927 -1.0475,-0.009 -0.34285,0.0836 -0.85153,0.44499 -0.85153,0.44499 l -8.9307,6.8624 0.007,10.519 8.9568,7.0592 c 0,0 0.51562,0.3961 0.78827,0.45964 0.27266,0.0635 1.0096,-0.0858 1.0096,-0.0858 l 13.429,-2.365 c 0,0 0.23462,-0.064 0.34967,-0.20156 0.11506,-0.13753 0.0763,-0.3344 0.0916,-0.50469 0.56792,-6.3219 1.2012,-12.811 -0.007,-19.042 -0.0339,-0.17481 -0.085,-0.35911 -0.19943,-0.49558 z" style="fill:#848484;fill-opacity:1;stroke:none"/></g></g><path style="fill:#cb8348;fill-opacity:1" id="path3594" d="m 154.79952,578.14817 c -61.708,0.63521 -104.26,55.65 -70.21,130.17 5.326,11.905 11.979,23.289 15.558,35.717 1.67671,7.7463 2.0887,13.975 -0.70635,21.772 -7.9258,18.163 -13.804,27.397 -24.972,43.057 -57.734,80.469 -27.089,211.72003 128.3,203.74003 162.33,6.5422 181.63,-125.81003 120.86,-210.49003 -5.44026,-9.06577 -14.14,-21.576 -21.125,-34.544 -2.6262,-5.244 -3.41596,-11.58657 -1.92786,-18.21857 2.90282,-15.421 8.62429,-23.02843 13.52186,-31.50443 38.733,-69.145 2.5124,-142.41 -69.486,-139.87"/><path style="fill:#7c503e;fill-opacity:1" id="path3592" d="m 155.51952,714.65817 c 22.29852,23.16088 67.72969,19.52098 87.758,2.2741 l -6.4608,-492.14 -71.747,0.25045 z"/><ellipse style="fill:#1d1d1d;fill-opacity:1;stroke:#493026;stroke-width:4;stroke-miterlimit:4;stroke-dasharray:none;stroke-opacity:1" id="path2818" cx="197.49" cy="723.195" rx="47.488" ry="50.068" transform="rotate(-0.19999763)"/><g style="fill:#848484;fill-opacity:1;stroke:#848484;stroke-opacity:1" id="g4820"><path id="path3662" d="m 162.94952,342.25388 75.065,-0.2594" style="fill:#848484;fill-opacity:1;stroke:#848484;stroke-width:1px;stroke-linecap:round;stroke-opacity:1"/><path id="path3676" d="m 161.13952,431.91103 78.478,-0.27394" style="fill:#848484;fill-opacity:1;stroke:#848484;stroke-width:1px;stroke-linecap:round;stroke-opacity:1"/><path id="path3680" d="m 160.31452,477.87817 79.709,-0.28347" style="fill:#848484;fill-opacity:1;stroke:#848484;stroke-width:1px;stroke-linecap:round;stroke-opacity:1"/><path id="path3684" d="m 159.30952,524.60817 81.244,-0.28926" style="fill:#848484;fill-opacity:1;stroke:#848484;stroke-width:1px;stroke-linecap:round;stroke-opacity:1"/><path id="path3688" d="m 158.18952,566.94817 82.994,-0.29494" style="fill:#848484;fill-opacity:1;stroke:#848484;stroke-width:1px;stroke-linecap:round;stroke-opacity:1"/><path style="fill:#848484;fill-opacity:1;stroke:#848484;stroke-width:1px;stroke-linecap:round;stroke-opacity:1" id="path4808" d="m 161.76452,387.98246 76.978,-0.27394"/><path id="path4812" d="m 163.51452,297.98246 74.228,-0.27394" style="fill:#848484;fill-opacity:1;stroke:#848484;stroke-width:1px;stroke-linecap:round;stroke-opacity:1"/><path style="fill:#848484;fill-opacity:1;stroke:#848484;stroke-width:1px;stroke-linecap:round;stroke-opacity:1" id="path4816" d="m 164.26452,258.69675 72.978,-0.27394"/></g><path style="fill:#cb8348;fill-opacity:1" id="path3600" d="m 165.18952,218.78817 c -1.596,-16.461 -5.2711,-28.482 -13.119,-36.087 l -4.64,-145.029996 c 22.23,-1.164 37.44417,-7.981 54.86417,-20.84 13.138,11.337 32.38883,18.381 55.07983,20.459 l -7.7524,145.069996 c -8.3855,8.1329 -12.01,21.511 -12.938,36.535 l -71.499,-0.1078 z"/><path style="fill:#848484;fill-opacity:1" id="path3598" d="m 165.11952,225.10817 1.3e-4,-7.2264 71.73,-0.0108 0.0109,7.2246 -71.742,0.0125 h -4e-5 z"/><path style="fill:none;fill-opacity:1;stroke:#333;stroke-width:2;stroke-miterlimit:4;stroke-dasharray:none;stroke-opacity:1" id="path3850" d="m 175.32095,153.89817 -3.71553,64.139"/><rect id="rect4830" width="112.853" height="24.036" x="142.45" y="903.909" rx="4" ry="4" style="opacity:1;fill:#7c503e;fill-opacity:1;fill-rule:nonzero;stroke:none;stroke-width:12;stroke-linecap:round;stroke-linejoin:round;stroke-miterlimit:4;stroke-dasharray:none;stroke-dashoffset:0;stroke-opacity:1"/><path style="fill:#848484;fill-opacity:1" id="rect2891" d="m 153.79952,909.79218 h 90.154 c 1.7231,2.4613 1.7868,4.9225 0,7.3838 h -90.154 c -2.0005,-2.6835 -1.494,-5.0885 0,-7.3838 z"/><path style="fill:none;fill-opacity:1;stroke:#333;stroke-width:2;stroke-miterlimit:4;stroke-dasharray:none;stroke-opacity:1" id="path3602" d="m 171.60952,217.86817 -11.493,700.93 -0.002,-0.51617"/><path style="fill:none;fill-opacity:1;stroke:#333;stroke-width:2;stroke-miterlimit:4;stroke-dasharray:none;stroke-opacity:1" id="path3852" d="m 228.55952,144.21817 2.4543,75.727"/><g id="g4832" transform="translate(0.99545365)"><ellipse id="path4040" cx="177.65" cy="148.536" rx="9.706" ry="10.139" style="fill:#848484;fill-opacity:1;stroke:none"/><ellipse id="path4040-1" cx="225.165" cy="148.673" rx="9.706" ry="10.139" style="fill:#848484;fill-opacity:1;stroke:none"/></g><path style="fill:none;fill-opacity:1;stroke:#333;stroke-width:2;stroke-miterlimit:4;stroke-dasharray:none;stroke-opacity:1" id="path3858" d="M 175.74523,69.771174 191.74952,218.01117"/><path style="fill:none;fill-opacity:1;stroke:#333;stroke-width:2;stroke-miterlimit:4;stroke-dasharray:none;stroke-opacity:1" id="path3604" d="m 185.91952,918.70817 5.82,-700.84"/><path style="fill:none;fill-opacity:1;stroke:#333;stroke-width:2;stroke-miterlimit:4;stroke-dasharray:none;stroke-opacity:1" id="path3856" d="M 211.87952,218.56817 229.59095,70.615317"/><g id="g4804" transform="translate(1.0453041)"><ellipse id="path4040-14" cx="172.886" cy="76.581" rx="9.706" ry="10.139" style="fill:#848484;fill-opacity:1;stroke:none"/><ellipse id="path4040-8" cx="229.829" cy="77.317" rx="9.706" ry="10.139" style="fill:#848484;fill-opacity:1;stroke:none"/></g><g style="fill:#9e6332;fill-opacity:1;stroke:none" id="g4384" transform="matrix(1.5439892,0,0,1.5454939,184.96621,27.970154)"><path id="path3181" d="m 87.999997,179.66667 c -0.162334,0.0541 -9.710257,-13.92409 -9.873394,-13.97573 -0.163138,-0.0516 -16.015431,5.88619 -16.117058,5.74852 -0.101628,-0.13767 10.241964,-13.53778 10.240665,-13.7089 -0.0013,-0.17111 -10.547138,-13.41264 -10.447613,-13.55184 0.09953,-0.13919 16.04014,5.55728 16.202474,5.50317 0.162334,-0.0541 9.496941,-14.17566 9.660078,-14.12402 0.163137,0.0516 -0.328613,16.97238 -0.226986,17.11004 0.101627,0.13767 16.416567,4.65161 16.417867,4.82272 0.001,0.17111 -16.243231,4.93222 -16.342756,5.07142 -0.09953,0.13919 0.649057,17.05051 0.486723,17.10462 z" transform="matrix(0.58302,-0.19098,0.19098,0.58302,-65.804533,-55.201203)" style="fill:#9e6332;fill-opacity:1;stroke:none;stroke-width:.252178;stroke-opacity:.15873"/></g><path style="fill:none;fill-opacity:1;stroke:#333;stroke-width:2;stroke-miterlimit:4;stroke-dasharray:none;stroke-opacity:1" id="path3606" d="m 211.89952,218.26817 0.35021,700.51104"/><path style="fill:none;fill-opacity:1;stroke:#333;stroke-width:2;stroke-miterlimit:4;stroke-dasharray:none;stroke-opacity:1" id="path3608" d="M 238.05952,918.4516 235.67625,683.2959 230.95952,217.89817"/></g></g></svg>