<svg id="Layer_1" data-name="Layer 1" xmlns="http://www.w3.org/2000/svg" viewBox="0 0 19 27"><defs><style>.cls-1{fill:#4eabcb;}</style></defs><path class="cls-1" d="M15.09,20.23a3.88,3.88,0,0,0-.4-.49c-.38-.44-.58-.68-.44-1.11h0a.62.62,0,0,0,0-.48A.61.61,0,0,0,14,17.9a2.17,2.17,0,0,1-.86-.76.83.83,0,0,1-.17-.51.64.64,0,0,1,.31-.44,2.22,2.22,0,0,1,.46-.24.59.59,0,0,0,.35-.39A.66.66,0,0,0,14,15a2.55,2.55,0,0,1-.43-1.53,7.58,7.58,0,0,1,.14-1.13,3.92,3.92,0,0,0-.17-2.6,2.57,2.57,0,0,0-1.6-1.19,4,4,0,0,0-1.68-.26h-.15A32.74,32.74,0,0,1,9.74,3.1a1,1,0,0,0,.15-.32,3.3,3.3,0,0,0,0-1.53.63.63,0,0,0-.6-.31.67.67,0,0,0-.68.52,2.47,2.47,0,0,0,.27,1.61l0,.05c.07.07.05,3.7,0,5.21a1.15,1.15,0,0,0-.41,0,3.2,3.2,0,0,0-3,1.47,3.92,3.92,0,0,0-.17,2.6,7.58,7.58,0,0,1,.14,1.13A2.59,2.59,0,0,1,5,15.06a.59.59,0,0,0-.08.5.55.55,0,0,0,.34.37,2.24,2.24,0,0,1,.49.26.64.64,0,0,1,.31.44.83.83,0,0,1-.17.51,2.17,2.17,0,0,1-.86.76.61.61,0,0,0-.28.25.62.62,0,0,0,0,.48h0c.14.43-.06.67-.44,1.11a3.88,3.88,0,0,0-.4.49,2.69,2.69,0,0,0-.17,2.85,4.6,4.6,0,0,0,1.89,2,8.71,8.71,0,0,0,2.49.89,6.55,6.55,0,0,0,1.41.14,8,8,0,0,0,2.6-.44,5.35,5.35,0,0,0,3.13-2.54A2.69,2.69,0,0,0,15.09,20.23Zm-.55,2.49c-.83,1.67-3,2.54-5,2.54l0-.09h0A1.38,1.38,0,0,0,10,23.92l1.06-3H8.14l.44,1.6a2.05,2.05,0,0,0-.34-.07,4,4,0,0,0-1.89.32c-.49.19-1,.44-1.43.67a3,3,0,0,1-.46-.7,1.87,1.87,0,0,1,.12-2,4,4,0,0,1,.33-.41,1.91,1.91,0,0,0,.65-1.74,2.93,2.93,0,0,0,1-1,1.6,1.6,0,0,0,.3-1,1.47,1.47,0,0,0-.63-1,2.91,2.91,0,0,0-.42-.23,3.47,3.47,0,0,0,.44-1.81,7.36,7.36,0,0,0-.14-1.26,3.1,3.1,0,0,1,.09-2.09c.33-.64,1.08-1,2.28-1h.18a1.07,1.07,0,0,1,.14.2c0,.71-.09,1.42-.13,2.12l-.18,2.84a8.05,8.05,0,0,1,1-.06,12,12,0,0,1,1.25.07c-.09-.71-.34-2.85-.6-5a.58.58,0,0,1,.12-.14h.12v0a3.27,3.27,0,0,1,1.22.24,1.79,1.79,0,0,1,1.12.79,3.1,3.1,0,0,1,.09,2.09,7.36,7.36,0,0,0-.14,1.26,3.47,3.47,0,0,0,.44,1.81,2.18,2.18,0,0,0-.42.23,1.47,1.47,0,0,0-.63,1,1.6,1.6,0,0,0,.3,1,2.93,2.93,0,0,0,1,1,1.91,1.91,0,0,0,.65,1.74,4,4,0,0,1,.33.41A1.87,1.87,0,0,1,14.54,22.72Z"/><path class="cls-1" d="M7.45,2.78a.54.54,0,0,0-.34-.14.46.46,0,0,0-.34.14.47.47,0,0,0,0,.69.52.52,0,0,0,.34.14.54.54,0,0,0,.34-.14.52.52,0,0,0,.14-.35A.54.54,0,0,0,7.45,2.78Z"/><path class="cls-1" d="M11.86,1.14a.5.5,0,0,0-.69,0,.57.57,0,0,0-.14.35.54.54,0,0,0,.14.34.52.52,0,0,0,.35.14A.48.48,0,0,0,12,1.49.55.55,0,0,0,11.86,1.14Z"/></svg>