<svg id="Layer_1" data-name="Layer 1" xmlns="http://www.w3.org/2000/svg" viewBox="0 0 29 37"><defs><style>.cls-1{fill:#242323;}</style></defs><path class="cls-1" d="M22.06,27.61a5.88,5.88,0,0,0-.53-.66c-.52-.6-.79-.93-.61-1.5h0a.81.81,0,0,0,0-.65.76.76,0,0,0-.38-.34,2.93,2.93,0,0,1-1.16-1,1.15,1.15,0,0,1-.23-.69.93.93,0,0,1,.41-.61,3.26,3.26,0,0,1,.62-.31.82.82,0,0,0,.48-.53.78.78,0,0,0-.11-.71A3.46,3.46,0,0,1,20,18.5,9.1,9.1,0,0,1,20.14,17a5.22,5.22,0,0,0-.23-3.51,3.45,3.45,0,0,0-2.16-1.62,5.16,5.16,0,0,0-2.28-.34h-.19a41.73,41.73,0,0,1-.45-7.08A1.5,1.5,0,0,0,15,4a4.52,4.52,0,0,0,0-2.07.88.88,0,0,0-.81-.42.91.91,0,0,0-.93.7,3.43,3.43,0,0,0,.38,2.19l.06.06c.09.1.06,5-.07,7.06a1.8,1.8,0,0,0-.56,0c-2,.09-3.37.76-4,2A5.22,5.22,0,0,0,8.86,17,9.1,9.1,0,0,1,9,18.5a3.44,3.44,0,0,1-.6,2.12.76.76,0,0,0-.11.67.75.75,0,0,0,.45.5,3.91,3.91,0,0,1,.68.34.93.93,0,0,1,.41.61,1.15,1.15,0,0,1-.23.69,2.93,2.93,0,0,1-1.16,1,.76.76,0,0,0-.38.34.81.81,0,0,0,0,.65h0c.18.57-.09.9-.61,1.5a5.88,5.88,0,0,0-.53.66,3.63,3.63,0,0,0-.24,3.86A6.25,6.25,0,0,0,9.27,34.1a11.64,11.64,0,0,0,3.36,1.21,9.26,9.26,0,0,0,1.92.19,10.61,10.61,0,0,0,3.51-.6,7.29,7.29,0,0,0,4.24-3.43A3.63,3.63,0,0,0,22.06,27.61ZM21.32,31c-1.12,2.25-4.1,3.44-6.78,3.43l0-.11,0,0a1.86,1.86,0,0,0,.57-1.68l1.44-4.09H12.66l.59,2.16a3.4,3.4,0,0,0-.46-.09,5.36,5.36,0,0,0-2.55.43c-.66.27-1.3.61-1.94.92A5,5,0,0,1,7.68,31a2.55,2.55,0,0,1,.16-2.76,5.2,5.2,0,0,1,.45-.55,2.55,2.55,0,0,0,.88-2.35A4.06,4.06,0,0,0,10.55,24,2.21,2.21,0,0,0,11,22.64a2,2,0,0,0-.86-1.39,3.2,3.2,0,0,0-.57-.32,4.56,4.56,0,0,0,.6-2.44,10.53,10.53,0,0,0-.19-1.71A4.23,4.23,0,0,1,10.06,14c.45-.88,1.46-1.34,3.09-1.41a1,1,0,0,1,.24,0,.94.94,0,0,1,.19.27L13.4,15.7l-.24,3.85a9.76,9.76,0,0,1,1.39-.1,13.42,13.42,0,0,1,1.69.11c-.11-1-.46-3.86-.81-6.79a.73.73,0,0,1,.16-.18h.17v0a5.25,5.25,0,0,1,1.65.33A2.43,2.43,0,0,1,18.94,14a4.23,4.23,0,0,1,.12,2.82,10.53,10.53,0,0,0-.19,1.71,4.56,4.56,0,0,0,.6,2.44,3.27,3.27,0,0,0-.57.32A2,2,0,0,0,18,22.64,2.21,2.21,0,0,0,18.45,24a4.06,4.06,0,0,0,1.38,1.29,2.55,2.55,0,0,0,.88,2.35,5.2,5.2,0,0,1,.45.55A2.55,2.55,0,0,1,21.32,31Z"/><path class="cls-1" d="M11.72,4a.64.64,0,0,0-.46-.19.65.65,0,1,0,0,1.3.64.64,0,0,0,.46-.19.63.63,0,0,0,0-.92Z"/><path class="cls-1" d="M17.69,1.78a.66.66,0,0,0-.46-.19.64.64,0,0,0-.46.19.67.67,0,0,0-.2.46.69.69,0,0,0,.2.47.69.69,0,0,0,.46.19.71.71,0,0,0,.46-.19.68.68,0,0,0,.19-.47A.66.66,0,0,0,17.69,1.78Z"/></svg>